<svg width="118.835" height="43" viewBox="0 0 118.835 43" xmlns="http://www.w3.org/2000/svg"><path d="M21.705 6.924V2.86h1.777v4.063h-1.777zm2.831 0V2.86h1.776v4.063h-1.776zm4.376-3.79h1.898v9.526h-1.898V3.133zm3.912-.273H34.6v5.553h.626l1.858-2.348h2.178l-2.6 3.103 2.62 3.491h-2.184l-1.899-2.667H34.6v2.667h-1.776V2.861zm16.04 3.661l-.6 1.381q-.442-.217-1.014-.374-.571-.156-1.088-.163-.497 0-.756.16-.258.16-.258.439 0 .258.265.37.266.113.81.195l.585.088q2.225.34 2.225 1.973 0 1.028-.803 1.633-.803.606-2.225.606-1.837 0-2.933-.776l.701-1.347q.973.646 2.246.646 1.218 0 1.218-.619 0-.238-.259-.38-.258-.144-.837-.225l-.537-.075q-2.28-.313-2.28-2 0-1.015.738-1.586.739-.572 2.045-.572 1.477 0 2.756.626zm3.919-.456h2.388v1.579h-2.388v2.409q0 .585.268.854.27.269.718.269.531 0 1.239-.43l.653 1.389q-1.014.694-2.184.694-1.218 0-1.844-.674-.626-.673-.626-1.96V7.646h-1.273V6.066h1.273v-1.96h1.776v1.96zm6.798-.177q1.422 0 2.31.96.888.96.895 2.504 0 .347-.034.599h-4.675q.136.687.585 1.027.449.34 1.11.34.428 0 .87-.166.442-.167.796-.466l1.041 1.143q-1.088 1-2.81 1-1.524 0-2.473-.95-.95-.948-.95-2.5 0-1.558.926-2.524.925-.967 2.409-.967zm-.014 1.531q-.612 0-.987.347-.374.347-.496.973h2.919q-.123-.632-.494-.976-.37-.344-.942-.344zm9.084-1.354h1.77V9.85q0 .755-.252 1.34-.252.585-.691.936-.439.35-.99.527-.551.177-1.184.177-.504 0-.96-.109-.455-.109-.854-.343-.398-.235-.687-.579-.289-.343-.456-.844-.166-.5-.166-1.105V6.066h1.776v3.627q0 .755.367 1.12.368.364.98.364t.98-.364q.367-.365.367-1.12V6.066zm7.247-.177q1.13 0 1.848.715.718.714.718 1.857v4.199h-1.776V9.033q0-.708-.337-1.092-.337-.385-.95-.385-.605 0-1 .388-.394.388-.394 1.103v3.613H72.23V6.066h1.728v.776q.64-.953 1.94-.953zm10.527 0q1.225 0 1.94.865V2.86h1.769v9.799h-1.735v-.728q-.729.898-1.974.898-1.36 0-2.276-.993-.915-.994-.915-2.477 0-1.484.915-2.477.915-.994 2.276-.994zm.327 1.654q-.762 0-1.232.52-.47.521-.47 1.297 0 .775.47 1.296.47.52 1.232.52.755 0 1.228-.513.473-.514.473-1.303 0-.79-.473-1.303-.473-.514-1.228-.514zm8.172-1.654q1.422 0 2.31.96.889.96.895 2.504 0 .347-.034.599H93.42q.137.687.586 1.027.449.34 1.109.34.429 0 .87-.166.443-.167.797-.466l1.041 1.143q-1.089 1-2.81 1-1.524 0-2.474-.95-.949-.948-.949-2.5 0-1.558.925-2.524.926-.967 2.41-.967zm-.013 1.531q-.613 0-.987.347t-.497.973h2.92q-.123-.632-.494-.976-.37-.344-.942-.344zM13.574 21.036h1.735v6.594h-1.735v-.728q-.728.898-1.974.898-1.36 0-2.276-.993-.915-.994-.915-2.477 0-1.484.915-2.477.916-.994 2.276-.994 1.239 0 1.974.905v-.728zm-1.647 1.477q-.762 0-1.232.52-.47.521-.47 1.297 0 .775.47 1.296.47.52 1.232.52.755 0 1.228-.513.473-.514.473-1.303 0-.79-.473-1.303-.473-.514-1.228-.514zm10.003-1.477h1.735v6.594H21.93v-.728q-.728.898-1.973.898-1.361 0-2.277-.993-.915-.994-.915-2.477 0-1.484.915-2.477.916-.994 2.277-.994 1.238 0 1.973.905v-.728zm-1.647 1.477q-.762 0-1.231.52-.47.521-.47 1.297 0 .775.47 1.296.47.52 1.231.52.756 0 1.229-.513.472-.514.472-1.303 0-.79-.472-1.303-.473-.514-1.229-.514zm8.914-1.654q1.13 0 1.848.715.718.714.718 1.857v4.199h-1.776v-3.627q0-.708-.337-1.092-.337-.385-.95-.385-.605 0-1 .388-.394.388-.394 1.103v3.613H25.53v-6.594h1.728v.776q.64-.953 1.94-.953zm8.078 0q1.367 0 2.283.994.915.993.915 2.477 0 1.483-.915 2.477-.916.993-2.277.993-1.218 0-1.939-.857v3.409h-1.77v-9.316h1.736v.728q.721-.905 1.967-.905zm-.327 1.654q-.748 0-1.221.514-.473.513-.473 1.303 0 .79.473 1.303.473.514 1.221.514.769 0 1.235-.521.466-.52.466-1.296t-.466-1.297q-.466-.52-1.235-.52zm9.73-1.477h1.736v6.594h-1.735v-.728q-.728.898-1.974.898-1.36 0-2.276-.993-.915-.994-.915-2.477 0-1.484.915-2.477.916-.994 2.276-.994 1.239 0 1.974.905v-.728zm-1.646 1.477q-.762 0-1.232.52-.47.521-.47 1.297 0 .775.47 1.296.47.52 1.232.52.755 0 1.228-.513.473-.514.473-1.303 0-.79-.473-1.303-.473-.514-1.228-.514zm5.247-4.682h1.776v5.553h.626l1.857-2.348h2.178l-2.6 3.103 2.62 3.491h-2.184l-1.899-2.667h-.598v2.667h-1.776v-9.799zm7.45 0h1.777v5.553h.626l1.857-2.348h2.178l-2.6 3.103 2.62 3.491h-2.184l-1.898-2.667h-.6v2.667H57.73v-9.799zM67.78 20.86q1.422 0 2.31.96.888.96.895 2.504 0 .347-.034.599h-4.675q.137.687.586 1.027.449.34 1.109.34.428 0 .87-.166.443-.167.797-.466l1.041 1.143q-1.089 1-2.81 1-1.525 0-2.474-.95-.949-.948-.949-2.5 0-1.558.925-2.524.926-.967 2.41-.967zm-.013 1.531q-.613 0-.987.347t-.497.973h2.92q-.123-.632-.494-.976-.37-.344-.942-.344zm8.247-1.53q.53 0 .925.142l-.265 1.763q-.476-.211-1.075-.211-.633 0-1.01.384-.378.385-.378 1.1v3.592h-1.776v-6.594h1.721v.722q.6-.899 1.858-.899zm7.329.632l-.6 1.381q-.441-.217-1.013-.374-.572-.156-1.089-.163-.497 0-.755.16-.259.16-.259.439 0 .258.266.37.265.113.81.195l.585.088q2.225.34 2.225 1.973 0 1.028-.803 1.633-.803.606-2.225.606-1.838 0-2.933-.776l.7-1.347q.974.646 2.246.646 1.218 0 1.218-.619 0-.238-.258-.38-.259-.144-.837-.225l-.538-.075q-2.28-.313-2.28-2 0-1.015.739-1.586.738-.572 2.045-.572 1.476 0 2.756.626zm9.404-.456h1.871L92.04 27.63h-2.048l-2.606-6.594h1.932l1.708 4.723 1.722-4.723zm7.492 0h1.735v6.594h-1.735v-.728q-.728.898-1.974.898-1.36 0-2.276-.993-.915-.994-.915-2.477 0-1.484.915-2.477.915-.994 2.276-.994 1.239 0 1.974.905v-.728zm-1.647 1.477q-.762 0-1.232.52-.47.521-.47 1.297 0 .775.47 1.296.47.52 1.232.52.755 0 1.228-.513.473-.514.473-1.303 0-.79-.473-1.303-.473-.514-1.228-.514zm8.914-1.654q1.13 0 1.848.715.718.714.718 1.857v4.199h-1.776v-3.627q0-.708-.337-1.092-.337-.385-.95-.385-.605 0-1 .388-.394.388-.394 1.103v3.613h-1.777v-6.594h1.729v.776q.64-.953 1.94-.953zM22.658 33.073h1.94L21.752 42.6h-2.3l-2.041-6.805L15.37 42.6h-2.3l-2.844-9.527h1.973l2.049 7.309 2.13-7.309h2.102l2.13 7.309 2.048-7.309zm3.103 2.933h1.776V42.6h-1.776v-6.594zm.075-2.97q.327-.33.803-.33.476 0 .806.33.33.33.33.813 0 .476-.326.803-.327.327-.81.327-.476 0-.803-.327-.327-.327-.327-.803 0-.483.327-.813zm3.566-.235h1.776V42.6h-1.776v-9.799zm6.423 3.028q1.225 0 1.94.865V32.8h1.769V42.6h-1.735v-.728q-.728.898-1.974.898-1.36 0-2.276-.993-.915-.994-.915-2.477 0-1.484.915-2.477.915-.994 2.276-.994zm.327 1.654q-.762 0-1.232.52-.47.521-.47 1.297 0 .775.47 1.296.47.52 1.232.52.755 0 1.228-.513.473-.514.473-1.303 0-.79-.473-1.303-.473-.514-1.228-.514zm8.172-1.654q1.423 0 2.31.96.889.96.895 2.504 0 .347-.034.599h-4.674q.136.687.585 1.027.449.34 1.109.34.429 0 .87-.166.443-.167.797-.466l1.041 1.143q-1.089 1-2.81 1-1.524 0-2.474-.95-.949-.948-.949-2.5 0-1.558.926-2.524.925-.967 2.408-.967zm-.013 1.531q-.613 0-.987.347t-.497.973h2.92q-.123-.632-.494-.976-.37-.344-.942-.344zm12.759-4.464q1.116 0 2.044.382.93.38 1.569 1.081L59.315 35.7q-.87-1-2.3-1-1.313 0-2.16.874-.847.875-.847 2.263 0 1.429.853 2.296.854.868 2.12.868 1.15 0 1.834-.538.684-.537.874-1.565h-2.422v-1.585h4.382q.027.245.027.537 0 1.422-.598 2.549-.6 1.126-1.66 1.748-1.062.623-2.396.623-.79 0-1.531-.214-.742-.215-1.364-.64-.623-.425-1.093-1.01-.47-.586-.731-1.378-.262-.793-.262-1.691 0-1.062.378-1.984.377-.922 1.037-1.568.66-.647 1.596-1.018.936-.37 2.018-.37zm10.942 3.11h1.735V42.6h-1.735v-.728q-.728.898-1.974.898-1.36 0-2.276-.993-.915-.994-.915-2.477 0-1.484.915-2.477.915-.994 2.276-.994 1.239 0 1.974.905v-.728zm-1.647 1.477q-.762 0-1.232.52-.47.521-.47 1.297 0 .775.47 1.296.47.52 1.232.52.755 0 1.228-.513.473-.514.473-1.303 0-.79-.473-1.303-.473-.514-1.228-.514zm8.914-1.654q1.13 0 1.848.715.717.714.717 1.857V42.6h-1.776v-3.627q0-.708-.336-1.092-.337-.385-.95-.385-.605 0-1 .388t-.395 1.103V42.6h-1.776v-6.594h1.729v.776q.64-.953 1.94-.953zm4.212.177h5.58v1.3l-3.253 3.709h3.328V42.6h-5.77v-1.28l3.327-3.735h-3.212v-1.579zm10.03-.177q1.423 0 2.31.96.889.96.895 2.504 0 .347-.034.599h-4.674q.136.687.585 1.027.449.34 1.109.34.429 0 .87-.166.443-.167.797-.466l1.041 1.143q-1.089 1-2.81 1-1.524 0-2.474-.95-.949-.948-.949-2.5 0-1.558.925-2.524.926-.967 2.41-.967zm-.013 1.531q-.613 0-.987.347t-.497.973h2.92q-.123-.632-.494-.976-.37-.344-.942-.344zm8.336-1.53q1.13 0 1.847.714.718.714.718 1.857V42.6h-1.776v-3.627q0-.708-.337-1.092-.337-.385-.95-.385-.605 0-1 .388-.394.388-.394 1.103V42.6h-1.776v-6.594h1.728v.776q.64-.953 1.94-.953zm4.872 1.034V32.8h1.776v4.063h-1.776zm2.83 0V32.8h1.777v4.063h-1.777z" fill="#FFF"/></svg>