<?xml version="1.0" encoding="UTF-8"?>
<svg id="Layer_2" data-name="Layer 2" xmlns="http://www.w3.org/2000/svg" width="211" height="42" viewBox="0 0 211 42">
  <defs>
    <style>
      .cls-1 {
        fill: #68b11e;
        stroke-width: 0px;
      }
    </style>
  </defs>
  <path class="cls-1" d="m85.72,19.15c-.51,0-.89.17-1.14.51-.25.34-.38.77-.38,1.29,0,1.08.44,1.62,1.31,1.62.2,0,.39-.03.56-.08.17-.05.32-.11.44-.18v-3.09c-.1-.02-.21-.03-.34-.04-.13-.01-.28-.02-.46-.02Z"/>
  <path class="cls-1" d="m94.19,19.58c-.1-.12-.22-.22-.38-.3-.15-.08-.34-.12-.57-.12s-.4.04-.56.11c-.16.07-.29.17-.39.29-.1.12-.18.26-.24.42-.06.16-.1.32-.12.49h2.56c0-.16-.04-.32-.08-.48-.05-.16-.12-.29-.22-.42Z"/>
  <path class="cls-1" d="m149.6,19.24c-.92,0-1.38.62-1.38,1.87,0,.6.13,1.08.4,1.44.27.36.67.55,1.2.55.17,0,.33,0,.48-.02.15-.01.27-.03.36-.04v-3.52c-.12-.08-.28-.14-.47-.19-.19-.05-.39-.08-.59-.08Z"/>
  <path class="cls-1" d="m107.21,19.23c-.44,0-.78.17-1.03.51-.24.34-.36.81-.36,1.41s.12,1.07.36,1.42c.24.35.58.53,1.03.53s.78-.17,1.02-.53c.24-.35.36-.83.36-1.42s-.12-1.07-.36-1.41c-.24-.34-.58-.51-1.02-.51Z"/>
  <path class="cls-1" d="m75.76,19.58c-.1-.12-.22-.22-.38-.3s-.34-.12-.57-.12-.4.04-.56.11c-.16.07-.29.17-.39.29-.1.12-.18.26-.24.42-.06.16-.1.32-.12.49h2.56c0-.16-.04-.32-.08-.48s-.12-.29-.22-.42Z"/>
  <path class="cls-1" d="m122.74,19.24c-.92,0-1.38.62-1.38,1.87,0,.6.13,1.08.4,1.44.27.36.67.55,1.2.55.17,0,.33,0,.48-.02.15-.01.27-.03.36-.04v-3.52c-.12-.08-.28-.14-.47-.19-.19-.05-.39-.08-.59-.08Z"/>
  <path class="cls-1" d="m20.44,17.95c-.2-.25-.46-.45-.75-.59-.3-.14-.64-.21-1.01-.21s-.72.07-1.01.21c-.29.14-.54.34-.75.6-.2.25-.36.56-.47.92s-.16.76-.16,1.19.05.84.16,1.2c.11.36.26.66.47.92s.45.45.75.59c.29.14.63.21,1.01.21s.71-.07,1.01-.21c.3-.14.55-.34.75-.59s.36-.56.47-.92c.11-.35.16-.75.16-1.2s-.05-.84-.16-1.2c-.11-.36-.26-.67-.47-.92Z"/>
  <path class="cls-1" d="m139.14,19.58c-.1-.12-.22-.22-.38-.3-.15-.08-.34-.12-.57-.12s-.4.04-.56.11c-.16.07-.29.17-.39.29-.1.12-.18.26-.24.42-.06.16-.1.32-.12.49h2.56c0-.16-.04-.32-.08-.48-.05-.16-.12-.29-.22-.42Z"/>
  <path class="cls-1" d="m0,0v42h198.58c6.86,0,12.42-5.56,12.42-12.42V0H0Zm22.82,22.11c-.23.58-.54,1.08-.94,1.47-.4.39-.87.69-1.42.89-.55.2-1.14.3-1.77.3s-1.2-.1-1.74-.3-1.02-.5-1.43-.89c-.41-.39-.73-.88-.96-1.47s-.35-1.26-.35-2.03.12-1.45.36-2.04c.24-.58.57-1.08.98-1.48.41-.4.89-.7,1.43-.9s1.11-.3,1.71-.3,1.2.1,1.74.3,1.02.5,1.43.9c.41.4.73.89.96,1.48s.35,1.26.35,2.04-.12,1.45-.34,2.03Zm7.81,2.48h-1.94v-3.63c0-.62-.08-1.07-.25-1.33s-.47-.39-.92-.39c-.14,0-.29,0-.44.02-.16.01-.29.03-.42.04v5.28h-1.94v-6.6c.33-.1.75-.18,1.27-.27.52-.08,1.07-.12,1.64-.12s1.06.08,1.45.23.69.37.92.64c.23.28.39.61.48.99.1.38.14.81.14,1.27v3.86Zm5.45.05c-.29.07-.64.1-1.05.1-.53,0-.97-.07-1.31-.21-.35-.14-.62-.34-.83-.6s-.35-.57-.44-.93c-.08-.36-.12-.77-.12-1.21v-5.75l1.94-.31v2.01h2.33v1.61h-2.33v2.4c0,.41.07.73.21.98.14.24.43.36.86.36.21,0,.42-.02.64-.06.22-.04.42-.09.6-.16l.27,1.51c-.23.1-.49.18-.78.25Zm7.85-.27c-.17.05-.37.1-.6.15-.23.05-.46.09-.71.12-.25.04-.5.06-.75.08-.26.02-.5.03-.73.03-.56,0-1.07-.08-1.51-.25-.44-.16-.81-.4-1.12-.71s-.54-.68-.7-1.12c-.16-.44-.24-.93-.24-1.48s.07-1.05.21-1.5c.14-.45.34-.83.6-1.14.26-.31.58-.55.96-.72.38-.16.81-.25,1.29-.25.27,0,.51.03.72.08.21.05.43.13.64.22v-3.09l1.94-.31v9.87Zm7.9-2.92c0,.13-.02.25-.03.36h-4.39c.04.4.23.71.56.95.33.23.77.35,1.33.35.36,0,.7-.03,1.05-.1.34-.07.62-.15.84-.24l.26,1.57c-.1.05-.24.1-.42.16s-.37.1-.58.14-.44.07-.68.1c-.24.03-.49.04-.73.04-.62,0-1.15-.09-1.61-.27-.45-.18-.83-.43-1.13-.75-.3-.32-.52-.69-.66-1.12-.14-.43-.21-.9-.21-1.4,0-.61.09-1.14.28-1.59.19-.45.43-.83.73-1.14.3-.3.65-.53,1.05-.69.39-.16.8-.23,1.22-.23.97,0,1.74.3,2.3.89.56.59.84,1.47.84,2.62,0,.11,0,.24-.01.37Zm5.77,3.14c-.14-.23-.3-.48-.47-.75-.18-.27-.37-.55-.56-.82-.2-.27-.41-.54-.63-.79-.22-.25-.44-.46-.66-.64v3h-1.94v-9.78l1.94-.31v5.71c.19-.21.39-.42.59-.65.2-.22.4-.45.59-.67s.37-.43.54-.63c.17-.2.31-.37.44-.52h2.3c-.46.53-.91,1.03-1.35,1.51-.44.48-.92.98-1.44,1.49.26.23.53.51.81.84.28.33.55.66.81,1.01.26.35.5.69.71,1.04.22.35.4.66.55.95h-2.23Zm12.42-.22c-.17.05-.37.1-.6.15-.23.05-.46.09-.71.12-.25.04-.5.06-.75.08-.26.02-.5.03-.73.03-.56,0-1.07-.08-1.51-.25-.44-.16-.81-.4-1.12-.71s-.54-.68-.7-1.12c-.16-.44-.24-.93-.24-1.48s.07-1.05.21-1.5c.14-.45.34-.83.6-1.14.26-.31.58-.55.96-.72.38-.16.81-.25,1.29-.25.27,0,.51.03.72.08.21.05.43.13.64.22v-3.09l1.94-.31v9.87Zm7.9-2.92c0,.13-.02.25-.03.36h-4.39c.04.4.23.71.56.95.33.23.77.35,1.33.35.36,0,.71-.03,1.05-.1.34-.07.62-.15.84-.24l.26,1.57c-.1.05-.24.1-.41.16-.17.05-.37.1-.58.14-.21.04-.44.07-.68.1-.24.03-.49.04-.73.04-.62,0-1.15-.09-1.61-.27-.46-.18-.83-.43-1.13-.75-.3-.32-.52-.69-.66-1.12-.14-.43-.21-.9-.21-1.4,0-.61.09-1.14.28-1.59.19-.45.43-.83.73-1.14.3-.3.65-.53,1.05-.69s.8-.23,1.21-.23c.97,0,1.74.3,2.3.89.56.59.85,1.47.85,2.62,0,.11,0,.24-.01.37Zm10.53,2.28c0,1.12-.28,1.95-.85,2.49-.57.54-1.45.81-2.63.81-.42,0-.83-.04-1.25-.11-.42-.07-.8-.17-1.16-.29l.34-1.62c.3.12.62.22.96.29.33.07.71.1,1.14.1.55,0,.95-.12,1.18-.36.23-.24.34-.55.34-.94v-.25c-.21.1-.42.17-.64.21s-.46.07-.72.07c-.94,0-1.67-.28-2.17-.84-.5-.56-.75-1.34-.75-2.35,0-.5.08-.96.23-1.37.16-.41.38-.76.68-1.06.3-.29.67-.52,1.1-.68.43-.16.92-.24,1.47-.24.23,0,.47.01.72.03.25.02.49.05.74.08.24.04.47.08.7.12.22.05.42.1.59.15v5.75Zm7.9-2.28c0,.13-.02.25-.03.36h-4.39c.04.4.23.71.56.95s.77.35,1.33.35c.36,0,.7-.03,1.05-.1.34-.07.62-.15.84-.24l.26,1.57c-.1.05-.24.1-.42.16-.17.05-.37.1-.58.14s-.44.07-.68.1c-.24.03-.49.04-.73.04-.62,0-1.15-.09-1.61-.27-.46-.18-.83-.43-1.13-.75-.3-.32-.52-.69-.66-1.12-.14-.43-.21-.9-.21-1.4,0-.61.09-1.14.28-1.59.19-.45.43-.83.73-1.14s.65-.53,1.05-.69.8-.23,1.22-.23c.97,0,1.74.3,2.3.89.56.59.84,1.47.84,2.62,0,.11,0,.24-.01.37Zm6.71,3.14h-5.66v-1.14c.18-.31.4-.65.66-1.01s.52-.72.81-1.09c.28-.36.56-.72.84-1.06.28-.34.53-.65.77-.93h-2.91v-1.61h5.43v1.3c-.16.17-.37.41-.63.7s-.55.62-.85.97c-.3.36-.61.73-.92,1.12-.31.39-.59.77-.84,1.13h3.31v1.61Zm7.27-1.96c-.16.45-.38.83-.68,1.14-.29.32-.65.56-1.06.73-.41.17-.87.26-1.38.26s-.96-.09-1.37-.26c-.41-.17-.76-.42-1.06-.73-.29-.32-.53-.7-.69-1.14-.17-.45-.25-.94-.25-1.48s.08-1.03.25-1.47c.17-.44.4-.82.7-1.13.3-.31.65-.55,1.07-.73.41-.17.86-.26,1.35-.26s.95.09,1.36.26c.41.17.76.42,1.06.73.29.31.52.69.69,1.13.17.44.25.93.25,1.47s-.08,1.03-.23,1.48Zm7.63,1.96h-1.94v-3.63c0-.62-.08-1.07-.25-1.33s-.47-.39-.92-.39c-.14,0-.29,0-.44.02-.16.01-.29.03-.42.04v5.28h-1.94v-6.6c.33-.1.75-.18,1.27-.27.52-.08,1.07-.12,1.64-.12s1.06.08,1.45.23.69.37.92.64c.22.28.38.61.48.99.1.38.14.81.14,1.27v3.86Zm7.79-.22c-.17.05-.37.1-.6.15s-.46.09-.71.12c-.25.04-.5.06-.75.08-.26.02-.5.03-.73.03-.56,0-1.07-.08-1.51-.25-.44-.16-.81-.4-1.12-.71-.3-.31-.54-.68-.7-1.12s-.24-.93-.24-1.48.07-1.05.21-1.5c.14-.45.34-.83.6-1.14.26-.31.58-.55.96-.72.38-.16.81-.25,1.29-.25.27,0,.51.03.72.08.21.05.43.13.64.22v-3.09l1.94-.31v9.87Zm7.72.22h-1.94v-3.63c0-.62-.08-1.07-.24-1.33-.16-.26-.46-.39-.89-.39-.17,0-.34.01-.49.04-.15.03-.29.06-.41.1v5.2h-1.94v-9.78l1.94-.31v3.28c.13-.04.3-.08.5-.12.2-.04.4-.06.59-.06.55,0,1.02.08,1.38.23s.66.37.88.64c.22.28.38.61.47.99.09.38.14.81.14,1.27v3.86Zm7.84-3.14c0,.13-.02.25-.03.36h-4.39c.04.4.23.71.56.95s.77.35,1.33.35c.36,0,.7-.03,1.05-.1.34-.07.62-.15.84-.24l.26,1.57c-.1.05-.24.1-.42.16-.17.05-.37.1-.58.14s-.44.07-.68.1c-.24.03-.49.04-.73.04-.62,0-1.15-.09-1.61-.27-.46-.18-.83-.43-1.13-.75-.3-.32-.52-.69-.66-1.12-.14-.43-.21-.9-.21-1.4,0-.61.09-1.14.28-1.59.19-.45.43-.83.73-1.14s.65-.53,1.05-.69.8-.23,1.22-.23c.97,0,1.74.3,2.3.89.56.59.84,1.47.84,2.62,0,.11,0,.24-.01.37Zm3.44,3.14h-1.94v-6.84h1.94v6.84Zm-.16-7.98c-.23.2-.5.31-.81.31s-.58-.1-.81-.31c-.23-.2-.34-.48-.34-.84s.12-.63.34-.84c.23-.2.5-.31.81-.31s.58.1.81.31c.23.2.34.48.34.84s-.12.64-.34.84Zm8.01,7.75c-.17.05-.37.1-.6.15s-.46.09-.71.12c-.25.04-.5.06-.75.08-.26.02-.5.03-.73.03-.56,0-1.07-.08-1.51-.25-.44-.16-.81-.4-1.12-.71-.3-.31-.54-.68-.7-1.12s-.24-.93-.24-1.48.07-1.05.21-1.5c.14-.45.34-.83.6-1.14.26-.31.58-.55.96-.72.38-.16.81-.25,1.29-.25.27,0,.51.03.72.08.21.05.43.13.64.22v-3.09l1.94-.31v9.87Zm5.92-.12c-.51.35-1.22.52-2.15.52-.61,0-1.11-.05-1.51-.16-.4-.1-.68-.19-.84-.26l.33-1.57c.33.13.67.23,1.01.3.35.07.69.11,1.03.11.36,0,.61-.04.75-.1s.22-.2.22-.4c0-.16-.09-.29-.29-.41-.19-.12-.48-.25-.87-.4-.3-.11-.58-.23-.83-.35s-.46-.27-.63-.44c-.17-.17-.31-.37-.4-.6-.1-.23-.14-.52-.14-.85,0-.64.24-1.15.71-1.52s1.13-.56,1.96-.56c.42,0,.81.04,1.2.11.38.07.68.15.91.24l-.34,1.51c-.23-.08-.47-.15-.73-.21s-.56-.09-.89-.09c-.61,0-.91.17-.91.51,0,.08.01.15.04.21.03.06.08.12.16.18s.18.12.32.18c.13.07.31.14.51.22.42.16.78.31,1.05.47.28.15.5.32.66.5.16.18.27.37.34.59.06.22.1.47.1.75,0,.67-.25,1.18-.76,1.53Zm6.56.42c-.34.07-.71.1-1.12.1-.62,0-1.16-.09-1.61-.28-.45-.19-.82-.44-1.11-.76-.29-.32-.5-.7-.64-1.14-.13-.44-.2-.91-.2-1.42s.08-.96.24-1.4.39-.82.7-1.14c.3-.32.67-.58,1.1-.77.43-.19.93-.29,1.48-.29.36,0,.7.03,1,.1.3.07.6.16.88.28l-.4,1.55c-.18-.07-.38-.13-.6-.18-.22-.05-.46-.08-.73-.08-.57,0-1,.18-1.28.53s-.42.82-.42,1.4c0,.62.13,1.09.4,1.43.26.34.73.51,1.38.51.23,0,.49-.02.75-.06s.52-.11.74-.21l.27,1.59c-.23.1-.51.18-.85.25Zm8.05-.08h-1.94v-3.63c0-.62-.08-1.07-.24-1.33-.16-.26-.46-.39-.89-.39-.17,0-.34.01-.49.04-.15.03-.29.06-.41.1v5.2h-1.94v-9.78l1.94-.31v3.28c.13-.04.3-.08.5-.12.2-.04.4-.06.59-.06.55,0,1.02.08,1.38.23s.66.37.88.64c.22.28.38.61.47.99.09.38.14.81.14,1.27v3.86Zm7.84-3.14c0,.13-.02.25-.03.36h-4.39c.04.4.23.71.56.95s.77.35,1.33.35c.36,0,.7-.03,1.05-.1.34-.07.62-.15.84-.24l.26,1.57c-.1.05-.24.1-.42.16-.17.05-.37.1-.58.14s-.44.07-.68.1c-.24.03-.49.04-.73.04-.62,0-1.15-.09-1.61-.27-.46-.18-.83-.43-1.13-.75-.3-.32-.52-.69-.66-1.12-.14-.43-.21-.9-.21-1.4,0-.61.09-1.14.28-1.59.19-.45.43-.83.73-1.14s.65-.53,1.05-.69.8-.23,1.22-.23c.97,0,1.74.3,2.3.89.56.59.84,1.47.84,2.62,0,.11,0,.24-.01.37Zm5.86,3.22c-.34.07-.71.1-1.12.1-.62,0-1.16-.09-1.61-.28-.45-.19-.82-.44-1.11-.76-.29-.32-.5-.7-.64-1.14-.13-.44-.2-.91-.2-1.42s.08-.96.24-1.4.39-.82.7-1.14c.3-.32.67-.58,1.1-.77.43-.19.93-.29,1.48-.29.36,0,.7.03,1,.1.3.07.6.16.88.28l-.4,1.55c-.18-.07-.38-.13-.6-.18-.22-.05-.46-.08-.73-.08-.57,0-1,.18-1.28.53s-.42.82-.42,1.4c0,.62.13,1.09.4,1.43.26.34.73.51,1.38.51.23,0,.49-.02.75-.06s.52-.11.74-.21l.27,1.59c-.23.1-.51.18-.85.25Zm6.41-.08c-.14-.23-.3-.48-.47-.75-.18-.27-.37-.55-.56-.82s-.41-.54-.63-.79-.44-.46-.66-.64v3h-1.94v-9.78l1.94-.31v5.71c.19-.21.39-.42.59-.65.2-.22.4-.45.59-.67.19-.22.37-.43.54-.63s.31-.37.44-.52h2.3c-.46.53-.91,1.03-1.34,1.51-.44.48-.92.98-1.44,1.49.26.23.53.51.81.84.28.33.55.66.81,1.01.26.35.5.69.71,1.04.22.35.4.66.55.95h-2.23Z"/>
  <path class="cls-1" d="m40.92,19.24c-.92,0-1.38.62-1.38,1.87,0,.6.13,1.08.4,1.44.27.36.67.55,1.2.55.17,0,.33,0,.48-.02.15-.01.27-.03.36-.04v-3.52c-.12-.08-.28-.14-.47-.19-.19-.05-.39-.08-.59-.08Z"/>
  <path class="cls-1" d="m67.01,19.24c-.92,0-1.38.62-1.38,1.87,0,.6.13,1.08.4,1.44.27.36.67.55,1.2.55.17,0,.33,0,.48-.02.15-.01.27-.03.36-.04v-3.52c-.12-.08-.28-.14-.47-.19-.19-.05-.39-.08-.59-.08Z"/>
  <path class="cls-1" d="m178.8,19.58c-.1-.12-.22-.22-.38-.3-.15-.08-.34-.12-.57-.12s-.4.04-.56.11c-.16.07-.29.17-.39.29-.1.12-.18.26-.24.42-.06.16-.1.32-.12.49h2.56c0-.16-.04-.32-.08-.48-.05-.16-.12-.29-.22-.42Z"/>
  <path class="cls-1" d="m49.67,19.58c-.1-.12-.23-.22-.38-.3-.15-.08-.34-.12-.57-.12s-.4.04-.56.11c-.16.07-.29.17-.39.29-.1.12-.18.26-.24.42-.06.16-.1.32-.12.49h2.56c0-.16-.04-.32-.08-.48-.05-.16-.12-.29-.22-.42Z"/>
</svg>