<svg width="178.769" height="23" viewBox="0 0 178.769 23" xmlns="http://www.w3.org/2000/svg"><path d="M31.513 6.08h3.272v11.2h-2.232V8.824L29.785 16.2h-2.36l-2.768-7.312v8.392h-2.232V6.08h3.272l2.912 7.56 2.904-7.56zm11.232 3.448h2.04v7.752h-2.04v-.856q-.856 1.056-2.32 1.056-1.6 0-2.676-1.168T36.673 13.4q0-1.744 1.076-2.912t2.676-1.168q1.456 0 2.32 1.064v-.856zm-1.936 1.736q-.896 0-1.448.612-.552.612-.552 1.524t.552 1.524q.552.612 1.448.612.888 0 1.444-.604.556-.604.556-1.532t-.556-1.532q-.556-.604-1.444-.604zM51.185 9.32q.624 0 1.088.168l-.312 2.072q-.56-.248-1.264-.248-.744 0-1.188.452-.444.452-.444 1.292v4.224h-2.088V9.528H49v.848q.704-1.056 2.184-1.056zm5.488.208h2.808v1.856h-2.808v2.832q0 .688.316 1.004.316.316.844.316.624 0 1.456-.504l.768 1.632q-1.192.816-2.568.816-1.432 0-2.168-.792-.736-.792-.736-2.304v-3h-1.496V9.528h1.496V7.224h2.088v2.304zm4.648 0h2.088v7.752H61.32V9.528zm.088-3.492q.384-.388.944-.388.56 0 .948.388.388.388.388.956 0 .56-.384.944-.384.384-.952.384-.56 0-.944-.384-.384-.384-.384-.944 0-.568.384-.956zm4.224 3.492h2.088v8.488q0 1.248-.656 1.94t-1.752.692q-.696 0-1.176-.208l.312-1.832q.264.096.56.096.624 0 .624-.808V9.528zm.08-3.492q.384-.388.944-.388.56 0 .948.388.388.388.388.956 0 .56-.384.944-.384.384-.952.384t-.948-.384q-.38-.384-.38-.944 0-.568.384-.956zm8.512 3.284q1.328 0 2.172.84.844.84.844 2.184v4.936h-2.088v-4.264q0-.832-.396-1.284-.396-.452-1.116-.452-.712 0-1.176.456-.464.456-.464 1.296v4.248h-2.088V9.528h2.032v.912q.752-1.12 2.28-1.12zm4.72 10.2l.536-4.768h2.344l-1.12 4.768h-1.76zm11.928-10.2q1.44 0 2.28 1.016V5.76h2.08v11.52h-2.04v-.856q-.856 1.056-2.32 1.056-1.6 0-2.676-1.168T87.12 13.4q0-1.744 1.076-2.912t2.676-1.168zm.384 1.944q-.896 0-1.448.612-.552.612-.552 1.524t.552 1.524q.552.612 1.448.612.888 0 1.444-.604.556-.604.556-1.532t-.556-1.532q-.556-.604-1.444-.604zm9.872-1.944q1.808 0 3.004 1.164t1.196 2.916q0 1.752-1.196 2.916t-3.004 1.164q-1.8 0-2.992-1.164T96.945 13.4q0-1.752 1.192-2.916t2.992-1.164zm1.476 2.544q-.588-.6-1.476-.6t-1.472.6q-.584.6-.584 1.536t.584 1.536q.584.6 1.472.6t1.476-.6q.588-.6.588-1.536t-.588-1.536zm8.74-2.544q1.328 0 2.172.84.844.84.844 2.184v4.936h-2.088v-4.264q0-.832-.396-1.284-.396-.452-1.116-.452-.712 0-1.176.456-.464.456-.464 1.296v4.248h-2.088V9.528h2.032v.912q.752-1.12 2.28-1.12zm10.736.208h2.04v7.752h-2.04v-.856q-.856 1.056-2.32 1.056-1.6 0-2.676-1.168t-1.076-2.912q0-1.744 1.076-2.912t2.676-1.168q1.456 0 2.32 1.064v-.856zm-1.936 1.736q-.896 0-1.448.612-.552.612-.552 1.524t.552 1.524q.552.612 1.448.612.888 0 1.444-.604.556-.604.556-1.532t-.556-1.532q-.556-.604-1.444-.604zm8.984-1.736h2.808v1.856h-2.808v2.832q0 .688.316 1.004.316.316.844.316.624 0 1.456-.504l.768 1.632q-1.192.816-2.568.816-1.432 0-2.168-.792-.736-.792-.736-2.304v-3h-1.496V9.528h1.496V7.224h2.088v2.304zm7.992-.208q1.672 0 2.716 1.128 1.044 1.128 1.052 2.944 0 .408-.04.704h-5.496q.16.808.688 1.208.528.4 1.304.4.504 0 1.024-.196t.936-.548l1.224 1.344q-1.28 1.176-3.304 1.176-1.792 0-2.908-1.116-1.116-1.116-1.116-2.94 0-1.832 1.088-2.968t2.832-1.136zm-.016 1.8q-.72 0-1.16.408-.44.408-.584 1.144h3.432q-.144-.744-.58-1.148-.436-.404-1.108-.404zm10.68-1.592h2.08v4.448q0 .888-.296 1.576-.296.688-.812 1.1-.516.412-1.164.62-.648.208-1.392.208-.592 0-1.128-.128-.536-.128-1.004-.404-.468-.276-.808-.68t-.536-.992q-.196-.588-.196-1.3V9.528h2.088v4.264q0 .888.432 1.316.432.428 1.152.428t1.152-.428q.432-.428.432-1.316V9.528zm8.416-.208q.624 0 1.088.168l-.312 2.072q-.56-.248-1.264-.248-.744 0-1.188.452-.444.452-.444 1.292v4.224h-2.088V9.528h2.024v.848q.704-1.056 2.184-1.056z" fill="#FFF"/></svg>