<svg width="97.425" height="24.928" viewBox="0 0 97.425 24.928" xmlns="http://www.w3.org/2000/svg"><path d="M21.293 9.264h1.425l-2.09 7h-1.69l-1.5-5-1.5 5h-1.69l-2.09-7h1.45l1.505 5.37 1.564-5.37h1.546l1.565 5.37 1.505-5.37zm4.044 2.025q1.13 0 1.878.727.747.728.747 1.823t-.747 1.822q-.747.728-1.878.728-1.125 0-1.87-.728-.744-.727-.744-1.822 0-1.095.745-1.823.744-.727 1.87-.727zm.923 1.59q-.368-.375-.923-.375t-.92.375q-.365.375-.365.96t.366.96q.364.375.92.375.554 0 .922-.375.367-.375.367-.96t-.367-.96zm5.397-1.59q.39 0 .68.105l-.195 1.295q-.35-.155-.79-.155-.465 0-.742.282-.277.283-.277.808v2.64h-1.305v-4.845h1.265v.53q.44-.66 1.364-.66zm3.45 0q.9 0 1.425.635v-2.86h1.3v7.2h-1.275v-.535q-.535.66-1.45.66-1 0-1.672-.73-.672-.73-.672-1.82t.672-1.82q.672-.73 1.672-.73zm.24 1.215q-.56 0-.904.382-.346.383-.346.953t.346.952q.345.383.904.383.556 0 .903-.378.347-.377.347-.957t-.347-.958q-.347-.377-.903-.377zm8.375-1.215q.9 0 1.425.635v-2.86h1.3v7.2h-1.275v-.535q-.534.66-1.45.66-1 0-1.672-.73-.672-.73-.672-1.82t.672-1.82q.672-.73 1.672-.73zm.24 1.215q-.56 0-.905.382-.345.383-.345.953t.345.952q.346.383.905.383.555 0 .903-.378.347-.377.347-.957t-.347-.958q-.348-.377-.903-.377zm6.17-1.215q1.13 0 1.878.727.748.728.748 1.823t-.748 1.822q-.747.728-1.877.728-1.126 0-1.87-.728-.745-.727-.745-1.822 0-1.095.745-1.823.745-.727 1.87-.727zm.923 1.59q-.367-.375-.922-.375-.556 0-.92.375-.366.375-.366.96t.365.96q.365.375.92.375.556 0 .923-.375t.367-.96q0-.585-.367-.96zm5.462-1.59q.83 0 1.358.525.528.525.528 1.365v3.085h-1.306v-2.665q0-.52-.247-.803-.248-.282-.697-.282-.445 0-.736.285-.29.285-.29.81v2.655h-1.305v-4.845h1.27v.57q.47-.7 1.425-.7zm6.71.13h1.276v4.845h-1.276v-.535q-.534.66-1.45.66-1 0-1.672-.73-.672-.73-.672-1.82t.672-1.82q.673-.73 1.673-.73.91 0 1.45.665v-.535zm-1.21 1.085q-.56 0-.905.382-.345.383-.345.953t.345.952q.346.383.905.383.555 0 .903-.378.347-.377.347-.957t-.347-.958q-.348-.377-.903-.377zm5.615-1.085h1.755v1.16h-1.755v1.77q0 .43.198.627.198.198.528.198.39 0 .91-.315l.48 1.02q-.746.51-1.606.51-.894 0-1.355-.495-.46-.495-.46-1.44v-1.875h-.934v-1.16h.934v-1.44h1.305v1.44zm4.995-.13q1.046 0 1.698.705.653.705.657 1.84 0 .255-.025.44h-3.434q.1.505.43.755.33.25.814.25.316 0 .64-.123.326-.122.586-.342l.764.84q-.8.735-2.065.735-1.12 0-1.817-.698-.698-.697-.698-1.837 0-1.145.68-1.855t1.77-.71zm-.01 1.125q-.45 0-.725.255-.274.255-.364.715h2.144q-.09-.465-.362-.718-.273-.252-.692-.252zm6.675-.995h1.3v2.78q0 .555-.184.985-.186.43-.508.687-.323.258-.728.388-.404.13-.87.13-.37 0-.705-.08-.334-.08-.627-.253-.293-.172-.505-.425-.213-.252-.335-.62-.123-.367-.123-.812v-2.78h1.305v2.665q0 .555.27.822.27.268.72.268.45 0 .72-.268.27-.267.27-.822v-2.665zm5.26-.13q.39 0 .68.105l-.195 1.295q-.35-.155-.79-.155-.465 0-.742.282-.277.283-.277.808v2.64h-1.305v-4.845h1.264v.53q.44-.66 1.365-.66z" fill="#fff"/></svg>