<?xml version="1.0" encoding="utf-8"?>
<!-- Generator: Adobe Illustrator 26.3.1, SVG Export Plug-In . SVG Version: 6.00 Build 0)  -->
<svg version="1.1" id="Laag_1" xmlns="http://www.w3.org/2000/svg" xmlns:xlink="http://www.w3.org/1999/xlink" x="0px" y="0px"
	 viewBox="0 0 492.6 437.8" style="enable-background:new 0 0 492.6 437.8;" xml:space="preserve">
<style type="text/css">
	.st0{clip-path:url(#SVGID_00000150798579764322916490000007160595761916480165_);fill:#FCEA10;}
	.st1{clip-path:url(#SVGID_00000003096892940208736630000011708258197465226884_);fill:#FCEA10;}
	.st2{clip-path:url(#SVGID_00000002355118817319219530000012895004612828080266_);fill:#FCEA10;}
	.st3{clip-path:url(#SVGID_00000121961381029988201200000010532652223002062509_);fill:#FCEA10;}
	.st4{clip-path:url(#SVGID_00000049204208597670079680000011304200701756100489_);fill:#FCEA10;}
	.st5{clip-path:url(#SVGID_00000133512297057021883080000013445820695944822666_);fill:#FCEA10;}
	.st6{clip-path:url(#SVGID_00000084532443848145194110000017472782891342015394_);fill:#FCEA10;}
	.st7{clip-path:url(#SVGID_00000067942680060284996860000006492775425018826409_);fill:#FCEA10;}
	.st8{clip-path:url(#SVGID_00000035531702860657409270000013760650467264870056_);fill:#FCEA10;}
	.st9{clip-path:url(#SVGID_00000132796265435669437040000017746589545581902735_);fill:#FCEA10;}
	.st10{display:none;clip-path:url(#SVGID_00000154411183541467678810000001495842579920282041_);}
	.st11{display:inline;}
	.st12{fill:#FCEA10;}
	.st13{display:inline;fill:#FCEA10;}
</style>
<g>
	<g>
		<defs>
			<rect id="SVGID_1_" width="492.6" height="437.8"/>
		</defs>
		<clipPath id="SVGID_00000112620392096643772960000005306592705384828333_">
			<use xlink:href="#SVGID_1_"  style="overflow:visible;"/>
		</clipPath>
		<path style="clip-path:url(#SVGID_00000112620392096643772960000005306592705384828333_);fill:#FCEA10;" d="M185.9,303.2
			c6.4-5.3,12.9-9,20-11.7c3.8-1.4,7.9-2.5,12.1-3.3l-11.6,14.7L185.9,303.2z"/>
	</g>
	<g>
		<defs>
			<rect id="SVGID_00000173877057466558402170000016497750234271659397_" width="492.6" height="437.8"/>
		</defs>
		<clipPath id="SVGID_00000152974224109915393110000000287519098812443535_">
			<use xlink:href="#SVGID_00000173877057466558402170000016497750234271659397_"  style="overflow:visible;"/>
		</clipPath>
		<path style="clip-path:url(#SVGID_00000152974224109915393110000000287519098812443535_);fill:#FCEA10;" d="M256.8,239.1
			c-26.4-3.7-49.9-1.8-70,5.7c-17.9,6.7-33.6,17.9-49.4,35.2c-7.3,8-12.8,16.3-17.1,24.1l-20.8,0.3c5.5-11.6,13.7-25.5,25.9-38.9
			c16.7-18.3,35-31,55.8-38.8c23.5-8.8,51.7-10.5,83.7-5.3l5.1,1L256.8,239.1z"/>
	</g>
	<g>
		<defs>
			<rect id="SVGID_00000047738398494733964900000013853502123602448561_" width="492.6" height="437.8"/>
		</defs>
		<clipPath id="SVGID_00000049199091085635277720000000146776830161275537_">
			<use xlink:href="#SVGID_00000047738398494733964900000013853502123602448561_"  style="overflow:visible;"/>
		</clipPath>
		<path style="clip-path:url(#SVGID_00000049199091085635277720000000146776830161275537_);fill:#FCEA10;" d="M138.8,303.9
			c2.9-4.4,6.3-8.9,10.3-13.3c14.2-15.6,27.5-25.2,43.2-31c15.3-5.7,33.1-7.7,53-6l-13.8,17.5c-11.3,0.2-21.7,2.1-31.1,5.6
			c-13.5,5-25.6,13.8-37.4,26.8L138.8,303.9z"/>
	</g>
	<g>
		<defs>
			<rect id="SVGID_00000158736097506924094310000009521953973840809616_" width="492.6" height="437.8"/>
		</defs>
		<clipPath id="SVGID_00000060732964012629522530000000126573471807678872_">
			<use xlink:href="#SVGID_00000158736097506924094310000009521953973840809616_"  style="overflow:visible;"/>
		</clipPath>
		<path style="clip-path:url(#SVGID_00000060732964012629522530000000126573471807678872_);fill:#FCEA10;" d="M119.1,138.6h28.3
			l-54.1,50.1c-4.3-3-8.7-5.8-13.7-8l-0.5-0.2c-1.2-0.5-2.4-1-3.5-1.4L119.1,138.6z M5.5,196.9c5.4-0.1,10.8-0.5,16.2-1
			c1.9-0.2,3.8-0.4,5.7-0.6c1.1-0.1,2.2-0.2,3.3-0.4c6-0.6,13-1.2,17.3-1.2c1.7,0,5.2,0.1,6.9,0.3c1,0.1,3,0.3,4.1,0.5
			c1,0.2,2.8,0.5,4.2,0.9c2.5,0.7,4.9,1.5,7.3,2.6c0.1,0.1,0.3,0.1,0.4,0.2c7.8,3.5,15.4,9,23.3,14.7c9.5,6.8,19.2,13.8,30.1,18.1
			c2.4,1.1,4.9,2,7.3,2.6c1.3,0.3,2.6,0.6,4,0.9c0.1-0.1,0.2-0.2,0.3-0.3c30.4-24.1,71.8-37.1,133.7-27.8c0.4,0.1,10.5,2.7,10.9,2.8
			l37.1-47L251.9,0L101.5,9.2c21.9,19.3,49.1,43.2,58,50.7c0.8,0,1.7-0.1,2.5-0.2c12.1-0.8,37.3-2.4,62.1,7.4
			c30.9,12.3,50.7,38,58.8,76.3l4.1,19.3l-0.2,0.4l-18.9-10.2c-26.7-14.5-46.1-17.4-64.8-9.9c-18.8,7.5-37.4,25.6-61,48.5
			c-0.3,0.3-9.7,9.7-18.2,18.1c-5.2-2.9-10.7-6.5-16.6-10.6c8.8-8.7,18.5-18.3,20.2-19.9c25.2-24.4,45-43.7,67.5-52.7
			c19.5-7.8,40.7-7.5,63.9,1.4c-8.4-21.6-23.7-36.4-43-44.1c-20.2-8.1-41.3-6.7-52.6-6c-6.9,0.5-11.7,0.8-15.3-2.7
			c-14.6-12.3-48.3-42-73.2-64.3L53.2,12l93.5,83.7h-28.6L26.4,13.6l-26.6,1.6l114.1,102.5l-61.6,57c-0.9,0-1.8,0-2.7,0
			c-7,0-14.3,0.7-20.5,1.4c-0.5,0.1-1.1,0.1-1.7,0.2L91,117.5L0.5,37.8L5.5,196.9z"/>
	</g>
	<g>
		<defs>
			<rect id="SVGID_00000098902990144242120280000007691612422975140521_" width="492.6" height="437.8"/>
		</defs>
		<clipPath id="SVGID_00000163042456712198586840000008557446477299419799_">
			<use xlink:href="#SVGID_00000098902990144242120280000007691612422975140521_"  style="overflow:visible;"/>
		</clipPath>
		<path style="clip-path:url(#SVGID_00000163042456712198586840000008557446477299419799_);fill:#FCEA10;" d="M7.6,263.5
			c13.4-1.5,30.5-3.4,39-0.7c13.7,4.4,24.3,14.6,35.6,22.7c2.3,1.7,4.6,3.3,6.8,4.9c2.6-4.9,5.6-10.1,9.1-15.4
			c-5.7-3.4-11.1-7.4-16.5-11.2c-10.5-7.6-20.5-14.7-31-17.5s-22.7-1.5-35.6-0.1c-2.6,0.3-5.3,0.6-7.9,0.8L7.6,263.5z"/>
	</g>
	<g>
		<defs>
			<rect id="SVGID_00000183947515782175280820000016206043210573742744_" width="492.6" height="437.8"/>
		</defs>
		<clipPath id="SVGID_00000066485979345731257400000012050929525962729347_">
			<use xlink:href="#SVGID_00000183947515782175280820000016206043210573742744_"  style="overflow:visible;"/>
		</clipPath>
		<path style="clip-path:url(#SVGID_00000066485979345731257400000012050929525962729347_);fill:#FCEA10;" d="M8.1,280.4l0.8,25.3
			l73.3-0.9c0,0-9.2-5.4-12.3-7.6c-10.5-7.6-16.8-13.2-25-17.1C36.9,276.3,16.4,279.1,8.1,280.4"/>
	</g>
	<g>
		<defs>
			<rect id="SVGID_00000021807317181963182260000002872558900179451569_" width="492.6" height="437.8"/>
		</defs>
		<clipPath id="SVGID_00000118359732077323001770000011739893876762297746_">
			<use xlink:href="#SVGID_00000021807317181963182260000002872558900179451569_"  style="overflow:visible;"/>
		</clipPath>
		<path style="clip-path:url(#SVGID_00000118359732077323001770000011739893876762297746_);fill:#FCEA10;" d="M6.6,230.7
			c3.5-0.2,7.3-0.4,9.8-0.7c1.9-0.2,3.9-0.4,5.8-0.6l3.2-0.3c5-0.5,10.6-1.3,15.9-1.2c4.6,0.1,7.3,0.2,10.1,0.6
			c1.2,0.2,2.3,0.4,3.4,0.7c1.9,0.5,3.9,1.2,6,2.2l0.3,0.2c1.2,0.5,2.3,1.1,3.4,1.7c3.7,2.1,7.1,4.7,11,7.6c1.8,1.4,3.7,2.8,5.8,4.3
			c9.7,7,26.8,16.4,26.8,16.4l0.2-0.2l0,0c1.8-2.2,3.6-4.3,5.6-6.5c2.2-2.5,4.5-4.8,6.8-7.1c-0.3-0.1-0.7-0.3-1-0.4
			c-8.1-3.2-17.3-8.2-27.3-14.9c-0.4-0.4-0.8-0.7-1.2-1c-1.9-1.4-3.7-2.7-5.5-4.1c-3.5-2.6-6.9-5.2-10.6-7.5c-2.2-1.4-4.5-2.6-7-3.8
			l-0.5-0.2c-3-1.3-5.8-2.3-8.6-3.1c-1.6-0.4-3.2-0.8-4.9-1.1c-3.8-0.6-7.8-0.9-12.4-0.9c-0.1,0-0.2,0-0.3,0
			c-6.1,0.1-12.4,0.7-17.9,1.3l-3.3,0.4c-1.9,0.2-3.8,0.4-5.7,0.6c-2.7,0.3-5.6,0.5-8.6,0.7L6.6,230.7z"/>
	</g>
	<g>
		<defs>
			<rect id="SVGID_00000063621588188177002980000005660784379148080302_" width="492.6" height="437.8"/>
		</defs>
		<clipPath id="SVGID_00000112633784765983036700000011326593374658159751_">
			<use xlink:href="#SVGID_00000063621588188177002980000005660784379148080302_"  style="overflow:visible;"/>
		</clipPath>
		<path style="clip-path:url(#SVGID_00000112633784765983036700000011326593374658159751_);fill:#FCEA10;" d="M36.7,404.4v-32.8h-6
			v24.2l-0.3-0.6l-0.3-0.8c0-0.1-0.2-0.3-0.3-0.6c-0.2-0.3-0.3-0.6-0.4-0.7l-13.9-21.4H8.2v32.5h6v-23.9c0.2,0.5,0.3,0.7,0.5,1.1
			c0.1,0,0.2,0.3,0.4,0.7c0.4,0.7,0.6,1.1,0.7,1.3l14.2,21L36.7,404.4L36.7,404.4z M53.3,371.6H47v32.5h6.3V371.6z M84,404.1v-5.3
			H69.5v-8.7h11.3v-5.2H69.5v-8h13.9v-5.3H63.2v32.5H84z M118.2,391.4v-19.8h-6.3v20.2c0,4.7-2.6,7.2-7.4,7.2
			c-5.3,0-7.8-2.4-7.8-7.2v-20.2h-6.3v19.8c0,6,1.1,8.7,4.5,11c2.5,1.7,5.2,2.4,9.4,2.4c4.1,0,6.9-0.7,9.3-2.4
			C117.1,400,118.2,397.4,118.2,391.4 M166.2,371.6h-6l-7.9,24.2l-4.8-11.1l5.1-13h-5.4l-2.2,6.5l-2.5-6.5h-5.7l5.4,13.7l-4.1,10.8
			l-8.5-24.5H123l12.6,33.2h4.1l5.1-14l5,14h4.4L166.2,371.6z M201.8,404.1l1.9-5.3h-12.1v-27.3h-6.3V404L201.8,404.1L201.8,404.1z
			 M236.4,404.1l-12-32.5h-5.7l-12,32.5h6.6l2.7-8h11.1l2.6,8H236.4z M225.5,390.8h-7.7l3.8-11.8L225.5,390.8z M270.7,404.4v-32.8
			h-6v24.2l-0.3-0.6l-0.3-0.8c-0.1-0.1-0.2-0.3-0.3-0.6c-0.1-0.3-0.3-0.6-0.4-0.7l-13.9-21.4h-7.3v32.5h6v-23.9
			c0.2,0.5,0.3,0.7,0.5,1.1c0.1,0,0.2,0.3,0.4,0.7c0.4,0.7,0.6,1.1,0.7,1.3l14.2,21L270.7,404.4L270.7,404.4z M311.1,387.7
			c0-4.2-1.6-8.4-4.5-11.4c-3.3-3.4-7.2-4.8-13.5-4.8h-12.3V404H293c6,0,10.3-1.6,13.4-4.8C309.4,396.3,311.1,392.1,311.1,387.7
			 M304.2,387.8c0,7-4.2,10.8-11.7,10.8h-5V377h5c3.6,0,6.2,0.6,7.9,1.9C302.8,380.7,304.2,384.1,304.2,387.8"/>
	</g>
	<g>
		<defs>
			<rect id="SVGID_00000136400177150494442000000012240358324643089332_" width="492.6" height="437.8"/>
		</defs>
		<clipPath id="SVGID_00000039821435713407322940000005614459507207724434_">
			<use xlink:href="#SVGID_00000136400177150494442000000012240358324643089332_"  style="overflow:visible;"/>
		</clipPath>
		<path style="clip-path:url(#SVGID_00000039821435713407322940000005614459507207724434_);fill:#FCEA10;" d="M24.6,361.6v-19.7
			h-2.5v16.6c-0.1-0.1-0.1-0.2-0.1-0.3c-0.2-0.6-0.2-0.6-0.4-0.9c-0.1-0.2-0.2-0.4-0.3-0.5l-9.9-14.9H8.2v19.6h2.5v-16.9
			c0.1,0.4,0.2,0.5,0.3,0.7c0,0.1,0.1,0.2,0.2,0.4c0.2,0.3,0.3,0.5,0.4,0.7l10.1,15.3h2.9V361.6z M40.8,359.9
			c-0.7-0.1-1.1-0.4-1.1-0.7v-1v-7.3c0-2.1-1.7-3.3-4.5-3.3c-2.9,0-5,1.2-5,3c0,0.3,0,0.5,0.2,0.8l2.3-0.5c-0.1-0.2-0.1-0.4-0.1-0.5
			c0-0.8,0.7-1.2,2.1-1.2c1.8,0,2.6,0.6,2.6,1.7v2.4l-4.8,1.1c-2,0.5-3.1,1.8-3.1,3.7c0,2.1,1.5,3.5,3.7,3.5c1,0,2.1-0.3,2.9-0.8
			c0.5-0.2,0.8-0.5,1.5-1.1c0.1,1.3,0.8,1.7,2.7,1.9L40.8,359.9z M37.4,358c-2,1.4-2.7,1.7-3.7,1.7c-1.1,0-1.9-0.7-1.9-1.7
			c0-0.5,0.1-0.8,0.4-1.4l5.2-1.3V358z M51.2,360.1l-0.9-1.5c-1,0.7-1.4,0.9-2,0.9c-0.5,0-0.8-0.2-0.8-0.7c0-0.1,0-0.4-0.1-0.8v-0.6
			v-7.6H51v-1.9h-3.6V344h-2.3v3.9l-2.3,0.6v1.3h2.3v8.9c0,1.8,1.1,3,2.6,3C48.8,361.8,49.6,361.4,51.2,360.1 M57,343.3
			c0-0.8-0.7-1.5-1.5-1.5s-1.5,0.7-1.5,1.5s0.7,1.4,1.5,1.4S57,344.1,57,343.3 M56.6,348h-2.3v13.4h2.3V348z M74.1,354.7
			c0-3.9-3.1-7.1-6.8-7.1c-3.7,0-6.8,3.2-6.8,7.1s3.1,7.1,6.8,7.1S74.1,358.5,74.1,354.7 M71.6,354.7c0,2.8-1.9,5.1-4.3,5.1
			s-4.3-2.3-4.3-5.1c0-2.8,1.9-5.1,4.3-5.1C69.7,349.6,71.6,351.8,71.6,354.7 M89.5,361.4v-10c0-2.5-1.2-3.7-3.6-3.7
			c-1.3,0-2.6,0.5-3.7,1.3c-0.7,0.5-0.9,0.8-1.9,1.8V348H78v13.4h2.3v-8.2c2.4-2.6,3.9-3.6,5.3-3.6c0.6,0,1.2,0.3,1.4,0.7
			c0.2,0.4,0.2,0.7,0.2,1.6v9.5L89.5,361.4L89.5,361.4z M104.9,359.9c-0.7-0.1-1.1-0.4-1.1-0.7v-1v-7.3c0-2.1-1.7-3.3-4.5-3.3
			c-2.9,0-5,1.2-5,3c0,0.3,0,0.5,0.2,0.8l2.3-0.5c-0.1-0.2-0.1-0.4-0.1-0.5c0-0.8,0.7-1.2,2.1-1.2c1.8,0,2.6,0.6,2.6,1.7v2.4
			l-4.8,1.1c-2,0.5-3.1,1.8-3.1,3.7c0,2.1,1.5,3.5,3.7,3.5c1,0,2.1-0.3,2.9-0.8c0.5-0.2,0.8-0.5,1.5-1.1c0.1,1.3,0.8,1.7,2.7,1.9
			L104.9,359.9z M101.4,358c-2,1.4-2.7,1.7-3.7,1.7c-1.1,0-1.9-0.7-1.9-1.7c0-0.5,0.1-0.8,0.4-1.4l5.2-1.3V358z M119.3,359.9
			c-0.7-0.1-1.1-0.4-1.1-0.7v-1v-7.3c0-2.1-1.7-3.3-4.5-3.3c-2.9,0-5,1.2-5,3c0,0.3,0,0.5,0.2,0.8l2.3-0.5c-0.1-0.2-0.1-0.4-0.1-0.5
			c0-0.8,0.7-1.2,2.1-1.2c1.8,0,2.6,0.6,2.6,1.7v2.4l-4.8,1.1c-2,0.5-3.1,1.8-3.1,3.7c0,2.1,1.5,3.5,3.7,3.5c1,0,2.1-0.3,2.9-0.8
			c0.5-0.2,0.8-0.5,1.5-1.1c0.1,1.3,0.8,1.7,2.7,1.9L119.3,359.9z M115.9,358c-2,1.4-2.7,1.7-3.7,1.7c-1.1,0-1.9-0.7-1.9-1.7
			c0-0.5,0.1-0.8,0.4-1.4l5.2-1.3V358z M125.7,339.8h-2.3v21.6h2.3V339.8z M151.8,347.6c0-1.8-0.5-3.2-1.5-4.2
			c-1.1-1.1-2.5-1.5-4.9-1.5h-6.3v19.6h2.5v-7.4c1.8,0.2,2.3,0.2,3.1,0.2C149,354.2,151.8,351.7,151.8,347.6 M149.2,347.8
			c0,1.8-0.9,3.4-2.4,4c-0.7,0.3-1.5,0.4-2.6,0.4c-0.7,0-1.3,0-2.7-0.2v-8.1h3.4c1.6,0,2.5,0.2,3.1,0.8
			C148.8,345.4,149.2,346.5,149.2,347.8 M165.5,359.9c-0.7-0.1-1.1-0.4-1.1-0.7v-1v-7.3c0-2.1-1.7-3.3-4.5-3.3c-2.9,0-5,1.2-5,3
			c0,0.3,0,0.5,0.2,0.8l2.3-0.5c-0.1-0.2-0.1-0.4-0.1-0.5c0-0.8,0.7-1.2,2.1-1.2c1.8,0,2.6,0.6,2.6,1.7v2.4l-4.8,1.1
			c-2,0.5-3.1,1.8-3.1,3.7c0,2.1,1.5,3.5,3.7,3.5c1,0,2.1-0.3,2.9-0.8c0.5-0.2,0.8-0.5,1.5-1.1c0.1,1.3,0.8,1.7,2.7,1.9L165.5,359.9
			z M162.1,358c-2,1.4-2.7,1.7-3.7,1.7c-1.1,0-1.9-0.7-1.9-1.7c0-0.5,0.1-0.8,0.4-1.4l5.2-1.3V358z M177.3,348.5
			c-0.6-0.6-1.2-0.9-1.8-0.9c-1,0-1.9,0.7-3.6,2.8V348h-2.3v13.4h2.3v-8c1.3-2.3,2.4-3.5,3.3-3.5c0.3,0,0.5,0.1,1,0.5L177.3,348.5z
			 M190.8,361.4l-5.9-7.3l5.9-6.2h-3l-5.7,6.1l5.7,7.3h3V361.4z M182.1,339.8h-2.3v21.6h2.3V339.8z"/>
	</g>
	<g>
		<defs>
			<rect id="SVGID_00000085245190031940905400000010077832062828755898_" width="492.6" height="437.8"/>
		</defs>
		<clipPath id="SVGID_00000049933933940250396760000001067534063569653137_">
			<use xlink:href="#SVGID_00000085245190031940905400000010077832062828755898_"  style="overflow:visible;"/>
		</clipPath>
		<path style="clip-path:url(#SVGID_00000049933933940250396760000001067534063569653137_);fill:#FCEA10;" d="M483.9,433.8
			c-0.7,0-1.7-0.1-2.7-0.2l-0.1-1.7l0.2-7.7c0.9-0.1,1.7-0.1,2.5-0.1c1.3,0,2.1,0.4,2.7,1.2c0.5,0.8,0.8,2.2,0.8,4.1
			c0,1.6-0.3,2.7-0.9,3.4C485.8,433.5,485,433.8,483.9,433.8 M484.2,420l-8,0.1l0.2,12.3l-0.2,5.1c2.5,0.2,4.7,0.2,6.8,0.2
			c3.1,0,5.5-0.8,7.1-2.5s2.5-4,2.5-7.1c0-2.6-0.7-4.6-2.2-6C489,420.7,486.9,420,484.2,420 M463,430.6h-1.8l1.9-5.9h0.3l1.5,5.9
			H463z M466.3,420.1h-6.1l-5.8,17.3h5l0.5-3l2.7-0.1l3.2,0.1l0.1,0.3l0.5,2.8h5.2L466.3,420.1z M453,420.1h-13.6l-0.3,3.8l0.3,0.4
			l3.7-0.2h0.6l0.1,8.3l-0.2,5.1h5.1l-0.2-5.6l0.1-7.7h0.6l3.6,0.2l0.3-3.8L453,420.1z M430.5,419.8c-1.5,0-2.8,0.3-3.9,0.8
			c-1.1,0.5-1.9,1.2-2.5,2.1s-0.9,1.9-0.9,3c0,1,0.2,1.9,0.7,2.6s1.1,1.2,1.7,1.6c0.7,0.4,1.5,0.8,2.5,1.2c0.9,0.4,1.6,0.7,2,1
			s0.6,0.6,0.6,1c0,0.3-0.1,0.6-0.4,0.9c-0.3,0.2-0.7,0.3-1.2,0.3c-0.7,0-1.6-0.2-2.6-0.6c-1-0.4-1.9-1-2.7-1.7l-0.5,0.4l-0.7,4.6
			c1.9,0.7,3.8,1,5.8,1c1.6,0,3-0.3,4.1-0.8s1.9-1.3,2.4-2.2s0.8-1.8,0.8-2.9c0-1-0.2-1.9-0.7-2.6s-1.1-1.2-1.7-1.6
			s-1.5-0.8-2.5-1.1c-0.9-0.4-1.6-0.7-2-1s-0.6-0.6-0.6-1c0-0.3,0.1-0.6,0.4-0.8c0.3-0.2,0.6-0.3,1.1-0.3s1.2,0.1,1.9,0.4
			c0.8,0.3,1.5,0.7,2.2,1.2l0.8-0.2l0.7-4.4C433.8,420.1,432.2,419.8,430.5,419.8 M413.9,432l6.6-11.9h-5.3l-0.6,1.6l-2.7,5.2h-0.3
			l-2.4-5.4l-0.4-1.4h-5.4l5.9,12v0.7l-0.2,4.6h5.1l-0.2-4.6L413.9,432z M403,433.2h-5.7l-0.1-1.4l0.3-11.7h-5.2l0.2,12.3l-0.2,5.1
			h10.6l0.3-3.9L403,433.2z M382.7,433.5h-2.9l-0.1-1.6v-1.1h2.7l3.3,0.1l0.3-3.8l-0.3-0.4l-3,0.1h-2.9l0.1-2.7h3l4.5,0.2l0.3-3.8
			l-0.3-0.4h-12.7l0.2,12.3l-0.2,5.1h12.7l0.3-3.8l-0.3-0.3L382.7,433.5z M370.2,433.2h-5.7l-0.1-1.4l0.3-11.7h-5.2l0.2,12.3
			l-0.2,5.1h10.6l0.3-3.9L370.2,433.2z M345.4,420.4l-2.4,0.2l0.1,12.9h-0.2l-8.9-13h-2.7l0.1,12l-0.1,5h2.3l-0.1-5.7v-7.3h0.2
			l8.9,13h2.7v-5.1L345.4,420.4z M320.5,435.4h-3.3v-3.2v-2.3h3.2l3.1,0.1l0.2-2l-0.2-0.2l-3,0.1h-3.4v-5.2h3.5l4.3,0.1l0.2-2
			l-0.2-0.2h-10.4l0.1,11.9l-0.1,5.1h10.3l0.2-2l-0.2-0.2L320.5,435.4z M303.4,420.3c-1.2,0-2.3,0.2-3.2,0.6s-1.6,1-2.1,1.7
			s-0.7,1.5-0.7,2.5c0,0.9,0.2,1.6,0.6,2.2c0.4,0.6,1,1.1,1.6,1.4c0.6,0.4,1.4,0.8,2.4,1.2c1.2,0.5,2.1,1,2.6,1.4
			c0.6,0.4,0.8,1,0.8,1.6c0,0.7-0.3,1.3-0.9,1.9c-0.6,0.5-1.4,0.8-2.4,0.8c-0.7,0-1.5-0.2-2.4-0.5c-0.9-0.4-1.6-0.8-2.2-1.5
			l-0.3,0.1l-0.3,2.7c0.8,0.4,1.6,0.7,2.4,0.9c0.9,0.2,1.7,0.3,2.5,0.3c1.3,0,2.4-0.2,3.3-0.7c0.9-0.5,1.6-1.1,2.1-1.8
			c0.5-0.8,0.7-1.6,0.7-2.5s-0.2-1.6-0.7-2.2c-0.4-0.6-1-1.1-1.6-1.4c-0.6-0.4-1.4-0.8-2.4-1.2c-1.2-0.5-2-1-2.6-1.4
			s-0.8-0.9-0.8-1.6s0.3-1.2,0.9-1.8c0.6-0.5,1.3-0.8,2.3-0.8c0.6,0,1.2,0.1,1.8,0.4c0.6,0.2,1.2,0.6,1.8,1.1l0.4-0.1l0.4-2.5
			C306.2,420.5,304.8,420.3,303.4,420.3 M287.2,420.3c-1.2,0-2.3,0.2-3.2,0.6s-1.6,1-2.1,1.7s-0.7,1.5-0.7,2.5
			c0,0.9,0.2,1.6,0.6,2.2c0.4,0.6,1,1.1,1.6,1.4c0.6,0.4,1.4,0.8,2.4,1.2c1.2,0.5,2.1,1,2.6,1.4c0.6,0.4,0.8,1,0.8,1.6
			c0,0.7-0.3,1.3-0.9,1.9c-0.6,0.5-1.4,0.8-2.4,0.8c-0.7,0-1.5-0.2-2.4-0.5c-0.9-0.4-1.6-0.8-2.2-1.5l-0.3,0.1l-0.3,2.7
			c0.7,0.4,1.6,0.7,2.4,0.9c0.9,0.2,1.7,0.3,2.5,0.3c1.3,0,2.4-0.2,3.3-0.7c0.9-0.5,1.6-1.1,2.1-1.8c0.5-0.8,0.7-1.6,0.7-2.5
			s-0.2-1.6-0.7-2.2c-0.4-0.6-1-1.1-1.6-1.4c-0.6-0.4-1.4-0.8-2.4-1.2c-1.2-0.5-2-1-2.6-1.4s-0.8-0.9-0.8-1.6s0.3-1.2,0.9-1.8
			c0.6-0.5,1.3-0.8,2.3-0.8c0.6,0,1.2,0.1,1.8,0.4c0.6,0.2,1.2,0.6,1.8,1.1l0.4-0.1l0.4-2.5C290,420.5,288.6,420.3,287.2,420.3
			 M268.5,431h-3l3.1-8.1h0.2l2.8,8.1H268.5z M270.3,420.4h-2.9l-6.6,17h2.5l0.5-2l0.9-2.4h3.6h4.1l0.9,2.5l0.4,1.8h2.6L270.3,420.4
			z M257.5,435.3h-6.6l-0.1-3.2l0.1-11.7h-2.5l0.1,11.9l-0.1,5.1h9l0.2-1.9L257.5,435.3z M236.2,429.6l-2.9-0.1v-7.1h2.6
			c1.2,0,2.1,0.3,2.7,0.9c0.6,0.5,0.9,1.3,0.9,2.4C239.6,427.9,238.4,429.2,236.2,429.6 M236.6,420.4h-5.8l0.1,11.9l-0.1,5.1h2.5
			l-0.1-5.3v-0.5h2.1c2.1,0,3.8-0.5,5-1.6s1.8-2.6,1.8-4.5c0-1.6-0.5-2.9-1.4-3.8C239.8,420.8,238.4,420.4,236.6,420.4 M219.6,420.3
			c-1.2,0-2.3,0.2-3.2,0.6c-0.9,0.4-1.6,1-2.1,1.7s-0.7,1.5-0.7,2.5c0,0.9,0.2,1.6,0.6,2.2s1,1.1,1.6,1.4c0.6,0.4,1.4,0.8,2.4,1.2
			c1.2,0.5,2.1,1,2.6,1.4c0.6,0.4,0.8,1,0.8,1.6c0,0.7-0.3,1.3-0.9,1.9c-0.6,0.5-1.4,0.8-2.4,0.8c-0.7,0-1.5-0.2-2.4-0.5
			s-1.6-0.8-2.2-1.5l-0.3,0.1l-0.3,2.7c0.8,0.4,1.6,0.7,2.4,0.9c0.9,0.2,1.7,0.3,2.5,0.3c1.3,0,2.4-0.2,3.3-0.7
			c0.9-0.5,1.6-1.1,2.1-1.8c0.5-0.8,0.7-1.6,0.7-2.5s-0.2-1.6-0.7-2.2c-0.4-0.6-1-1.1-1.6-1.4c-0.6-0.4-1.4-0.8-2.4-1.2
			c-1.2-0.5-2-1-2.6-1.4s-0.8-0.9-0.8-1.6s0.3-1.2,0.9-1.8c0.6-0.5,1.3-0.8,2.3-0.8c0.6,0,1.2,0.1,1.8,0.4c0.6,0.2,1.2,0.6,1.8,1.1
			l0.4-0.1l0.4-2.5C222.4,420.5,221,420.3,219.6,420.3 M198.5,422.5h2.6c1.2,0,2.1,0.3,2.7,0.8s0.9,1.3,0.9,2.3c0,1.9-1,3.2-3,3.7
			l-3.2-0.1V422.5z M203.8,430.6c1.1-0.5,2-1.2,2.6-2.2c0.6-0.9,0.9-1.9,0.9-3.1c0-1.6-0.5-2.8-1.5-3.7c-1-0.8-2.3-1.3-4.1-1.3h-5.8
			l0.1,11.9l-0.1,5.1h2.5l-0.1-5.3v-0.9h3.2c0.9,1.5,2.2,3.6,3.9,6.2l0.4,0.3c0.6,0,1.4-0.2,2.4-0.5v-0.3
			C206.7,434.8,205.2,432.7,203.8,430.6 M185.3,435.4H182v-3.2v-2.3h3.2l3.1,0.1l0.2-2l-0.2-0.2l-3,0.1h-3.4v-5.2h3.6l4.3,0.1l0.2-2
			l-0.2-0.2h-10.4l0.1,11.9l-0.1,5.1h10.3l0.2-2l-0.2-0.2L185.3,435.4z M164.8,435.5c-0.5,0-1.1,0-1.8-0.1c-0.7,0-1.4-0.1-2.1-0.1
			v-3.2l0.1-9.5c1.5-0.1,2.8-0.1,3.9-0.1c1.9,0,3.3,0.5,4.2,1.6c0.9,1,1.4,2.7,1.4,4.8c0,2.2-0.5,3.9-1.5,5S166.6,435.5,164.8,435.5
			 M165.1,420.3l-6.7,0.1l0.1,11.9l-0.1,5.1c1,0,2,0.1,3.1,0.1s2.1,0,2.8,0c2.8,0,5-0.8,6.5-2.4c1.5-1.6,2.3-3.9,2.3-6.9
			c0-2.6-0.7-4.6-2.1-6C169.6,421,167.7,420.3,165.1,420.3 M142.3,422.5h2.6c1.2,0,2.1,0.3,2.7,0.8s0.9,1.3,0.9,2.3
			c0,1.9-1,3.2-3,3.7l-3.2-0.1V422.5z M147.6,430.6c1.1-0.5,2-1.2,2.6-2.2c0.6-0.9,0.9-1.9,0.9-3.1c0-1.6-0.5-2.8-1.4-3.7
			c-1-0.8-2.3-1.3-4.1-1.3h-5.8l0.1,11.9l-0.1,5.1h2.5l-0.1-5.3v-0.9h3.2c0.9,1.5,2.2,3.6,3.9,6.2l0.4,0.3c0.6,0,1.4-0.2,2.4-0.5
			v-0.3C150.5,434.8,149,432.7,147.6,430.6 M126.1,431h-3l3.1-8.1h0.2l2.8,8.1H126.1z M127.9,420.4H125l-6.6,17h2.5l0.5-2l0.9-2.4
			h3.6h4.1l0.9,2.5l0.4,1.8h2.6L127.9,420.4z M106.9,431h-3l3.1-8.1h0.2l2.8,8.1H106.9z M108.7,420.4h-2.9l-6.6,17h2.5l0.5-2
			l0.9-2.4h3.6h4.1l0.9,2.5l0.4,1.8h2.6L108.7,420.4z M96.7,420.4h-2.6l-0.4,2l-4.9,12.5h-0.2l-4.4-12.6l-0.4-1.9h-2.6l5.9,17h3
			L96.7,420.4z M77.4,420.4H65l-0.2,2.1l0.2,0.2l3.2-0.2h1.7l0.1,9.8l-0.1,5.1h2.6l-0.1-5.3l0.1-9.6h1.7l3.2,0.2l0.2-2.2L77.4,420.4
			z M56.1,420.3c-1.2,0-2.3,0.2-3.2,0.6c-0.9,0.4-1.6,1-2.1,1.7s-0.7,1.5-0.7,2.5c0,0.9,0.2,1.6,0.6,2.2s1,1.1,1.6,1.4
			c0.6,0.4,1.4,0.8,2.4,1.2c1.2,0.5,2.1,1,2.6,1.4c0.6,0.4,0.8,1,0.8,1.6c0,0.7-0.3,1.3-0.9,1.9c-0.6,0.5-1.4,0.8-2.4,0.8
			c-0.7,0-1.5-0.2-2.4-0.5c-0.9-0.4-1.6-0.8-2.2-1.5l-0.3,0.1l-0.3,2.7c0.8,0.4,1.6,0.7,2.4,0.9c0.9,0.2,1.7,0.3,2.5,0.3
			c1.3,0,2.4-0.2,3.3-0.7s1.6-1.1,2.1-1.8c0.5-0.8,0.7-1.6,0.7-2.5s-0.2-1.6-0.7-2.2c-0.4-0.6-1-1.1-1.6-1.4
			c-0.6-0.4-1.4-0.8-2.4-1.2c-1.2-0.5-2-1-2.6-1.4s-0.8-0.9-0.8-1.6s0.3-1.2,0.9-1.8c0.6-0.5,1.3-0.8,2.3-0.8c0.6,0,1.2,0.1,1.8,0.4
			s1.2,0.6,1.8,1.1l0.4-0.1l0.4-2.5C58.9,420.5,57.5,420.3,56.1,420.3 M36.8,422.4c1.8,0,3.1,0.5,4,1.6s1.3,2.8,1.3,5.1
			c0,2.2-0.4,3.9-1.3,4.9s-2.2,1.6-4.1,1.6c-1.8,0-3.1-0.5-4-1.6s-1.3-2.8-1.3-5.2c0-2.2,0.4-3.8,1.3-4.8
			C33.7,422.9,35,422.4,36.8,422.4 M37.1,420.2c-2.6,0-4.6,0.8-6.1,2.3c-1.4,1.5-2.2,3.7-2.2,6.5s0.7,4.9,2,6.4s3.2,2.2,5.7,2.2
			c2.6,0,4.7-0.8,6.1-2.4c1.4-1.6,2.1-3.8,2.1-6.7c0-2.7-0.7-4.7-2-6.2C41.5,421,39.6,420.2,37.1,420.2 M16.1,422.4
			c1.8,0,3.1,0.5,4,1.6s1.3,2.8,1.3,5.1c0,2.2-0.4,3.9-1.3,4.9s-2.2,1.6-4.1,1.6c-1.8,0-3.1-0.5-4-1.6s-1.3-2.8-1.3-5.2
			c0-2.2,0.4-3.8,1.3-4.8C13,422.9,14.3,422.4,16.1,422.4 M16.4,420.2c-2.6,0-4.6,0.8-6.1,2.3c-1.4,1.5-2.2,3.7-2.2,6.5
			s0.7,4.9,2,6.4s3.2,2.2,5.7,2.2c2.6,0,4.7-0.8,6.1-2.4c1.4-1.6,2.1-3.8,2.1-6.7c0-2.7-0.7-4.7-2-6.2S18.8,420.2,16.4,420.2"/>
	</g>
	<g>
		<defs>
			<rect id="SVGID_00000139268040433959464710000017927990725333704636_" width="492.6" height="437.8"/>
		</defs>
		<clipPath id="SVGID_00000029738617560724878180000015018145344340375705_">
			<use xlink:href="#SVGID_00000139268040433959464710000017927990725333704636_"  style="overflow:visible;"/>
		</clipPath>
		<g style="display:none;clip-path:url(#SVGID_00000029738617560724878180000015018145344340375705_);">
			<g class="st11">
				<path class="st12" d="M-495.7,278.9c4.3-3.5,8.6-6.1,13.4-7.9c2.6-1,5.3-1.7,8.2-2.2l-7.8,9.9L-495.7,278.9z"/>
				<path class="st12" d="M-448,235.8c-17.7-2.5-33.5-1.2-47,3.9c-12,4.5-22.6,12-33.1,23.6c-4.9,5.4-8.6,11-11.5,16.2l-14,0.2
					c3.7-7.8,9.2-17.1,17.4-26.1c11.2-12.3,23.5-20.8,37.5-26.1c15.8-5.9,34.7-7.1,56.2-3.5l3.4,0.6L-448,235.8z"/>
				<path class="st12" d="M-527.2,279.3c1.9-3,4.2-6,6.9-8.9c9.5-10.5,18.5-16.9,29-20.8c10.3-3.8,22.2-5.2,35.6-4l-9.3,11.7
					c-7.6,0.2-14.6,1.4-20.9,3.8c-9.1,3.4-17.2,9.3-25.1,18L-527.2,279.3z"/>
				<path class="st12" d="M-540.5,168.4h19l-36.3,33.6c-2.9-2-5.8-3.9-9.2-5.4l-0.3-0.1c-0.8-0.4-1.6-0.7-2.4-1L-540.5,168.4z
					 M-616.7,207.5c3.6,0,7.3-0.3,10.9-0.7c1.3-0.1,2.6-0.3,3.8-0.4c0.7-0.1,1.5-0.2,2.2-0.2c4-0.4,8.7-0.8,11.6-0.8
					c1.2,0,3.5,0.1,4.6,0.2c0.7,0.1,2,0.2,2.7,0.3c0.7,0.1,1.9,0.3,2.8,0.6c1.7,0.4,3.3,1,4.9,1.8c0.1,0,0.2,0.1,0.3,0.1
					c5.2,2.4,10.3,6.1,15.6,9.9c6.4,4.6,12.9,9.3,20.2,12.1c1.6,0.7,3.3,1.3,4.9,1.8c0.9,0.2,1.8,0.4,2.7,0.6
					c0.1-0.1,0.1-0.1,0.2-0.2c20.4-16.2,48.2-24.9,89.7-18.7c0.3,0,7,1.8,7.3,1.9l24.9-31.5l-44.1-108.8c0,0-101,6.2-100.9,6.2
					c14.7,13,33,29,38.9,34c0.5,0,1.1-0.1,1.7-0.1c8.1-0.5,25-1.6,41.7,5c20.8,8.3,34.1,25.5,39.5,51.2l2.7,13l-0.1,0.3l-12.7-6.9
					c-17.9-9.7-30.9-11.7-43.5-6.7s-25.1,17.2-41,32.5c-0.2,0.2-6.5,6.5-12.2,12.2c-3.5-2-7.2-4.3-11.1-7.1
					c5.9-5.9,12.4-12.3,13.5-13.4c16.9-16.4,30.2-29.3,45.3-35.4c13.1-5.2,27.3-5,42.9,0.9c-5.6-14.5-15.9-24.4-28.9-29.6
					c-13.6-5.4-27.7-4.5-35.3-4c-4.7,0.3-7.8,0.5-10.3-1.8c-9.8-8.2-32.4-28.2-49.2-43.2l-14.5,0.9l62.8,56.2h-19.2L-603,84.6
					l-17.9,1.1l76.6,68.8l-41.3,38.3c-0.6,0-1.2,0-1.8,0c-4.7,0-9.6,0.5-13.8,0.9c-0.4,0-0.7,0.1-1.1,0.1l42.7-39.5l-60.8-53.5
					L-616.7,207.5z"/>
				<path class="st12" d="M-615.4,252.2c9-1,20.5-2.3,26.2-0.4c9.2,3,16.3,9.8,23.9,15.2c1.5,1.1,3.1,2.2,4.6,3.3
					c1.7-3.3,3.8-6.8,6.1-10.3c-3.8-2.3-7.5-4.9-11-7.5c-7.1-5.1-13.7-9.9-20.8-11.8c-7.1-1.9-15.3-1-23.9-0.1
					c-1.8,0.2-3.5,0.4-5.3,0.6L-615.4,252.2z"/>
				<path class="st12" d="M-615,263.6l0.5,17l49.2-0.6c0,0-6.2-3.6-8.3-5.1c-7.1-5.1-11.2-8.9-16.8-11.5
					C-595.7,260.8-609.4,262.7-615,263.6"/>
				<path class="st12" d="M-616,230.2c2.4-0.1,4.9-0.3,6.5-0.4c1.3-0.1,2.6-0.3,3.9-0.4l2.2-0.2c3.3-0.4,7.1-0.8,10.7-0.8
					c3.1,0.1,4.9,0.1,6.8,0.4c0.8,0.1,1.5,0.3,2.3,0.5c1.3,0.3,2.6,0.8,4,1.5l0.2,0.1c0.8,0.4,1.5,0.7,2.3,1.2
					c2.5,1.4,4.8,3.2,7.4,5.1c1.2,0.9,2.5,1.9,3.9,2.9c6.5,4.7,18,11,18,11l0.1-0.1l0,0c1.2-1.5,2.4-2.9,3.8-4.4
					c1.5-1.7,3-3.2,4.6-4.8c-0.2-0.1-0.5-0.2-0.7-0.3c-5.5-2.1-11.6-5.5-18.3-10c-0.3-0.2-0.5-0.5-0.8-0.7c-1.3-0.9-2.5-1.8-3.7-2.7
					c-2.4-1.8-4.6-3.5-7.1-5c-1.5-0.9-3-1.8-4.7-2.5l-0.3-0.1c-2-0.9-3.9-1.6-5.8-2.1c-1.1-0.3-2.2-0.5-3.3-0.7
					c-2.5-0.4-5.2-0.6-8.3-0.6c-0.1,0-0.1,0-0.2,0c-4.1,0-8.3,0.5-12,0.8l-2.2,0.2c-1.3,0.1-2.5,0.3-3.8,0.4
					c-1.8,0.2-3.7,0.4-5.7,0.5L-616,230.2z"/>
			</g>
			<path class="st13" d="M-334.1,228.2v-31.7h-5.8v23.3l-0.3-0.6l-0.3-0.8c0-0.1-0.1-0.3-0.3-0.6c-0.1-0.3-0.3-0.6-0.3-0.7
				l-13.4-20.6h-7v31.4h5.8v-23c0.1,0.5,0.2,0.7,0.4,1.1c0,0,0.1,0.3,0.4,0.7c0.3,0.7,0.6,1.1,0.7,1.2l13.7,20.3L-334.1,228.2
				L-334.1,228.2z M-318.1,196.5h-6.1v31.4h6.1V196.5z M-288.5,227.9v-5.1h-14v-8.4h11v-5.1h-11v-7.8h13.4v-5.1h-19.5v31.5H-288.5z
				 M-255.5,215.7v-19.1h-6.1v19.5c0,4.5-2.5,7-7.1,7c-5.1,0-7.6-2.3-7.6-7v-19.5h-6.1v19.1c0,5.8,1.1,8.4,4.4,10.6
				c2.4,1.6,5,2.3,9.1,2.3c4,0,6.7-0.7,9-2.3C-256.6,224-255.5,221.4-255.5,215.7 M-209.2,196.5h-5.8l-7.6,23.3l-4.6-10.8l4.9-12.6
				h-5.2l-2.1,6.3l-2.4-6.3h-5.5l5.2,13.2l-4,10.5l-8.2-23.6h-6.4l12.2,32h3.9l4.9-13.5l4.8,13.5h4.3L-209.2,196.5z M-174.8,227.9
				l1.9-5.1h-11.7v-26.3h-6.1v31.4H-174.8z M-141.4,227.9l-11.6-31.4h-5.5l-11.6,31.4h6.4l2.6-7.8h10.7l2.5,7.8H-141.4z M-152,215.1
				h-7.4l3.7-11.4L-152,215.1z M-108.3,228.2v-31.7h-5.8v23.3l-0.3-0.6l-0.3-0.8c0-0.1-0.1-0.3-0.3-0.6c-0.1-0.3-0.3-0.6-0.3-0.7
				l-13.4-20.6h-7v31.4h5.8v-23c0.1,0.5,0.2,0.7,0.4,1.1c0,0,0.1,0.3,0.4,0.7c0.3,0.7,0.6,1.1,0.7,1.2l13.7,20.3L-108.3,228.2
				L-108.3,228.2z M-69.4,212.1c0-4.1-1.5-8.1-4.3-11c-3.1-3.3-6.9-4.6-13-4.6h-11.9v31.4h11.8c5.8,0,10-1.5,12.9-4.6
				C-71,220.4-69.4,216.3-69.4,212.1 M-76,212.2c0,6.7-4.1,10.5-11.3,10.5h-4.8v-20.8h4.8c3.5,0,6,0.6,7.7,1.9
				C-77.4,205.3-76,208.6-76,212.2"/>
			<path class="st13" d="M-345.8,186.9v-19h-2.4v16c-0.1-0.1-0.1-0.2-0.1-0.3c-0.2-0.5-0.2-0.6-0.4-0.9c-0.1-0.2-0.2-0.3-0.3-0.5
				l-9.6-14.4h-3.1v18.9h2.4v-16.3c0.1,0.4,0.2,0.5,0.3,0.7c0,0.1,0.1,0.2,0.2,0.4c0.1,0.3,0.3,0.5,0.4,0.7l9.8,14.7H-345.8z
				 M-330.2,185.3c-0.7-0.1-1-0.3-1.1-0.7v-0.9v-7c0-2-1.7-3.2-4.3-3.2c-2.8,0-4.8,1.2-4.8,2.9c0,0.3,0,0.5,0.2,0.8l2.2-0.5
				c-0.1-0.2-0.1-0.3-0.1-0.5c0-0.7,0.6-1.1,2-1.1c1.7,0,2.5,0.5,2.5,1.6v2.3l-4.6,1.1c-1.9,0.5-3,1.7-3,3.6c0,2.1,1.4,3.4,3.5,3.4
				c0.9,0,2-0.3,2.8-0.7c0.4-0.2,0.7-0.5,1.4-1c0.1,1.2,0.8,1.7,2.6,1.8L-330.2,185.3z M-333.5,183.5c-1.9,1.3-2.6,1.7-3.6,1.7
				c-1.1,0-1.8-0.7-1.8-1.7c0-0.5,0.1-0.8,0.4-1.4l5-1.3C-333.5,180.8-333.5,183.5-333.5,183.5z M-320.1,185.4l-0.9-1.4
				c-0.9,0.7-1.4,0.9-1.9,0.9s-0.7-0.2-0.8-0.6c0-0.1,0-0.4-0.1-0.8v-0.6v-7.4h3.5v-1.8h-3.5v-3.8h-2.2v3.8l-2.2,0.5v1.3h2.2v8.6
				c0,1.7,1,2.9,2.5,2.9C-322.4,187.1-321.7,186.7-320.1,185.4 M-314.6,169.2c0-0.8-0.6-1.4-1.4-1.4c-0.8,0-1.4,0.6-1.4,1.4
				s0.6,1.4,1.4,1.4C-315.2,170.6-314.6,170-314.6,169.2 M-314.9,173.8h-2.2v12.9h2.2V173.8z M-298,180.2c0-3.7-3-6.8-6.5-6.8
				c-3.6,0-6.6,3.1-6.6,6.8s3,6.8,6.6,6.8C-301,187.1-298,184-298,180.2 M-300.4,180.2c0,2.7-1.8,4.9-4.1,4.9
				c-2.3,0-4.2-2.2-4.2-4.9c0-2.7,1.8-4.9,4.2-4.9C-302.3,175.3-300.4,177.5-300.4,180.2 M-283.2,186.7V177c0-2.4-1.1-3.6-3.5-3.6
				c-1.2,0-2.5,0.5-3.5,1.3c-0.6,0.5-0.9,0.8-1.8,1.8v-2.7h-2.3v12.9h2.2v-7.9c2.3-2.5,3.8-3.5,5.1-3.5c0.6,0,1.1,0.3,1.3,0.7
				c0.1,0.4,0.2,0.7,0.2,1.5v9.2L-283.2,186.7L-283.2,186.7z M-268.3,185.3c-0.7-0.1-1-0.3-1.1-0.7v-0.9v-7c0-2-1.7-3.2-4.3-3.2
				c-2.8,0-4.8,1.2-4.8,2.9c0,0.3,0,0.5,0.2,0.8l2.2-0.5c-0.1-0.2-0.1-0.3-0.1-0.5c0-0.7,0.6-1.1,2-1.1c1.7,0,2.5,0.5,2.5,1.6v2.3
				l-4.6,1.1c-1.9,0.5-3,1.7-3,3.6c0,2.1,1.4,3.4,3.5,3.4c0.9,0,2-0.3,2.8-0.7c0.4-0.2,0.7-0.5,1.4-1c0.1,1.2,0.8,1.7,2.6,1.8
				L-268.3,185.3z M-271.7,183.5c-1.9,1.3-2.6,1.7-3.6,1.7c-1.1,0-1.8-0.7-1.8-1.7c0-0.5,0.1-0.8,0.4-1.4l5-1.3V183.5z
				 M-254.4,185.3c-0.7-0.1-1-0.3-1.1-0.7v-0.9v-7c0-2-1.7-3.2-4.3-3.2c-2.8,0-4.8,1.2-4.8,2.9c0,0.3,0,0.5,0.2,0.8l2.2-0.5
				c-0.1-0.2-0.1-0.3-0.1-0.5c0-0.7,0.6-1.1,2-1.1c1.7,0,2.5,0.5,2.5,1.6v2.3l-4.6,1.1c-1.9,0.5-3,1.7-3,3.6c0,2.1,1.4,3.4,3.5,3.4
				c0.9,0,2-0.3,2.8-0.7c0.4-0.2,0.7-0.5,1.4-1c0.1,1.2,0.8,1.7,2.6,1.8L-254.4,185.3z M-257.7,183.5c-1.9,1.3-2.6,1.7-3.6,1.7
				c-1.1,0-1.8-0.7-1.8-1.7c0-0.5,0.1-0.8,0.4-1.4l5-1.3C-257.7,180.8-257.7,183.5-257.7,183.5z M-248.3,165.9h-2.2v20.8h2.2V165.9z
				 M-223.1,173.4c0-1.8-0.5-3.1-1.5-4.1c-1.1-1.1-2.4-1.5-4.7-1.5h-6.1v18.9h2.4v-7.1c1.7,0.2,2.2,0.2,3,0.2
				C-225.7,179.8-223.1,177.4-223.1,173.4 M-225.6,173.6c0,1.8-0.9,3.3-2.3,3.8c-0.6,0.3-1.4,0.4-2.5,0.4c-0.7,0-1.2,0-2.6-0.2v-7.8
				h3.3c1.6,0,2.4,0.2,3,0.8C-226,171.3-225.6,172.3-225.6,173.6 M-209.8,185.3c-0.7-0.1-1-0.3-1.1-0.7v-0.9v-7c0-2-1.7-3.2-4.3-3.2
				c-2.8,0-4.8,1.2-4.8,2.9c0,0.3,0,0.5,0.2,0.8l2.2-0.5c-0.1-0.2-0.1-0.3-0.1-0.5c0-0.7,0.6-1.1,2-1.1c1.7,0,2.5,0.5,2.5,1.6v2.3
				l-4.6,1.1c-1.9,0.5-3,1.7-3,3.6c0,2.1,1.4,3.4,3.5,3.4c0.9,0,2-0.3,2.8-0.7c0.4-0.2,0.7-0.5,1.4-1c0.1,1.2,0.8,1.7,2.6,1.8
				L-209.8,185.3z M-213.1,183.5c-1.9,1.3-2.6,1.7-3.6,1.7c-1.1,0-1.8-0.7-1.8-1.7c0-0.5,0.1-0.8,0.4-1.4l5-1.3V183.5z
				 M-198.5,174.3c-0.6-0.6-1.2-0.9-1.7-0.9c-1,0-1.8,0.6-3.5,2.7v-2.3h-2.2v12.9h2.3V179c1.3-2.2,2.3-3.4,3.1-3.4
				c0.3,0,0.5,0.1,0.9,0.5L-198.5,174.3z M-185.4,186.7l-5.7-7l5.7-5.9h-2.9l-5.5,5.9l5.5,7H-185.4z M-193.8,165.9h-2.2v20.8h2.2
				V165.9z"/>
			<path class="st13" d="M97.4,256.6c-0.7,0-1.6-0.1-2.6-0.2l-0.1-1.7l0.2-7.4c0.9-0.1,1.6-0.1,2.4-0.1c1.2,0,2.1,0.4,2.6,1.2
				c0.5,0.8,0.8,2.1,0.8,4c0,1.5-0.3,2.6-0.8,3.3C99.2,256.3,98.4,256.6,97.4,256.6 M97.7,243.2l-7.7,0.1l0.2,11.8L90,260
				c2.4,0.2,4.6,0.2,6.6,0.2c3,0,5.3-0.8,6.9-2.4s2.4-3.9,2.4-6.9c0-2.5-0.7-4.5-2.1-5.8C102.3,243.9,100.3,243.2,97.7,243.2
				 M77.2,253.5h-1.8l1.8-5.7h0.3l1.5,5.7H77.2z M80.4,243.4h-5.9l-5.6,16.7h4.8l0.5-2.9l2.6-0.1l3.1,0.1l0.1,0.3l0.5,2.7h5
				L80.4,243.4z M67.5,243.4H54.4l-0.3,3.7l0.3,0.4l3.6-0.2h0.6l0.1,8l-0.2,4.9h4.9l-0.2-5.4l0.1-7.5h0.6l3.5,0.2l0.3-3.7
				L67.5,243.4z M45.9,243.1c-1.5,0-2.7,0.2-3.8,0.7c-1.1,0.5-1.9,1.2-2.4,2c-0.6,0.8-0.8,1.8-0.8,2.8s0.2,1.8,0.7,2.5
				s1,1.2,1.7,1.5c0.6,0.4,1.5,0.8,2.5,1.2c0.9,0.4,1.5,0.7,1.9,0.9c0.4,0.2,0.6,0.6,0.6,0.9s-0.1,0.6-0.4,0.8
				c-0.3,0.2-0.7,0.3-1.1,0.3c-0.7,0-1.5-0.2-2.5-0.6c-0.9-0.4-1.8-0.9-2.6-1.6l-0.5,0.4l-0.7,4.4c1.8,0.7,3.7,1,5.6,1
				c1.6,0,2.9-0.3,4-0.8s1.8-1.2,2.3-2.1s0.7-1.8,0.7-2.8s-0.2-1.8-0.7-2.5s-1-1.2-1.7-1.5c-0.6-0.4-1.5-0.7-2.4-1.1
				s-1.5-0.7-1.9-0.9c-0.4-0.2-0.6-0.5-0.6-0.9c0-0.3,0.1-0.6,0.4-0.8c0.3-0.2,0.6-0.3,1.1-0.3s1.1,0.1,1.9,0.4
				c0.7,0.3,1.5,0.7,2.2,1.2l0.7-0.2l0.7-4.3C49.1,243.3,47.5,243.1,45.9,243.1 M29.8,254.8l6.3-11.5H31l-0.6,1.5l-2.6,5h-0.3
				l-2.3-5.2l-0.4-1.3h-5.2l5.7,11.6v0.7l-0.2,4.4H30l-0.2-4.4L29.8,254.8z M19.3,256h-5.5l-0.1-1.3l0.3-11.3H9l0.2,11.8L9,260.1
				h10.2l0.3-3.7L19.3,256z M-0.3,256.3h-2.8l-0.1-1.6v-1.1h2.6l3.2,0.1l0.3-3.7l-0.3-0.4l-2.9,0.1h-2.8l0.1-2.6h2.9l4.3,0.2
				l0.3-3.6l-0.3-0.4H-8.1l0.2,11.8l-0.2,4.9H4l0.3-3.7L4,256L-0.3,256.3z M-12.3,256h-5.5l-0.1-1.3l0.3-11.3h-5l0.2,11.8l-0.2,4.9
				h10.2l0.3-3.7L-12.3,256z M-36.3,243.6l-2.3,0.2l0.1,12.4h-0.2l-8.6-12.5h-2.6l0.1,11.6l-0.1,4.8h2.2l-0.1-5.5v-7h0.2l8.6,12.5
				h2.6v-4.9L-36.3,243.6z M-60.3,258.1h-3.2V255v-2.2h3.1l3,0.1l0.2-1.9l-0.2-0.2l-2.9,0.1h-3.3v-5h3.4l4.2,0.1l0.2-1.9l-0.2-0.2
				h-10l0.1,11.5l-0.1,4.9h10l0.2-1.9l-0.2-0.2L-60.3,258.1z M-76.8,243.5c-1.2,0-2.2,0.2-3,0.6c-0.9,0.4-1.5,1-2,1.7
				s-0.7,1.5-0.7,2.4c0,0.8,0.2,1.5,0.6,2.1c0.4,0.6,0.9,1,1.5,1.4s1.4,0.7,2.3,1.2c1.1,0.5,2,1,2.5,1.4s0.8,0.9,0.8,1.6
				s-0.3,1.3-0.9,1.8c-0.6,0.5-1.4,0.7-2.3,0.7c-0.7,0-1.5-0.2-2.3-0.5s-1.5-0.8-2.2-1.4l-0.3,0.1l-0.3,2.6c0.7,0.4,1.5,0.7,2.4,0.8
				c0.8,0.2,1.7,0.3,2.4,0.3c1.2,0,2.3-0.2,3.2-0.7c0.9-0.4,1.6-1,2-1.8c0.5-0.7,0.7-1.5,0.7-2.4c0-0.8-0.2-1.5-0.6-2.1
				c-0.4-0.6-0.9-1-1.5-1.4s-1.4-0.7-2.4-1.2c-1.1-0.5-1.9-0.9-2.5-1.3c-0.5-0.4-0.8-0.9-0.8-1.5s0.3-1.2,0.8-1.7s1.3-0.7,2.2-0.7
				c0.6,0,1.2,0.1,1.7,0.3c0.5,0.2,1.1,0.6,1.7,1.1l0.4-0.1l0.4-2.4C-74.1,243.8-75.4,243.5-76.8,243.5 M-92.4,243.5
				c-1.2,0-2.2,0.2-3,0.6c-0.9,0.4-1.5,1-2,1.7s-0.7,1.5-0.7,2.4c0,0.8,0.2,1.5,0.6,2.1c0.4,0.6,0.9,1,1.5,1.4s1.4,0.7,2.3,1.2
				c1.1,0.5,2,1,2.5,1.4s0.8,0.9,0.8,1.6s-0.3,1.3-0.9,1.8c-0.6,0.5-1.3,0.7-2.3,0.7c-0.7,0-1.5-0.2-2.3-0.5s-1.5-0.8-2.2-1.4
				l-0.3,0.1l-0.3,2.6c0.7,0.4,1.5,0.7,2.4,0.8c0.8,0.2,1.7,0.3,2.4,0.3c1.2,0,2.3-0.2,3.2-0.7c0.9-0.4,1.6-1,2-1.8
				c0.5-0.7,0.7-1.5,0.7-2.4c0-0.8-0.2-1.5-0.6-2.1c-0.4-0.6-0.9-1-1.5-1.4s-1.4-0.7-2.4-1.2c-1.1-0.5-1.9-0.9-2.5-1.3
				c-0.5-0.4-0.8-0.9-0.8-1.5s0.3-1.2,0.8-1.7s1.3-0.7,2.2-0.7c0.6,0,1.2,0.1,1.7,0.3s1.1,0.6,1.7,1.1l0.4-0.1l0.4-2.4
				C-89.7,243.8-91.1,243.5-92.4,243.5 M-110.4,253.9h-2.9l3-7.8h0.2l2.7,7.8H-110.4z M-108.8,243.7h-2.8l-6.3,16.4h2.4l0.5-1.9
				l0.9-2.3h3.5h3.9l0.9,2.4l0.4,1.8h2.5L-108.8,243.7z M-121.1,258h-6.3l-0.1-3.1l0.1-11.3h-2.5l0.1,11.5l-0.1,4.9h8.7l0.2-1.8
				L-121.1,258z M-141.6,252.5l-2.8-0.1v-6.8h2.5c1.2,0,2,0.3,2.6,0.8s0.9,1.3,0.9,2.3C-138.4,250.9-139.5,252.1-141.6,252.5
				 M-141.2,243.7h-5.6l0.1,11.5l-0.1,4.9h2.4l-0.1-5.1v-0.5h2c2.1,0,3.7-0.5,4.9-1.6c1.2-1,1.8-2.5,1.8-4.3c0-1.6-0.5-2.8-1.4-3.6
				C-138.2,244.1-139.5,243.7-141.2,243.7 M-157.6,243.5c-1.2,0-2.2,0.2-3,0.6c-0.9,0.4-1.5,1-2,1.7s-0.7,1.5-0.7,2.4
				c0,0.8,0.2,1.5,0.6,2.1c0.4,0.6,0.9,1,1.5,1.4s1.4,0.7,2.3,1.2c1.1,0.5,2,1,2.5,1.4s0.8,0.9,0.8,1.6s-0.3,1.3-0.9,1.8
				c-0.6,0.5-1.3,0.7-2.3,0.7c-0.7,0-1.5-0.2-2.3-0.5s-1.5-0.8-2.2-1.4l-0.3,0.1l-0.3,2.6c0.7,0.4,1.5,0.7,2.4,0.8
				c0.8,0.2,1.7,0.3,2.4,0.3c1.2,0,2.3-0.2,3.2-0.7c0.9-0.4,1.6-1,2-1.8c0.5-0.7,0.7-1.5,0.7-2.4c0-0.8-0.2-1.5-0.6-2.1
				c-0.4-0.6-0.9-1-1.5-1.4s-1.4-0.7-2.4-1.2c-1.1-0.5-1.9-0.9-2.5-1.3c-0.5-0.4-0.8-0.9-0.8-1.5s0.3-1.2,0.8-1.7s1.3-0.7,2.2-0.7
				c0.6,0,1.2,0.1,1.7,0.3s1.1,0.6,1.7,1.1l0.4-0.1l0.4-2.4C-154.9,243.8-156.3,243.5-157.6,243.5 M-178,245.7h2.5
				c1.2,0,2,0.3,2.6,0.8s0.9,1.2,0.9,2.2c0,1.8-1,3-2.9,3.6l-3.1-0.1V245.7z M-172.9,253.5c1.1-0.5,1.9-1.2,2.6-2.1
				c0.6-0.9,0.9-1.9,0.9-3c0-1.5-0.5-2.7-1.4-3.5c-0.9-0.8-2.3-1.2-4-1.2h-5.6l0.1,11.5l-0.1,4.9h2.4l-0.1-5.1v-0.8h3.1
				c0.9,1.5,2.1,3.4,3.8,6l0.4,0.3c0.6,0,1.3-0.2,2.3-0.5v-0.3C-170.1,257.5-171.6,255.5-172.9,253.5 M-190.8,258.1h-3.2V255v-2.2
				h3.1l3,0.1l0.2-1.9l-0.2-0.2l-2.9,0.1h-3.3v-5h3.4l4.1,0.1l0.2-1.9l-0.2-0.2h-10l0.1,11.5l-0.1,4.9h10l0.2-1.9l-0.2-0.2
				L-190.8,258.1z M-210.5,258.2c-0.5,0-1,0-1.7-0.1c-0.7,0-1.4-0.1-2-0.1v-3.1l0.1-9.2c1.4-0.1,2.7-0.1,3.8-0.1
				c1.8,0,3.2,0.5,4.1,1.5c0.9,1,1.3,2.6,1.3,4.7c0,2.2-0.5,3.8-1.4,4.8C-207.4,257.7-208.8,258.2-210.5,258.2 M-210.3,243.6
				l-6.4,0.1l0.1,11.5l-0.1,4.9c0.9,0,1.9,0.1,3,0.1c1.1,0,2,0,2.7,0c2.7,0,4.8-0.8,6.2-2.3c1.4-1.5,2.2-3.7,2.2-6.6
				c0-2.5-0.7-4.4-2-5.8C-205.9,244.2-207.8,243.6-210.3,243.6 M-232.2,245.7h2.5c1.2,0,2,0.3,2.6,0.8s0.9,1.2,0.9,2.2
				c0,1.8-1,3-2.9,3.6l-3.1-0.1V245.7z M-227.1,253.5c1.1-0.5,1.9-1.2,2.6-2.1c0.6-0.9,0.9-1.9,0.9-3c0-1.5-0.5-2.7-1.4-3.5
				c-0.9-0.8-2.3-1.2-4-1.2h-5.6l0.1,11.5l-0.1,4.9h2.4l-0.1-5.1v-0.8h3.1c0.9,1.5,2.1,3.4,3.8,6l0.4,0.3c0.6,0,1.4-0.2,2.3-0.5
				v-0.3C-224.3,257.5-225.8,255.5-227.1,253.5 M-247.8,253.9h-2.9l3-7.8h0.1l2.7,7.8H-247.8z M-246.2,243.7h-2.8l-6.3,16.4h2.4
				l0.5-1.9l0.9-2.3h3.5h3.9l0.9,2.4l0.4,1.8h2.5L-246.2,243.7z M-266.4,253.9h-2.9l3-7.8h0.2l2.7,7.8H-266.4z M-264.7,243.7h-2.8
				l-6.3,16.4h2.4l0.5-1.9l0.9-2.3h3.5h3.9l0.9,2.4l0.4,1.8h2.5L-264.7,243.7z M-276.2,243.7h-2.5l-0.4,1.9l-4.7,12.1h-0.2
				l-4.2-12.2l-0.4-1.8h-2.6l5.7,16.4h2.9L-276.2,243.7z M-294.9,243.7h-12l-0.2,2l0.2,0.2l3.1-0.2h1.6l0.1,9.4l-0.1,4.9h2.6
				l-0.1-5.1l0.1-9.2h1.6l3.1,0.2l0.2-2.1L-294.9,243.7z M-315.4,243.5c-1.2,0-2.2,0.2-3,0.6c-0.9,0.4-1.5,1-2,1.7s-0.7,1.5-0.7,2.4
				c0,0.8,0.2,1.5,0.6,2.1s0.9,1,1.5,1.4s1.4,0.7,2.3,1.2c1.1,0.5,2,1,2.5,1.4s0.8,0.9,0.8,1.6s-0.3,1.3-0.9,1.8
				c-0.6,0.5-1.4,0.7-2.3,0.7c-0.7,0-1.5-0.2-2.3-0.5c-0.8-0.3-1.5-0.8-2.2-1.4l-0.3,0.1l-0.3,2.6c0.7,0.4,1.5,0.7,2.4,0.8
				c0.8,0.2,1.7,0.3,2.4,0.3c1.2,0,2.3-0.2,3.2-0.7c0.9-0.4,1.6-1,2-1.8c0.5-0.7,0.7-1.5,0.7-2.4c0-0.8-0.2-1.5-0.6-2.1
				s-0.9-1-1.5-1.4s-1.4-0.7-2.4-1.2c-1.1-0.5-1.9-0.9-2.5-1.3c-0.5-0.4-0.8-0.9-0.8-1.5s0.3-1.2,0.8-1.7s1.3-0.7,2.2-0.7
				c0.6,0,1.2,0.1,1.7,0.3c0.5,0.2,1.1,0.6,1.7,1.1l0.4-0.1l0.4-2.4C-312.7,243.8-314.1,243.5-315.4,243.5 M-334,245.6
				c1.7,0,3,0.5,3.9,1.5c0.8,1,1.3,2.7,1.3,4.9c0,2.2-0.4,3.7-1.3,4.7s-2.2,1.5-3.9,1.5c-1.7,0-3-0.5-3.8-1.5c-0.8-1-1.3-2.7-1.3-5
				c0-2.1,0.4-3.7,1.3-4.7C-337,246.1-335.7,245.6-334,245.6 M-333.8,243.5c-2.5,0-4.5,0.7-5.9,2.2s-2.1,3.6-2.1,6.3
				c0,2.7,0.6,4.7,1.9,6.1c1.3,1.4,3.1,2.2,5.5,2.2c2.5,0,4.5-0.8,5.9-2.3s2.1-3.7,2.1-6.5c0-2.6-0.6-4.6-1.9-6
				C-329.5,244.2-331.4,243.5-333.8,243.5 M-354,245.6c1.7,0,3,0.5,3.9,1.5c0.8,1,1.3,2.7,1.3,4.9c0,2.2-0.4,3.7-1.3,4.7
				s-2.2,1.5-3.9,1.5c-1.7,0-3-0.5-3.8-1.5c-0.8-1-1.2-2.7-1.2-5c0-2.1,0.4-3.7,1.3-4.7C-357,246.1-355.7,245.6-354,245.6
				 M-353.8,243.5c-2.5,0-4.5,0.7-5.9,2.2s-2.1,3.6-2.1,6.3c0,2.7,0.6,4.7,1.9,6.1c1.3,1.4,3.1,2.2,5.5,2.2c2.5,0,4.5-0.8,5.9-2.3
				s2.1-3.7,2.1-6.5c0-2.6-0.6-4.6-1.9-6C-349.5,244.2-351.4,243.5-353.8,243.5"/>
		</g>
	</g>
</g>
</svg>
