<?xml version="1.0" encoding="UTF-8"?>
<svg id="Layer_2" data-name="Layer 2" xmlns="http://www.w3.org/2000/svg" width="195" height="42" viewBox="0 0 195 42">
  <defs>
    <style>
      .cls-1 {
        fill: #68b11e;
        stroke-width: 0px;
      }
    </style>
  </defs>
  <path class="cls-1" d="m105.68,21.63c-.18,0-.35.01-.51.03-.16.02-.3.06-.42.12-.12.06-.22.14-.29.25-.07.1-.1.23-.1.39,0,.3.1.51.31.63.2.12.48.18.84.18.19,0,.37,0,.55-.01.17,0,.31-.02.42-.04v-1.47c-.08-.02-.2-.03-.35-.05s-.3-.03-.43-.03Z"/>
  <path class="cls-1" d="m112.86,21.63c-.18,0-.35.01-.51.03-.16.02-.3.06-.42.12-.12.06-.22.14-.29.25-.07.1-.1.23-.1.39,0,.3.1.51.31.63.2.12.48.18.84.18.19,0,.37,0,.55-.01.17,0,.31-.02.42-.04v-1.47c-.08-.02-.2-.03-.35-.05s-.3-.03-.43-.03Z"/>
  <path class="cls-1" d="m124.36,21.63c-.18,0-.35.01-.51.03-.16.02-.3.06-.42.12-.12.06-.22.14-.29.25-.07.1-.1.23-.1.39,0,.3.1.51.31.63.2.12.48.18.84.18.19,0,.37,0,.55-.01.17,0,.31-.02.42-.04v-1.47c-.08-.02-.2-.03-.35-.05s-.3-.03-.43-.03Z"/>
  <path class="cls-1" d="m75.76,19.58c-.1-.12-.22-.22-.38-.3s-.34-.12-.57-.12-.4.04-.56.11c-.16.07-.29.17-.39.29-.1.12-.18.26-.24.42-.06.16-.1.32-.12.49h2.56c0-.16-.04-.32-.08-.48s-.12-.29-.22-.42Z"/>
  <path class="cls-1" d="m67.01,19.24c-.92,0-1.38.62-1.38,1.87,0,.6.13,1.08.4,1.44.27.36.67.55,1.2.55.17,0,.33,0,.48-.02.15-.01.27-.03.36-.04v-3.52c-.12-.08-.28-.14-.47-.19-.19-.05-.39-.08-.59-.08Z"/>
  <path class="cls-1" d="m20.44,17.95c-.2-.25-.46-.45-.75-.59-.3-.14-.64-.21-1.01-.21s-.72.07-1.01.21c-.29.14-.54.34-.75.6-.2.25-.36.56-.47.92s-.16.76-.16,1.19.05.84.16,1.2c.11.36.26.66.47.92s.45.45.75.59c.29.14.63.21,1.01.21s.71-.07,1.01-.21c.3-.14.55-.34.75-.59s.36-.56.47-.92c.11-.35.16-.75.16-1.2s-.05-.84-.16-1.2c-.11-.36-.26-.67-.47-.92Z"/>
  <path class="cls-1" d="m40.92,19.24c-.92,0-1.38.62-1.38,1.87,0,.6.13,1.08.4,1.44.27.36.67.55,1.2.55.17,0,.33,0,.48-.02.15-.01.27-.03.36-.04v-3.52c-.12-.08-.28-.14-.47-.19-.19-.05-.39-.08-.59-.08Z"/>
  <path class="cls-1" d="m49.67,19.58c-.1-.12-.23-.22-.38-.3-.15-.08-.34-.12-.57-.12s-.4.04-.56.11c-.16.07-.29.17-.39.29-.1.12-.18.26-.24.42-.06.16-.1.32-.12.49h2.56c0-.16-.04-.32-.08-.48-.05-.16-.12-.29-.22-.42Z"/>
  <path class="cls-1" d="m85.34,21.63c-.18,0-.35.01-.51.03-.16.02-.3.06-.42.12-.12.06-.22.14-.29.25-.07.1-.1.23-.1.39,0,.3.1.51.31.63.2.12.48.18.84.18.19,0,.37,0,.55-.01.17,0,.31-.02.42-.04v-1.47c-.08-.02-.2-.03-.35-.05s-.3-.03-.43-.03Z"/>
  <path class="cls-1" d="m171,21.63c-.18,0-.35.01-.51.03-.16.02-.3.06-.42.12-.12.06-.22.14-.29.25-.07.1-.1.23-.1.39,0,.3.1.51.31.63.2.12.48.18.84.18.19,0,.37,0,.55-.01.17,0,.31-.02.42-.04v-1.47c-.08-.02-.2-.03-.35-.05s-.3-.03-.43-.03Z"/>
  <path class="cls-1" d="m0,0v42h182.58c6.86,0,12.42-5.56,12.42-12.42V0H0Zm22.82,22.11c-.23.58-.54,1.08-.94,1.47-.4.39-.87.69-1.42.89-.55.2-1.14.3-1.77.3s-1.2-.1-1.74-.3-1.02-.5-1.43-.89c-.41-.39-.73-.88-.96-1.47s-.35-1.26-.35-2.03.12-1.45.36-2.04c.24-.58.57-1.08.98-1.48.41-.4.89-.7,1.43-.9s1.11-.3,1.71-.3,1.2.1,1.74.3,1.02.5,1.43.9c.41.4.73.89.96,1.48s.35,1.26.35,2.04-.12,1.45-.34,2.03Zm7.81,2.48h-1.94v-3.63c0-.62-.08-1.07-.25-1.33s-.47-.39-.92-.39c-.14,0-.29,0-.44.02-.16.01-.29.03-.42.04v5.28h-1.94v-6.6c.33-.1.75-.18,1.27-.27.52-.08,1.07-.12,1.64-.12s1.06.08,1.45.23.69.37.92.64c.23.28.39.61.48.99.1.38.14.81.14,1.27v3.86Zm5.45.05c-.29.07-.64.1-1.05.1-.53,0-.97-.07-1.31-.21-.35-.14-.62-.34-.83-.6s-.35-.57-.44-.93c-.08-.36-.12-.77-.12-1.21v-5.75l1.94-.31v2.01h2.33v1.61h-2.33v2.4c0,.41.07.73.21.98.14.24.43.36.86.36.21,0,.42-.02.64-.06.22-.04.42-.09.6-.16l.27,1.51c-.23.1-.49.18-.78.25Zm7.85-.27c-.17.05-.37.1-.6.15-.23.05-.46.09-.71.12-.25.04-.5.06-.75.08-.26.02-.5.03-.73.03-.56,0-1.07-.08-1.51-.25-.44-.16-.81-.4-1.12-.71s-.54-.68-.7-1.12c-.16-.44-.24-.93-.24-1.48s.07-1.05.21-1.5c.14-.45.34-.83.6-1.14.26-.31.58-.55.96-.72.38-.16.81-.25,1.29-.25.27,0,.51.03.72.08.21.05.43.13.64.22v-3.09l1.94-.31v9.87Zm7.9-2.92c0,.13-.02.25-.03.36h-4.39c.04.4.23.71.56.95.33.23.77.35,1.33.35.36,0,.7-.03,1.05-.1.34-.07.62-.15.84-.24l.26,1.57c-.1.05-.24.1-.42.16s-.37.1-.58.14-.44.07-.68.1c-.24.03-.49.04-.73.04-.62,0-1.15-.09-1.61-.27-.45-.18-.83-.43-1.13-.75-.3-.32-.52-.69-.66-1.12-.14-.43-.21-.9-.21-1.4,0-.61.09-1.14.28-1.59.19-.45.43-.83.73-1.14.3-.3.65-.53,1.05-.69.39-.16.8-.23,1.22-.23.97,0,1.74.3,2.3.89.56.59.84,1.47.84,2.62,0,.11,0,.24-.01.37Zm5.77,3.14c-.14-.23-.3-.48-.47-.75-.18-.27-.37-.55-.56-.82-.2-.27-.41-.54-.63-.79-.22-.25-.44-.46-.66-.64v3h-1.94v-9.78l1.94-.31v5.71c.19-.21.39-.42.59-.65.2-.22.4-.45.59-.67s.37-.43.54-.63c.17-.2.31-.37.44-.52h2.3c-.46.53-.91,1.03-1.35,1.51-.44.48-.92.98-1.44,1.49.26.23.53.51.81.84.28.33.55.66.81,1.01.26.35.5.69.71,1.04.22.35.4.66.55.95h-2.23Zm12.42-.22c-.17.05-.37.1-.6.15-.23.05-.46.09-.71.12-.25.04-.5.06-.75.08-.26.02-.5.03-.73.03-.56,0-1.07-.08-1.51-.25-.44-.16-.81-.4-1.12-.71s-.54-.68-.7-1.12c-.16-.44-.24-.93-.24-1.48s.07-1.05.21-1.5c.14-.45.34-.83.6-1.14.26-.31.58-.55.96-.72.38-.16.81-.25,1.29-.25.27,0,.51.03.72.08.21.05.43.13.64.22v-3.09l1.94-.31v9.87Zm7.9-2.92c0,.13-.02.25-.03.36h-4.39c.04.4.23.71.56.95.33.23.77.35,1.33.35.36,0,.71-.03,1.05-.1.34-.07.62-.15.84-.24l.26,1.57c-.1.05-.24.1-.41.16-.17.05-.37.1-.58.14-.21.04-.44.07-.68.1-.24.03-.49.04-.73.04-.62,0-1.15-.09-1.61-.27-.46-.18-.83-.43-1.13-.75-.3-.32-.52-.69-.66-1.12-.14-.43-.21-.9-.21-1.4,0-.61.09-1.14.28-1.59.19-.45.43-.83.73-1.14.3-.3.65-.53,1.05-.69s.8-.23,1.21-.23c.97,0,1.74.3,2.3.89.56.59.85,1.47.85,2.62,0,.11,0,.24-.01.37Zm10.06,2.94c-.28.06-.66.13-1.16.21-.49.08-1.09.12-1.79.12-.44,0-.84-.04-1.2-.12-.36-.08-.67-.21-.93-.38-.26-.18-.46-.41-.6-.7s-.21-.64-.21-1.05.08-.74.24-1.01.38-.5.64-.66c.27-.16.58-.28.92-.36.35-.07.71-.11,1.08-.11.25,0,.47.01.67.03.19.02.35.05.47.08v-.18c0-.33-.1-.59-.3-.79s-.55-.3-1.04-.3c-.33,0-.66.02-.98.07-.32.05-.6.12-.83.2l-.25-1.56c.11-.03.25-.07.42-.11s.35-.07.55-.1c.2-.03.41-.06.63-.08.22-.02.44-.03.67-.03.57,0,1.05.06,1.43.19.38.13.69.32.92.56.23.24.39.54.49.88.09.35.14.73.14,1.16v4.03Zm6.08-6.64v1.61h-2.39v5.23h-1.94v-7.2c0-.88.25-1.59.75-2.11.5-.52,1.24-.78,2.22-.78.36,0,.7.04,1,.11.3.07.54.15.7.21l-.38,1.55c-.17-.08-.36-.14-.57-.18-.2-.04-.39-.06-.57-.06-.23,0-.43.03-.59.1s-.29.15-.38.27-.16.25-.2.4c-.04.16-.06.32-.06.51v.34h2.39Zm7.06,6.84h-1.94v-3.63c0-.62-.08-1.07-.24-1.33-.16-.26-.46-.39-.89-.39-.17,0-.34.01-.49.04-.15.03-.29.06-.41.1v5.2h-1.94v-9.78l1.94-.31v3.28c.13-.04.3-.08.5-.12.2-.04.4-.06.59-.06.55,0,1.02.08,1.38.23s.66.37.88.64c.22.28.38.61.47.99.09.38.14.81.14,1.27v3.86Zm7.19-.2c-.28.06-.66.13-1.16.21-.49.08-1.09.12-1.79.12-.44,0-.84-.04-1.2-.12-.36-.08-.67-.21-.93-.38-.26-.18-.46-.41-.6-.7s-.21-.64-.21-1.05.08-.74.24-1.01.38-.5.64-.66c.27-.16.58-.28.92-.36.35-.07.71-.11,1.08-.11.25,0,.47.01.67.03.19.02.35.05.47.08v-.18c0-.33-.1-.59-.3-.79s-.55-.3-1.04-.3c-.33,0-.66.02-.98.07-.32.05-.6.12-.83.2l-.25-1.56c.11-.03.25-.07.42-.11s.35-.07.55-.1c.2-.03.41-.06.63-.08.22-.02.44-.03.67-.03.57,0,1.05.06,1.43.19.38.13.69.32.92.56.23.24.39.54.49.88.09.35.14.73.14,1.16v4.03Zm7.19,0c-.28.06-.66.13-1.16.21-.49.08-1.09.12-1.79.12-.44,0-.84-.04-1.2-.12-.36-.08-.67-.21-.93-.38-.26-.18-.46-.41-.6-.7s-.21-.64-.21-1.05.08-.74.24-1.01.38-.5.64-.66c.27-.16.58-.28.92-.36.35-.07.71-.11,1.08-.11.25,0,.47.01.67.03.19.02.35.05.47.08v-.18c0-.33-.1-.59-.3-.79s-.55-.3-1.04-.3c-.33,0-.66.02-.98.07-.32.05-.6.12-.83.2l-.25-1.56c.11-.03.25-.07.42-.11s.35-.07.55-.1c.2-.03.41-.06.63-.08.22-.02.44-.03.67-.03.57,0,1.05.06,1.43.19.38.13.69.32.92.56.23.24.39.54.49.88.09.35.14.73.14,1.16v4.03Zm4.48.33c-.56,0-1.02-.07-1.37-.18s-.63-.27-.83-.47-.34-.45-.42-.74c-.07-.29-.11-.62-.11-.98v-7.53l1.94-.31v7.45c0,.17.01.33.04.47.03.14.08.26.15.35.07.1.18.17.32.23s.33.1.56.12l-.27,1.6Zm7.01-.33c-.28.06-.66.13-1.16.21-.49.08-1.09.12-1.79.12-.44,0-.84-.04-1.2-.12-.36-.08-.67-.21-.93-.38-.26-.18-.46-.41-.6-.7s-.21-.64-.21-1.05.08-.74.24-1.01.38-.5.64-.66c.27-.16.58-.28.92-.36.35-.07.71-.11,1.08-.11.25,0,.47.01.67.03.19.02.35.05.47.08v-.18c0-.33-.1-.59-.3-.79s-.55-.3-1.04-.3c-.33,0-.66.02-.98.07-.32.05-.6.12-.83.2l-.25-1.56c.11-.03.25-.07.42-.11s.35-.07.55-.1c.2-.03.41-.06.63-.08.22-.02.44-.03.67-.03.57,0,1.05.06,1.43.19.38.13.69.32.92.56.23.24.39.54.49.88.09.35.14.73.14,1.16v4.03Zm7.59-.04c-.33.1-.75.18-1.27.27-.52.08-1.07.12-1.64.12s-1.06-.08-1.45-.23-.69-.38-.92-.66-.39-.62-.48-1.01c-.1-.39-.14-.82-.14-1.29v-3.81h1.94v3.58c0,.62.08,1.07.25,1.35.16.28.47.42.92.42.14,0,.29,0,.44-.02.16-.01.29-.03.42-.04v-5.28h1.94v6.6Zm5.51.29c-.29.07-.64.1-1.05.1-.53,0-.97-.07-1.31-.21-.35-.14-.62-.34-.83-.6s-.35-.57-.44-.93c-.08-.36-.12-.77-.12-1.21v-5.75l1.94-.31v2.01h2.33v1.61h-2.33v2.4c0,.41.07.73.21.98.14.24.43.36.87.36.21,0,.42-.02.64-.06.22-.04.42-.09.6-.16l.27,1.51c-.23.1-.49.18-.78.25Zm7.98-2.01c-.16.45-.38.83-.68,1.14-.29.32-.65.56-1.06.73-.41.17-.87.26-1.38.26s-.96-.09-1.37-.26c-.41-.17-.76-.42-1.06-.73-.29-.32-.53-.7-.69-1.14-.17-.45-.25-.94-.25-1.48s.08-1.03.25-1.47c.17-.44.4-.82.7-1.13.3-.31.65-.55,1.07-.73.41-.17.86-.26,1.35-.26s.95.09,1.36.26c.41.17.76.42,1.06.73.29.31.52.69.69,1.13.17.44.25.93.25,1.47s-.08,1.03-.23,1.48Zm11.18,1.96h-1.94v-3.63c0-.62-.08-1.07-.24-1.33s-.44-.39-.83-.39c-.1,0-.25.03-.44.08-.19.05-.34.12-.46.19.06.2.1.41.12.63s.03.46.03.71v3.73h-1.94v-3.63c0-.62-.08-1.07-.24-1.33-.16-.26-.44-.39-.83-.39-.12,0-.25,0-.38.02-.13.01-.25.03-.38.04v5.28h-1.94v-6.6c.16-.04.36-.09.58-.14.22-.05.46-.09.7-.13s.5-.07.76-.09c.26-.02.52-.03.77-.03.49,0,.89.06,1.2.19.31.13.56.28.76.45.28-.2.6-.35.96-.47.36-.11.69-.17.99-.17.55,0,1,.08,1.35.23s.63.37.84.64.35.61.43.99c.08.38.12.81.12,1.27v3.86Zm7.19-.2c-.28.06-.66.13-1.16.21-.49.08-1.09.12-1.79.12-.44,0-.84-.04-1.2-.12-.36-.08-.67-.21-.93-.38-.26-.18-.46-.41-.6-.7s-.21-.64-.21-1.05.08-.74.24-1.01.38-.5.64-.66c.27-.16.58-.28.92-.36.35-.07.71-.11,1.08-.11.25,0,.47.01.67.03.19.02.35.05.47.08v-.18c0-.33-.1-.59-.3-.79s-.55-.3-1.04-.3c-.33,0-.66.02-.98.07-.32.05-.6.12-.83.2l-.25-1.56c.11-.03.25-.07.42-.11s.35-.07.55-.1c.2-.03.41-.06.63-.08.22-.02.44-.03.67-.03.57,0,1.05.06,1.43.19.38.13.69.32.92.56.23.24.39.54.49.88.09.35.14.73.14,1.16v4.03Zm7.19,0c-.28.06-.66.13-1.16.21-.49.08-1.09.12-1.79.12-.44,0-.84-.04-1.2-.12-.36-.08-.67-.21-.93-.38-.26-.18-.46-.41-.6-.7s-.21-.64-.21-1.05.08-.74.24-1.01.38-.5.64-.66c.27-.16.58-.28.92-.36.35-.07.71-.11,1.08-.11.25,0,.47.01.67.03.19.02.35.05.47.08v-.18c0-.33-.1-.59-.3-.79s-.55-.3-1.04-.3c-.33,0-.66.02-.98.07-.32.05-.6.12-.83.2l-.25-1.56c.11-.03.25-.07.42-.11s.35-.07.55-.1c.2-.03.41-.06.63-.08.22-.02.44-.03.67-.03.57,0,1.05.06,1.43.19.38.13.69.32.92.56.23.24.39.54.49.88.09.35.14.73.14,1.16v4.03Zm5.45.25c-.29.07-.64.1-1.05.1-.53,0-.97-.07-1.31-.21-.35-.14-.62-.34-.83-.6s-.35-.57-.44-.93c-.08-.36-.12-.77-.12-1.21v-5.75l1.94-.31v2.01h2.33v1.61h-2.33v2.4c0,.41.07.73.21.98.14.24.43.36.87.36.21,0,.42-.02.64-.06.22-.04.42-.09.6-.16l.27,1.51c-.23.1-.49.18-.78.25Z"/>
  <path class="cls-1" d="m163.81,21.63c-.18,0-.35.01-.51.03-.16.02-.3.06-.42.12-.12.06-.22.14-.29.25-.07.1-.1.23-.1.39,0,.3.1.51.31.63.2.12.48.18.84.18.19,0,.37,0,.55-.01.17,0,.31-.02.42-.04v-1.47c-.08-.02-.2-.03-.35-.05s-.3-.03-.43-.03Z"/>
  <path class="cls-1" d="m144.96,19.23c-.44,0-.78.17-1.03.51-.24.34-.36.81-.36,1.41s.12,1.07.36,1.42c.24.35.58.53,1.03.53s.78-.17,1.02-.53c.24-.35.36-.83.36-1.42s-.12-1.07-.36-1.41c-.24-.34-.58-.51-1.02-.51Z"/>
</svg>