<svg width="279.635" height="102" viewBox="0 0 279.635 102" xmlns="http://www.w3.org/2000/svg"><path d="M53.917 15.774V6.52h4.045v9.254h-4.045zm6.448 0V6.52h4.045v9.254h-4.045zM70.33 7.14h4.325v21.7H70.33V7.14zm8.913-.62h4.045v12.648h1.426l4.232-5.348h4.96l-5.921 7.069 5.967 7.951h-4.975l-4.325-6.076H83.29v6.076h-4.045V6.52zm36.533 8.339l-1.364 3.147q-1.007-.497-2.31-.853-1.301-.356-2.48-.372-1.13 0-1.72.364-.589.364-.589 1 0 .589.605.845.604.256 1.844.442l1.333.201q5.069.775 5.069 4.495 0 2.34-1.83 3.72-1.828 1.38-5.068 1.38-4.185 0-6.68-1.768l1.596-3.069q2.217 1.473 5.115 1.473 2.775 0 2.775-1.41 0-.543-.59-.869-.588-.325-1.906-.511l-1.224-.17q-5.193-.713-5.193-4.558 0-2.309 1.682-3.611t4.658-1.302q3.363 0 6.277 1.426zm8.928-1.039h5.44v3.596h-5.44v5.488q0 1.332.612 1.945.613.612 1.636.612 1.209 0 2.82-.976l1.489 3.162q-2.31 1.58-4.976 1.58-2.774 0-4.2-1.534-1.426-1.535-1.426-4.464v-5.813h-2.899V13.82h2.899V9.357h4.045v4.463zm15.485-.402q3.24 0 5.262 2.185 2.023 2.185 2.038 5.704 0 .79-.077 1.364h-10.649q.31 1.566 1.333 2.34 1.023.776 2.527.776.976 0 1.984-.38 1.007-.38 1.813-1.062l2.372 2.604q-2.48 2.278-6.402 2.278-3.472 0-5.634-2.162-2.162-2.162-2.162-5.696 0-3.55 2.108-5.75 2.108-2.201 5.487-2.201zm-.031 3.487q-1.395 0-2.248.79-.852.791-1.131 2.217h6.65q-.28-1.441-1.125-2.224-.844-.783-2.146-.783zm20.692-3.085h4.03v8.619q0 1.72-.573 3.053-.574 1.333-1.574 2.131-1 .799-2.255 1.201-1.255.403-2.697.403-1.147 0-2.185-.247-1.039-.248-1.946-.783-.906-.535-1.565-1.318-.659-.783-1.039-1.922-.38-1.139-.38-2.518V13.82h4.046v8.262q0 1.72.837 2.55.837.829 2.232.829 1.395 0 2.232-.83.837-.829.837-2.549V13.82zm16.508-.402q2.573 0 4.208 1.627 1.635 1.627 1.635 4.231v9.564h-4.045v-8.262q0-1.611-.768-2.487-.767-.876-2.162-.876-1.38 0-2.278.884-.9.883-.9 2.51v8.231h-4.045V13.82h3.937v1.768q1.457-2.17 4.418-2.17zm23.978 0q2.79 0 4.418 1.968V6.52h4.03v22.32h-3.953v-1.659q-1.658 2.046-4.495 2.046-3.1 0-5.185-2.262-2.084-2.264-2.084-5.642 0-3.38 2.084-5.643 2.085-2.262 5.185-2.262zm.744 3.766q-1.736 0-2.805 1.186-1.07 1.185-1.07 2.953 0 1.767 1.07 2.952 1.07 1.186 2.805 1.186 1.72 0 2.798-1.17 1.077-1.17 1.077-2.968 0-1.799-1.077-2.969t-2.798-1.17zm18.616-3.767q3.24 0 5.262 2.186 2.023 2.185 2.038 5.704 0 .79-.077 1.364H217.27q.31 1.566 1.333 2.34 1.023.776 2.527.776.976 0 1.984-.38 1.007-.38 1.813-1.062l2.372 2.604q-2.48 2.278-6.402 2.278-3.472 0-5.634-2.162-2.162-2.162-2.162-5.696 0-3.55 2.108-5.75 2.108-2.201 5.487-2.201zm-.031 3.488q-1.395 0-2.248.79-.852.791-1.131 2.217h6.65q-.28-1.441-1.125-2.224-.844-.783-2.146-.783zM35.394 47.92h3.953v15.02h-3.953v-1.658q-1.658 2.046-4.495 2.046-3.1 0-5.185-2.264-2.084-2.263-2.084-5.642 0-3.378 2.084-5.641 2.085-2.264 5.185-2.264 2.821 0 4.495 2.062V47.92zm-3.75 3.364q-1.737 0-2.806 1.186-1.07 1.186-1.07 2.953t1.07 2.952q1.07 1.186 2.805 1.186 1.72 0 2.798-1.17 1.077-1.17 1.077-2.968 0-1.799-1.077-2.969t-2.798-1.17zm22.784-3.364h3.953v15.02h-3.953v-1.658q-1.658 2.046-4.495 2.046-3.1 0-5.185-2.264-2.084-2.263-2.084-5.642 0-3.378 2.084-5.641 2.085-2.264 5.185-2.264 2.821 0 4.495 2.062V47.92zm-3.75 3.364q-1.737 0-2.806 1.186-1.07 1.186-1.07 2.953t1.07 2.952q1.07 1.186 2.805 1.186 1.72 0 2.798-1.17 1.077-1.17 1.077-2.968 0-1.799-1.077-2.969t-2.798-1.17zm20.304-3.767q2.573 0 4.208 1.628 1.636 1.627 1.636 4.231v9.564H72.78v-8.261q0-1.613-.767-2.488-.767-.876-2.162-.876-1.38 0-2.279.884-.899.883-.899 2.51v8.231h-4.045V47.92h3.937v1.767q1.457-2.17 4.417-2.17zm18.399 0q3.115 0 5.2 2.264 2.085 2.263 2.085 5.642 0 3.378-2.085 5.642-2.085 2.263-5.185 2.263-2.774 0-4.417-1.954v7.766h-4.03V47.92H84.9v1.659q1.643-2.062 4.48-2.062zm-.744 3.767q-1.705 0-2.783 1.17-1.077 1.17-1.077 2.968 0 1.799 1.077 2.969 1.078 1.17 2.783 1.17 1.751 0 2.813-1.186 1.062-1.185 1.062-2.953 0-1.766-1.062-2.952t-2.813-1.186zm22.165-3.364h3.952v15.02h-3.952v-1.658q-1.659 2.046-4.495 2.046-3.1 0-5.185-2.264-2.085-2.263-2.085-5.642 0-3.378 2.085-5.641 2.085-2.264 5.185-2.264 2.82 0 4.495 2.062V47.92zm-3.751 3.364q-1.736 0-2.806 1.186t-1.07 2.953q0 1.767 1.07 2.952 1.07 1.186 2.806 1.186 1.72 0 2.797-1.17 1.078-1.17 1.078-2.968 0-1.799-1.078-2.969-1.077-1.17-2.797-1.17zM119 40.62h4.046v12.648h1.426l4.231-5.348h4.96l-5.92 7.069 5.967 7.951h-4.976l-4.324-6.076h-1.364v6.076H119V40.62zm16.973 0h4.045v12.648h1.426l4.232-5.348h4.96l-5.921 7.069 5.967 7.951h-4.975l-4.325-6.076h-1.364v6.076h-4.045V40.62zm22.893 6.898q3.24 0 5.262 2.185 2.023 2.185 2.039 5.704 0 .79-.078 1.364h-10.648q.31 1.566 1.333 2.34 1.023.776 2.526.776.977 0 1.984-.38 1.008-.38 1.814-1.062l2.371 2.604q-2.48 2.279-6.401 2.279-3.472 0-5.635-2.163-2.162-2.162-2.162-5.696 0-3.55 2.108-5.75 2.108-2.202 5.487-2.202zm-.03 3.487q-1.396 0-2.248.79-.853.791-1.132 2.217h6.65q-.28-1.441-1.124-2.224-.845-.783-2.147-.783zm18.785-3.488q1.21 0 2.108.326l-.604 4.014q-1.085-.48-2.45-.48-1.44 0-2.301.876-.86.876-.86 2.503v8.184h-4.046V47.92h3.922v1.643q1.364-2.046 4.231-2.046zm16.694 1.442l-1.364 3.146q-1.008-.495-2.31-.852-1.302-.356-2.48-.372-1.131 0-1.72.364-.59.364-.59 1 0 .589.605.845.605.255 1.845.441l1.333.202q5.068.775 5.068 4.495 0 2.34-1.829 3.72-1.829 1.38-5.068 1.38-4.185 0-6.68-1.768l1.596-3.069q2.216 1.473 5.115 1.473 2.774 0 2.774-1.41 0-.543-.589-.869-.589-.325-1.906-.511l-1.225-.17q-5.192-.713-5.192-4.557 0-2.31 1.681-3.612 1.682-1.302 4.658-1.302 3.364 0 6.278 1.426zm21.42-1.039H220l-5.874 15.02h-4.666l-5.936-15.02h4.402l3.89 10.758 3.922-10.758zm17.066 0h3.953v15.02h-3.953v-1.658q-1.658 2.046-4.495 2.046-3.1 0-5.185-2.264-2.084-2.263-2.084-5.642 0-3.378 2.084-5.641 2.085-2.264 5.185-2.264 2.821 0 4.495 2.062V47.92zm-3.75 3.364q-1.737 0-2.806 1.186-1.07 1.186-1.07 2.953t1.07 2.952q1.07 1.186 2.805 1.186 1.72 0 2.798-1.17 1.077-1.17 1.077-2.968 0-1.799-1.077-2.969t-2.798-1.17zm20.304-3.767q2.573 0 4.208 1.628 1.636 1.627 1.636 4.231v9.564h-4.046v-8.261q0-1.613-.767-2.488-.767-.876-2.162-.876-1.38 0-2.279.884-.899.883-.899 2.51v8.231h-4.045V47.92h3.937v1.767q1.457-2.17 4.417-2.17zM56.087 75.34h4.417l-6.479 21.7h-5.239l-4.65-15.5-4.65 15.5h-5.239l-6.479-21.7h4.495l4.666 16.647L41.78 75.34h4.79l4.851 16.647 4.666-16.647zm7.068 6.68H67.2v15.02h-4.045V82.02zm.17-6.765q.744-.752 1.83-.752 1.084 0 1.836.752t.752 1.852q0 1.085-.744 1.829t-1.845.744q-1.085 0-1.829-.744t-.744-1.829q0-1.1.744-1.852zm8.122-.535h4.046v22.32h-4.046V74.72zm14.632 6.898q2.79 0 4.418 1.968V74.72h4.03v22.32h-3.953v-1.659q-1.658 2.046-4.495 2.046-3.1 0-5.185-2.263-2.084-2.263-2.084-5.642 0-3.379 2.084-5.642 2.085-2.262 5.185-2.262zm.744 3.766q-1.736 0-2.805 1.186-1.07 1.186-1.07 2.953t1.07 2.952q1.07 1.186 2.805 1.186 1.72 0 2.798-1.17 1.077-1.17 1.077-2.969 0-1.797-1.077-2.968-1.077-1.17-2.798-1.17zm18.616-3.766q3.24 0 5.262 2.185 2.023 2.186 2.038 5.704 0 .79-.077 1.364h-10.649q.31 1.566 1.333 2.34 1.023.776 2.527.776.976 0 1.984-.38 1.007-.38 1.813-1.062l2.372 2.604q-2.48 2.278-6.402 2.278-3.472 0-5.634-2.162-2.162-2.162-2.162-5.696 0-3.55 2.108-5.75 2.108-2.201 5.487-2.201zm-.031 3.487q-1.395 0-2.248.79-.852.791-1.131 2.217h6.65q-.28-1.441-1.125-2.224-.844-.783-2.146-.783zm29.062-10.168q2.542 0 4.658.868 2.116.868 3.573 2.464l-3.116 3.054q-1.984-2.278-5.239-2.278-2.991 0-4.921 1.991-1.93 1.992-1.93 5.154 0 3.255 1.945 5.231 1.946 1.976 4.829 1.976 2.62 0 4.177-1.224 1.558-1.225 1.992-3.565h-5.518v-3.612h9.982q.062.559.062 1.225 0 3.24-1.364 5.805-1.364 2.565-3.782 3.983-2.418 1.418-5.456 1.418-1.798 0-3.488-.488t-3.108-1.457q-1.418-.969-2.487-2.302-1.07-1.333-1.667-3.138-.596-1.806-.596-3.852 0-2.418.86-4.518.86-2.1 2.364-3.573 1.503-1.473 3.634-2.317 2.132-.845 4.596-.845zm24.924 7.084h3.953V97.04h-3.953v-1.659q-1.658 2.046-4.495 2.046-3.1 0-5.185-2.263-2.084-2.263-2.084-5.642 0-3.379 2.084-5.642 2.085-2.262 5.185-2.262 2.821 0 4.495 2.061V82.02zm-3.75 3.363q-1.737 0-2.806 1.186-1.07 1.186-1.07 2.953t1.07 2.952q1.07 1.186 2.805 1.186 1.72 0 2.798-1.17 1.077-1.17 1.077-2.969 0-1.797-1.077-2.968-1.077-1.17-2.798-1.17zm20.304-3.766q2.573 0 4.208 1.627 1.636 1.627 1.636 4.231v9.564h-4.046v-8.262q0-1.612-.767-2.487-.767-.876-2.162-.876-1.38 0-2.279.883-.899.884-.899 2.511v8.231h-4.045V82.02h3.937v1.767q1.457-2.17 4.417-2.17zm9.595.403h12.71v2.96l-7.41 8.448h7.58v3.611H185.28v-2.914l7.58-8.51h-7.316V82.02zm22.847-.403q3.24 0 5.262 2.185 2.023 2.186 2.038 5.704 0 .79-.077 1.364h-10.649q.31 1.566 1.333 2.34 1.023.776 2.527.776.976 0 1.984-.38 1.007-.38 1.813-1.062l2.372 2.604q-2.48 2.278-6.402 2.278-3.472 0-5.634-2.162-2.162-2.162-2.162-5.696 0-3.55 2.108-5.75 2.108-2.201 5.487-2.201zm-.031 3.487q-1.395 0-2.248.79-.852.791-1.131 2.217h6.65q-.28-1.441-1.125-2.224-.844-.783-2.146-.783zm18.987-3.487q2.573 0 4.208 1.627 1.636 1.627 1.636 4.231v9.564h-4.046v-8.262q0-1.612-.767-2.487-.767-.876-2.162-.876-1.38 0-2.279.883-.899.884-.899 2.511v8.231h-4.045V82.02h3.937v1.767q1.457-2.17 4.417-2.17zm11.098 2.356V74.72h4.046v9.254h-4.046zm6.448 0V74.72h4.046v9.254h-4.046z"/></svg>