<svg width="133" height="22" viewBox="0 0 133 22" xmlns="http://www.w3.org/2000/svg"><path d="M5.984 17.28V6.08H10.6q2.632 0 4.224 1.536t1.592 4.064q0 2.528-1.592 4.064T10.6 17.28H5.984zm4.592-9.112h-2.36v7.024h2.36q1.712 0 2.608-.964.896-.964.896-2.548 0-1.6-.896-2.556t-2.608-.956zm11.4 1.152q1.808 0 3.004 1.164t1.196 2.916q0 1.752-1.196 2.916t-3.004 1.164q-1.8 0-2.992-1.164T17.792 13.4q0-1.752 1.192-2.916t2.992-1.164zm1.476 2.544q-.588-.6-1.476-.6t-1.472.6q-.584.6-.584 1.536t.584 1.536q.584.6 1.472.6t1.476-.6q.588-.6.588-1.536t-.588-1.536zM31.32 9.32q1.672 0 2.716 1.128 1.044 1.128 1.052 2.944 0 .408-.04.704h-5.496q.16.808.688 1.208.528.4 1.304.4.504 0 1.024-.196t.936-.548l1.224 1.344q-1.28 1.176-3.304 1.176-1.792 0-2.908-1.116-1.116-1.116-1.116-2.94 0-1.832 1.088-2.968T31.32 9.32zm-.016 1.8q-.72 0-1.16.408-.44.408-.584 1.144h3.432q-.144-.744-.58-1.148-.436-.404-1.108-.404zm9.48-1.592h2.088v8.488q0 1.248-.656 1.94t-1.752.692q-.696 0-1.176-.208l.312-1.832q.264.096.56.096.624 0 .624-.808V9.528zm.08-3.492q.384-.388.944-.388.56 0 .948.388.388.388.388.956 0 .56-.384.944-.384.384-.952.384t-.948-.384q-.38-.384-.38-.944 0-.568.384-.956zm7.64 3.284q1.672 0 2.716 1.128 1.044 1.128 1.052 2.944 0 .408-.04.704h-5.496q.16.808.688 1.208.528.4 1.304.4.504 0 1.024-.196t.936-.548l1.224 1.344q-1.28 1.176-3.304 1.176-1.792 0-2.908-1.116-1.116-1.116-1.116-2.94 0-1.832 1.088-2.968t2.832-1.136zm-.016 1.8q-.72 0-1.16.408-.44.408-.584 1.144h3.432q-.144-.744-.58-1.148-.436-.404-1.108-.404zm13.152-1.8q1.808 0 3.004 1.164T65.84 13.4q0 1.752-1.196 2.916T61.64 17.48q-1.8 0-2.992-1.164T57.456 13.4q0-1.752 1.192-2.916T61.64 9.32zm1.476 2.544q-.588-.6-1.476-.6t-1.472.6q-.584.6-.584 1.536t.584 1.536q.584.6 1.472.6t1.476-.6q.588-.6.588-1.536t-.588-1.536zm8.132-2.544q1.808 0 3.004 1.164t1.196 2.916q0 1.752-1.196 2.916t-3.004 1.164q-1.8 0-2.992-1.164T67.064 13.4q0-1.752 1.192-2.916t2.992-1.164zm1.476 2.544q-.588-.6-1.476-.6t-1.472.6q-.584.6-.584 1.536t.584 1.536q.584.6 1.472.6t1.476-.6q.588-.6.588-1.536t-.588-1.536zm4.428-6.104h2.088v6.528h.736l2.184-2.76h2.56l-3.056 3.648 3.08 4.104h-2.568l-2.232-3.136h-.704v3.136h-2.088V5.76zm22.096 3.56q1.368 0 2.212.836.844.836.844 2.188v4.936h-2.08v-4.264q0-.832-.4-1.284-.4-.452-1.112-.452-.712 0-1.176.456-.464.456-.464 1.296v4.248h-2.088v-4.264q0-.832-.396-1.284-.396-.452-1.116-.452-.712 0-1.176.456-.464.456-.464 1.296v4.248h-2.088V9.528h2.032v.912q.752-1.12 2.28-1.12.832 0 1.5.352t1.06.976q.808-1.328 2.632-1.328zm8.624 0q1.672 0 2.716 1.128 1.044 1.128 1.052 2.944 0 .408-.04.704h-5.496q.16.808.688 1.208.528.4 1.304.4.504 0 1.024-.196t.936-.548l1.224 1.344q-1.28 1.176-3.304 1.176-1.792 0-2.908-1.116-1.116-1.116-1.116-2.94 0-1.832 1.088-2.968t2.832-1.136zm-.016 1.8q-.72 0-1.16.408-.44.408-.584 1.144h3.432q-.144-.744-.58-1.148-.436-.404-1.108-.404zm8.928-1.8q1.672 0 2.716 1.128 1.044 1.128 1.052 2.944 0 .408-.04.704h-5.496q.16.808.688 1.208.528.4 1.304.4.504 0 1.024-.196t.936-.548l1.224 1.344q-1.28 1.176-3.304 1.176-1.792 0-2.908-1.116-1.116-1.116-1.116-2.94 0-1.832 1.088-2.968t2.832-1.136zm-.016 1.8q-.72 0-1.16.408-.44.408-.584 1.144h3.432q-.144-.744-.58-1.148-.436-.404-1.108-.404zm7.76 1.416l-.064.92h-1.928v-2.72h.768q1.16 0 1.768-.36.608-.36.608-1.064 0-.648-.604-.988-.604-.34-1.748-.34-.544 0-1.216.064l-.152-2.104q.728-.104 1.616-.104 2.08 0 3.244.892 1.164.892 1.164 2.42 0 1.384-.892 2.252-.892.868-2.564 1.132zm-1.024 1.896q.608 0 1.06.452.452.452.452 1.06 0 .616-.452 1.076-.452.46-1.06.46-.616 0-1.072-.46-.456-.46-.456-1.068 0-.616.456-1.068.456-.452 1.072-.452z"/></svg>