<svg xmlns="http://www.w3.org/2000/svg" viewBox="0 0 157.41 39.35" width="100%" height="100%" preserveAspectRatio="none"><g id="Laag_2"><g id="Layer_1"><path d="M100.76,13.33c-.57-1.19-.35-1.73-2-3.62a5.07,5.07,0,0,0-3.49-1.92,8.86,8.86,0,0,1,5.4-4,7,7,0,0,0,1.07-.06,2.94,2.94,0,0,0,1-.54l.71-.19a1.93,1.93,0,0,0,.66-.25c.11-.1-.16-.23-.55-.18a8.19,8.19,0,0,1-1.23,0c-.1,0-.66-.11-.66-.11a1.87,1.87,0,0,0-.88,0A2.42,2.42,0,0,0,100,3a1.89,1.89,0,0,1-.77.51,61.76,61.76,0,0,0-6.15,2.41S91.37,3.12,90,2.4a8.47,8.47,0,0,0-3.46-.65A18.8,18.8,0,0,1,79.28,0a8.08,8.08,0,0,0,4.39,5.65c1.06.52,3.34,1.81,4,2.78s-.29,2.31-.64,2.68a5.73,5.73,0,0,1-1.53,1c-.31.11-1.77.4-1.83.82s.32.58,1.22.84,1.14.06,1.14.06a15,15,0,0,1,5.94-2.61c.65.1,3,2.44,3,2.44,3.14,2.51,8.38,2.73,8.38,2.73a9.37,9.37,0,0,1-2.52-3.08" fill="#0389e6" data-color-group="0"/><path d="M121.08,9.46a6.75,6.75,0,0,0-1.4-2.57,3.6,3.6,0,0,0-2.48-1.36A6.27,6.27,0,0,1,121,2.68c.19-.05.36.06.76,0a2.09,2.09,0,0,0,.74-.38l.5-.14A1.62,1.62,0,0,0,123.5,2c.08-.08-.12-.17-.39-.14a6.5,6.5,0,0,1-.87,0l-.47-.08a1.22,1.22,0,0,0-.63,0,1.73,1.73,0,0,0-.61.36,1.29,1.29,0,0,1-.55.36,45,45,0,0,0-4.36,1.71,8.63,8.63,0,0,0-2.17-2.49A6,6,0,0,0,111,1.24,13.27,13.27,0,0,1,105.84,0,5.72,5.72,0,0,0,109,4a9.29,9.29,0,0,1,2.81,2c.44.68-.2,1.64-.45,1.9a4.07,4.07,0,0,1-1.09.73c-.22.07-1.26.28-1.3.58s.23.41.87.59.81.05.81.05A10.67,10.67,0,0,1,114.82,8a10.6,10.6,0,0,1,2.1,1.74c2.23,1.78,6,1.93,6,1.93a6.7,6.7,0,0,1-1.79-2.18" fill="#0389e6" data-color-group="0"/><path d="M124.16,35.93c-.55-1.18-.34-1.72-1.9-3.62a4.8,4.8,0,0,0-3.33-1.93,8.39,8.39,0,0,1,5.12-4c.25-.07.47.08,1-.05a2.7,2.7,0,0,0,1-.53l.68-.19a1.89,1.89,0,0,0,.62-.24c.1-.1-.16-.23-.52-.19a7.39,7.39,0,0,1-1.17,0c-.1,0-.63-.11-.63-.11a1.6,1.6,0,0,0-.84,0,2.2,2.2,0,0,0-.81.5,1.79,1.79,0,0,1-.74.51,56.41,56.41,0,0,0-5.83,2.36s-1.63-2.79-2.94-3.52a7.64,7.64,0,0,0-3.3-.66,17.46,17.46,0,0,1-6.91-1.79,8.14,8.14,0,0,0,4.21,5.65c1,.52,3.18,1.82,3.78,2.79s-.25,2.3-.58,2.66a5.43,5.43,0,0,1-1.46,1c-.29.11-1.68.38-1.74.81s.32.58,1.18.84,1.08.06,1.08.06a13.81,13.81,0,0,1,5.64-2.56c.61.1,2.83,2.44,2.83,2.44,3,2.52,8,2.77,8,2.77a9.48,9.48,0,0,1-2.42-3.08" fill="#0389e6" data-color-group="0"/><path d="M137.15,7.2a5.14,5.14,0,0,0-1.07-2,2.73,2.73,0,0,0-1.88-1,4.8,4.8,0,0,1,2.91-2.16,5.05,5.05,0,0,0,.58,0,1.66,1.66,0,0,0,.56-.29l.38-.11a.92.92,0,0,0,.35-.13c.06-.05-.08-.12-.29-.1a3.52,3.52,0,0,1-.66,0l-.36,0a.93.93,0,0,0-.47,0,1.23,1.23,0,0,0-.47.27,1,1,0,0,1-.41.28A31.44,31.44,0,0,0,133,3.21a6.74,6.74,0,0,0-1.66-1.9A4.57,4.57,0,0,0,129.49,1,10.11,10.11,0,0,1,125.58,0a4.35,4.35,0,0,0,2.37,3,7.07,7.07,0,0,1,2.13,1.5c.34.51-.15,1.24-.34,1.44a3.13,3.13,0,0,1-.83.55c-.16.06-1,.21-1,.44s.17.31.66.45.61,0,.61,0a8,8,0,0,1,3.2-1.4c.35,0,1.59,1.31,1.59,1.31a9,9,0,0,0,4.52,1.47,5,5,0,0,1-1.36-1.65" fill="#e51232" data-color-group="1"/><path d="M131.36,21.1A6.31,6.31,0,0,0,130,18.64a3.5,3.5,0,0,0-2.37-1.3,6,6,0,0,1,3.66-2.71,6,6,0,0,0,.73,0,2,2,0,0,0,.7-.37l.48-.13a1.34,1.34,0,0,0,.45-.16c.07-.07-.11-.16-.37-.13a4.58,4.58,0,0,1-.84,0l-.45-.07a1.18,1.18,0,0,0-.59,0,1.68,1.68,0,0,0-.59.35,1.13,1.13,0,0,1-.52.34,42,42,0,0,0-4.16,1.64,8.45,8.45,0,0,0-2.08-2.38,5.68,5.68,0,0,0-2.35-.45,12.6,12.6,0,0,1-4.92-1.18,5.42,5.42,0,0,0,3,3.82,8.6,8.6,0,0,1,2.68,1.89c.43.65-.19,1.56-.43,1.82a3.9,3.9,0,0,1-1,.69c-.21.07-1.2.27-1.24.55s.22.4.83.57.77,0,.77,0a10.25,10.25,0,0,1,4-1.77c.44.07,2,1.66,2,1.66,2.12,1.7,5.68,1.85,5.68,1.85a6.43,6.43,0,0,1-1.72-2.09" fill="#0389e6" data-color-group="0"/><polygon points="19.89 16.5 15.92 16.5 12.4 4.76 8.88 16.5 4.91 16.5 0 0.07 3.4 0.07 6.94 12.68 10.61 0.07 14.24 0.07 17.92 12.68 21.45 0.07 24.8 0.07 19.89 16.5" fill="#0389e6" data-color-group="0"/><rect x="26.12" y="0.07" width="3.28" height="16.44" fill="#0389e6" data-color-group="0"/><polygon points="44.16 16.5 32.19 16.5 32.19 0.07 35.47 0.07 35.47 13.44 44.16 13.44 44.16 16.5" fill="#0389e6" data-color-group="0"/><path d="M52.23.07c5.14,0,8.54,3.26,8.54,8.21s-3.4,8.22-8.54,8.22H45.46V.07Zm-3.5,3.06V13.44H52.2c3.46,0,5.14-2.17,5.14-5.16S55.66,3.13,52.2,3.13Z" fill="#0389e6" data-color-group="0"/><polygon points="75.06 16.5 62.77 16.5 62.77 0.07 74.96 0.07 74.96 3.07 66.05 3.07 66.05 6.71 74.55 6.71 74.55 9.72 66.05 9.72 66.05 13.5 75.06 13.5 75.06 16.5" fill="#0389e6" data-color-group="0"/><path d="M15.59,24.84l-2.36,2.31a5.14,5.14,0,0,0-4-1.72,5.1,5.1,0,0,0-5.19,5.41A5.09,5.09,0,0,0,9.2,36.3c2.68,0,4.24-1.29,4.68-3.63H9.7V29.94h7.56a7.19,7.19,0,0,1,0,.92c0,5-3.37,8.49-8,8.49a8.29,8.29,0,0,1-8.6-8.51,8.29,8.29,0,0,1,8.68-8.52,8.28,8.28,0,0,1,6.23,2.52" fill="#0389e6" data-color-group="0"/><path d="M34.65,39.06h-3.5l-1.43-3.83h-7l-1.44,3.83H17.86l6.4-16.44h4ZM23.83,32.22h4.76l-2.37-6.36Z" fill="#0389e6" data-color-group="0"/><polygon points="51.44 39.06 48.36 39.06 40.02 28.08 40.01 39.06 36.73 39.06 36.73 22.62 39.8 22.62 48.15 33.6 48.15 22.62 51.44 22.62 51.44 39.06" fill="#0389e6" data-color-group="0"/><polygon points="67.28 25.18 58.75 36.04 67.28 36.04 67.28 39.06 54.39 39.06 54.39 36.5 62.93 25.64 54.41 25.64 54.41 22.62 67.28 22.62 67.28 25.18" fill="#0389e6" data-color-group="0"/><polygon points="82.52 39.06 70.24 39.06 70.24 22.62 82.43 22.62 82.43 25.63 73.52 25.63 73.52 29.27 82.02 29.27 82.02 32.27 73.52 32.27 73.52 36.05 82.52 36.05 82.52 39.06" fill="#0389e6" data-color-group="0"/><polygon points="100.55 39.06 97.48 39.06 89.14 28.08 89.13 39.06 85.85 39.06 85.85 22.62 88.92 22.62 97.27 33.6 97.27 22.62 100.55 22.62 100.55 39.06" fill="#0389e6" data-color-group="0"/><polygon points="157.41 0.94 149.97 0.94 135.24 39.32 142.67 39.32 157.41 0.94" fill="#d9d2c0" data-color-group="2"/></g></g></svg>