<svg width="162.121" height="33" viewBox="0 0 162.121 33" xmlns="http://www.w3.org/2000/svg"><path d="M39.93 11.7h2.138l-3.135 10.5h-2.535l-2.25-7.5-2.25 7.5h-2.535l-3.135-10.5h2.175l2.258 8.055 2.347-8.055h2.318l2.347 8.055 2.258-8.055zm6.068 3.038q1.695 0 2.816 1.09 1.122 1.092 1.122 2.735 0 1.642-1.122 2.733-1.12 1.091-2.816 1.091-1.687 0-2.805-1.09-1.117-1.092-1.117-2.735 0-1.642 1.117-2.733 1.118-1.091 2.805-1.091zm1.384 2.384q-.551-.562-1.384-.562-.832 0-1.38.563-.547.562-.547 1.44 0 .877.547 1.44.548.562 1.38.562.833 0 1.384-.563.551-.562.551-1.44 0-.877-.551-1.44zm8.096-2.384q.585 0 1.02.157l-.292 1.942q-.525-.232-1.185-.232-.698 0-1.114.424-.416.424-.416 1.211v3.96h-1.958v-7.268h1.898v.795q.66-.99 2.047-.99zm5.175 0q1.35 0 2.138.952V11.4h1.95v10.8h-1.913v-.802q-.802.99-2.175.99-1.5 0-2.509-1.096-1.008-1.095-1.008-2.73t1.008-2.73q1.01-1.095 2.51-1.095zm.36 1.822q-.84 0-1.357.574-.518.573-.518 1.428t.518 1.43q.517.573 1.357.573.833 0 1.354-.566.521-.566.521-1.436t-.521-1.437q-.521-.566-1.354-.566zm12.563-1.822q1.35 0 2.137.952V11.4h1.95v10.8h-1.912v-.802q-.803.99-2.175.99-1.5 0-2.509-1.096-1.009-1.095-1.009-2.73t1.009-2.73q1.009-1.095 2.509-1.095zm.36 1.822q-.84 0-1.358.574-.517.573-.517 1.428t.517 1.43q.518.573 1.358.573.832 0 1.353-.566.522-.566.522-1.436t-.522-1.437q-.52-.566-1.353-.566zm9.255-1.822q1.695 0 2.816 1.09 1.121 1.092 1.121 2.735 0 1.642-1.121 2.733-1.121 1.091-2.816 1.091-1.688 0-2.805-1.09-1.118-1.092-1.118-2.735 0-1.642 1.118-2.733 1.117-1.091 2.805-1.091zm1.383 2.384q-.55-.562-1.383-.562t-1.38.563q-.548.562-.548 1.44 0 .877.548 1.44.547.562 1.38.562.832 0 1.383-.563.552-.562.552-1.44 0-.877-.552-1.44zm8.194-2.384q1.245 0 2.036.787.792.787.792 2.048V22.2h-1.958v-3.997q0-.78-.371-1.204-.371-.424-1.046-.424-.668 0-1.103.428-.435.427-.435 1.215V22.2h-1.957v-7.268h1.905v.855q.705-1.05 2.137-1.05zm10.065.194h1.913V22.2h-1.913v-.802q-.802.99-2.175.99-1.5 0-2.509-1.096-1.008-1.095-1.008-2.73t1.008-2.73q1.01-1.095 2.51-1.095 1.364 0 2.174.998v-.803zm-1.815 1.628q-.84 0-1.357.574-.518.573-.518 1.428t.518 1.43q.517.573 1.357.573.833 0 1.354-.566.521-.566.521-1.436t-.521-1.437q-.521-.566-1.354-.566zm8.423-1.627h2.632v1.74h-2.632v2.655q0 .645.296.94.296.297.791.297.585 0 1.365-.473l.72 1.53q-1.117.765-2.407.765-1.343 0-2.033-.742t-.69-2.16v-2.813h-1.402v-1.74h1.402v-2.16h1.958v2.16zm7.492-.195q1.568 0 2.546 1.057.98 1.057.987 2.76 0 .383-.038.66h-5.152q.15.758.645 1.133t1.222.375q.473 0 .96-.184.488-.184.878-.514l1.147 1.26q-1.2 1.102-3.097 1.102-1.68 0-2.727-1.046-1.046-1.046-1.046-2.756 0-1.718 1.02-2.783 1.02-1.064 2.655-1.064zm-.015 1.687q-.675 0-1.087.383-.413.382-.548 1.072h3.218q-.135-.697-.544-1.076-.409-.379-1.039-.379zm10.013-1.493h1.95v4.17q0 .833-.278 1.478-.277.645-.761 1.031-.484.386-1.091.581-.608.195-1.305.195-.555 0-1.058-.12-.502-.12-.941-.378-.439-.259-.758-.638-.318-.379-.502-.93t-.184-1.219v-4.17h1.958v3.998q0 .832.405 1.234.405.401 1.08.401t1.08-.401q.405-.402.405-1.234v-3.998zm7.89-.194q.585 0 1.02.157l-.293 1.942q-.525-.232-1.185-.232-.697 0-1.114.424-.416.424-.416 1.211v3.96h-1.957v-7.268h1.897v.795q.66-.99 2.048-.99z" fill="#fff"/></svg>