<svg width="269.291" height="28" viewBox="0 0 269.291 28" xmlns="http://www.w3.org/2000/svg"><path d="M102.82 8.035h4.319V22.82h-2.946V11.657l-3.655 9.737h-3.115l-3.654-9.652V22.82h-2.947V8.035h4.32l3.844 9.98 3.834-9.98zm14.827 4.551h2.693V22.82h-2.693v-1.13q-1.13 1.394-3.063 1.394-2.112 0-3.532-1.542t-1.42-3.844q0-2.302 1.42-3.844 1.42-1.542 3.532-1.542 1.923 0 3.063 1.404v-1.13zm-2.556 2.292q-1.182 0-1.911.808-.729.808-.729 2.012t.729 2.012q.729.808 1.911.808 1.173 0 1.907-.798.734-.797.734-2.022 0-1.225-.734-2.022-.734-.798-1.907-.798zm13.698-2.566q.824 0 1.436.222l-.412 2.735q-.739-.327-1.668-.327-.982 0-1.569.596-.586.597-.586 1.706v5.576h-2.756V12.586h2.672v1.12q.93-1.394 2.883-1.394zm7.245.274h3.707v2.45h-3.707v3.74q0 .907.417 1.325.417.417 1.114.417.824 0 1.922-.666l1.014 2.155q-1.574 1.077-3.39 1.077-1.89 0-2.862-1.046-.972-1.045-.972-3.041v-3.96h-1.975v-2.45h1.975V9.544h2.757v3.041zm6.136 0h2.756V22.82h-2.756V12.586zm.116-4.61q.507-.512 1.246-.512.74 0 1.251.513.513.512.513 1.262 0 .739-.507 1.246t-1.257.507q-.74 0-1.246-.507-.507-.507-.507-1.246 0-.75.507-1.262zm5.576 4.61h2.756v11.206q0 1.647-.866 2.56-.866.914-2.313.914-.918 0-1.552-.274l.412-2.419q.348.127.74.127.823 0 .823-1.067V12.586zm.106-4.61q.506-.512 1.246-.512.739 0 1.251.513.512.512.512 1.262 0 .739-.507 1.246-.506.507-1.256.507t-1.252-.507q-.501-.507-.501-1.246 0-.75.507-1.262zm11.236 4.336q1.753 0 2.868 1.109 1.114 1.109 1.114 2.883v6.516h-2.757v-5.629q0-1.098-.522-1.695-.523-.597-1.474-.597-.94 0-1.552.602-.613.602-.613 1.711v5.608h-2.756V12.586h2.683v1.204q.992-1.478 3.01-1.478zm6.231 13.465l.708-6.294h3.094l-1.478 6.294h-2.324zm15.747-13.465q1.9 0 3.01 1.341v-6.04h2.745V22.82h-2.693v-1.13q-1.13 1.394-3.062 1.394-2.113 0-3.533-1.542t-1.42-3.844q0-2.302 1.42-3.844 1.42-1.542 3.533-1.542zm.507 2.566q-1.183 0-1.912.808-.729.808-.729 2.012t.729 2.012q.729.808 1.912.808 1.172 0 1.906-.798.734-.797.734-2.022 0-1.225-.734-2.022-.734-.798-1.906-.798zm13.032-2.566q2.387 0 3.965 1.536 1.58 1.537 1.58 3.85t-1.58 3.85q-1.578 1.536-3.965 1.536-2.376 0-3.95-1.537-1.574-1.536-1.574-3.849t1.574-3.85q1.574-1.536 3.95-1.536zm1.948 3.358q-.776-.792-1.948-.792-1.173 0-1.943.792-.771.792-.771 2.028t.77 2.028q.771.792 1.944.792 1.172 0 1.948-.792t.776-2.028q0-1.236-.776-2.028zm11.538-3.358q1.753 0 2.867 1.109 1.115 1.109 1.115 2.883v6.516h-2.757v-5.629q0-1.098-.523-1.695-.522-.597-1.473-.597-.94 0-1.552.602-.613.602-.613 1.711v5.608h-2.756V12.586h2.682v1.204q.993-1.478 3.01-1.478zm14.173.274h2.693V22.82h-2.693v-1.13q-1.13 1.394-3.063 1.394-2.112 0-3.532-1.542t-1.42-3.844q0-2.302 1.42-3.844 1.42-1.542 3.532-1.542 1.922 0 3.063 1.404v-1.13zm-2.556 2.292q-1.183 0-1.911.808-.73.808-.73 2.012t.73 2.012q.728.808 1.911.808 1.172 0 1.906-.798.734-.797.734-2.022 0-1.225-.734-2.022-.734-.798-1.906-.798zm11.86-2.292h3.707v2.45h-3.707v3.74q0 .907.417 1.325.417.417 1.114.417.824 0 1.922-.666l1.014 2.155q-1.573 1.077-3.39 1.077-1.89 0-2.862-1.046-.971-1.045-.971-3.041v-3.96h-1.975v-2.45h1.975V9.544h2.756v3.041zm10.55-.274q2.208 0 3.586 1.489 1.378 1.49 1.389 3.886 0 .539-.053.93H239.9q.212 1.066.909 1.594.697.528 1.721.528.665 0 1.352-.258.686-.259 1.235-.724l1.616 1.775q-1.69 1.552-4.361 1.552-2.366 0-3.84-1.473-1.473-1.473-1.473-3.881 0-2.419 1.437-3.918 1.436-1.5 3.738-1.5zm-.02 2.376q-.951 0-1.532.539-.581.538-.771 1.51h4.53q-.19-.982-.765-1.516-.576-.533-1.463-.533zm14.098-2.102h2.746v5.872q0 1.173-.39 2.08-.392.91-1.073 1.453-.681.544-1.536.818-.856.275-1.838.275-.782 0-1.49-.169-.707-.169-1.324-.533-.618-.365-1.067-.898-.449-.533-.708-1.31-.258-.776-.258-1.716v-5.872h2.756v5.63q0 1.172.57 1.737.57.565 1.521.565.95 0 1.52-.565.571-.565.571-1.738v-5.629zm11.11-.274q.824 0 1.436.222l-.411 2.735q-.74-.327-1.67-.327-.981 0-1.567.596-.586.597-.586 1.706v5.576h-2.757V12.586h2.672v1.12q.93-1.394 2.883-1.394z" fill="#FFF"/></svg>