<?xml version="1.0" encoding="utf-8"?>
<!-- Generator: Adobe Illustrator 27.8.1, SVG Export Plug-In . SVG Version: 6.00 Build 0)  -->
<svg version="1.1" id="Laag_1" xmlns="http://www.w3.org/2000/svg" xmlns:xlink="http://www.w3.org/1999/xlink" x="0px" y="0px"
	 viewBox="0 0 198.4252 99.2126" style="enable-background:new 0 0 198.4252 99.2126;" xml:space="preserve">
<style type="text/css">
	.st0{opacity:0.1;}
	.st1{fill:#FFFFFF;}
	.st2{fill:#CE1126;}
	.st3{fill:#006B54;}
</style>
<g>
	<g>
		<g>
			<g>
				<g>
					<g>
						<path class="st1" d="M95.6689,88.0378V11.0749h73.515c5.4011,0,9.7795,4.3784,9.7795,9.7795v57.4038
							c0,5.4011-4.3784,9.7795-9.7795,9.7795H95.6689z"/>
						<path class="st2" d="M169.1822,10.1753H96.5707v-0.0005H11.4768v78.7634h83.2924v0.0001h74.408
							c5.9017,0,10.686-4.7843,10.686-10.686v-57.396C179.8632,14.9573,175.0811,10.1753,169.1822,10.1753z M178.0631,78.2573
							c0,4.9048-3.9761,8.881-8.8809,8.881H96.5707v-75.163h72.6116c4.9048,0,8.8809,3.9761,8.8809,8.8809V78.2573z"/>
					</g>
				</g>
			</g>
		</g>
		<path class="st2" d="M137.4275,75.8574c6.3422,0,11.7609-2.1176,15.6703-6.1219c3.7781-3.8719,5.8594-9.3668,5.857-15.4723
			c-0.0023-9.2543-5.2887-24.0457-11.4551-28.1156c-1.3793-0.9105-2.775-0.607-3.1699-0.4922
			c-0.5033,0.1457-1.1906,0.5146-2.0018,1.0559c-2.0338-2.1817-2.7911-2.7382-3.172-2.9461
			c-1.2316-0.6762-2.3812-0.6773-3.6176-0.0012c-0.2121,0.1165-0.852,0.4822-3.1154,2.913
			c-0.7784-0.5111-1.4561-0.8703-1.9775-1.0216c-0.3973-0.1137-1.7965-0.4207-3.1723,0.4934
			c-5.5266,3.6598-11.4516,19.6324-11.4551,28.1145c-0.0023,6.1055,2.0789,11.6004,5.8582,15.4723
			c3.0984,3.1735,7.1555,5.1402,11.8582,5.8287c1.2632,0.1947,2.5224,0.2694,3.8121,0.2932H137.4275z M136.4033,25.3437
			c0.6961-0.382,1.1906-0.382,1.8891,0c0.1474,0.0811,0.7541,0.4996,2.5699,2.4343c-1.0465,0.8168-2.2195,1.8344-3.4682,3.0258
			c-1.2548-1.2042-2.4398-2.2411-3.5007-3.0663C135.7377,25.7686,136.3034,25.3984,136.4033,25.3437z M128.267,27.6488
			c0.7465-0.4945,1.5293-0.307,1.6769-0.2637c0.9434,0.2733,3.1904,1.8335,6.1664,4.6819
			c-7.3304,7.3921-16.2853,19.7904-15.723,30.1498c0.0791,1.4547,0.3516,2.8067,0.7805,4.0603
			c-2.3191-3.2971-3.5505-7.3858-3.5496-12.0138C117.6217,45.0042,123.9685,30.4964,128.267,27.6488z M151.81,68.4781
			c-3.5637,3.6504-8.5371,5.5793-14.3824,5.5793c-1.6612-0.0206-3.3161-0.1531-4.9333-0.503
			c-6.2206-1.3563-9.9829-5.4168-10.3093-11.436c-0.7734-14.25,18.3293-33.4852,22.6453-34.7332
			c0.4552-0.1293,1.1315-0.1053,1.6781,0.2648c5.1715,3.4125,10.6441,17.093,10.6465,26.6133
			C157.156,59.9785,155.308,64.8933,151.81,68.4781z"/>
	</g>
	<g>
		<g>
			<g>
				<path class="st1" d="M44.8968,30.8928H27.9806v-6.1531h25.4576v5.2665L38.0193,60.7686h-8.0968L44.8968,30.8928z"/>
			</g>
			<g>
				<path class="st1" d="M55.0978,56.0568l4.7148-4.434c1.8295,2.3278,4.2702,3.6026,6.8775,3.6026
					c3.5496,0,5.8789-2.2165,5.8789-5.5423c0-3.1593-2.4959-5.3217-6.2121-5.3217h-8.43V24.7397h20.1879v6.0418h-13.477v7.5943
					h2.8281c7.4877,0,12.5909,4.5443,12.5909,11.2521c0,7.0387-5.2698,11.8057-13.201,11.8057
					C61.92,61.4336,57.4822,59.3826,55.0978,56.0568z"/>
			</g>
		</g>
		<g>
			<g>
				<path class="st1" d="M34.3302,71.0789v3.6352h-2.073v-3.6352l-3.225-4.9436h2.509l1.8316,3.1746l1.8305-3.1746h2.4246
					L34.3302,71.0789z"/>
				<path class="st1" d="M40.8774,74.714v-8.5787h5.7715v1.7449h-3.7711v1.6236h3.5648v1.66h-3.5648v1.7812h3.9891v1.7689H40.8774z"
					/>
				<path class="st1" d="M56.6638,74.714l-0.6668-1.684h-3.3223l-0.6305,1.684h-2.2547l3.6-8.5787h2.0133l3.5648,8.5787H56.6638z
					 M54.3599,68.4252l-1.091,2.9443h2.1574L54.3599,68.4252z"/>
				<path class="st1" d="M66.8849,74.714l-1.8645-3.4049h-0.7066v3.4049h-2.025v-8.5787h3.2742
					c0.4125,0,0.8133,0.0422,1.2059,0.1271s0.7441,0.2285,1.0547,0.4301c0.3117,0.2021,0.5602,0.4688,0.7465,0.7998
					c0.1852,0.3311,0.2789,0.743,0.2789,1.2357c0,0.5818-0.1582,1.0705-0.4734,1.466c-0.3152,0.3961-0.7512,0.6791-1.309,0.8484
					l2.243,3.6715H66.8849z M66.7993,68.7644c0-0.2016-0.0434-0.365-0.1277-0.4904c-0.0855-0.1254-0.1945-0.2221-0.3293-0.2912
					c-0.1336-0.0686-0.2848-0.1148-0.4512-0.1389c-0.1664-0.0246-0.3258-0.0363-0.4805-0.0363h-1.1086v1.9992h0.9867
					c0.1699,0,0.3445-0.0141,0.5238-0.0428c0.1793-0.0281,0.341-0.0785,0.4875-0.1512c0.1465-0.0727,0.266-0.1775,0.3598-0.3152
					C66.7524,69.1605,66.7993,68.983,66.7993,68.7644z"/>
				<path class="st1" d="M77.4692,68.3648c-0.1781-0.2262-0.4102-0.4061-0.6973-0.5391c-0.2871-0.1336-0.5637-0.2004-0.8309-0.2004
					c-0.1371,0-0.2766,0.0123-0.4184,0.0363c-0.1418,0.0246-0.2684,0.0709-0.382,0.1395c-0.1137,0.0691-0.2074,0.1576-0.2848,0.2666
					s-0.1148,0.2484-0.1148,0.4184c0,0.1453,0.0305,0.2666,0.0914,0.3633c0.0598,0.0967,0.1488,0.1816,0.266,0.2543
					c0.1172,0.0727,0.2566,0.1395,0.4184,0.2004c0.1617,0.0603,0.3434,0.123,0.5461,0.1875
					c0.2906,0.0967,0.593,0.2039,0.9094,0.3211c0.3141,0.1172,0.6012,0.2725,0.8602,0.4664s0.4734,0.4342,0.6422,0.7213
					c0.1699,0.2865,0.2555,0.6439,0.2555,1.0723c0,0.4928-0.0914,0.9187-0.273,1.2785c-0.1816,0.3592-0.4266,0.6562-0.7336,0.89
					c-0.307,0.235-0.6586,0.4084-1.0547,0.5215c-0.3961,0.1131-0.8051,0.1693-1.2246,0.1693c-0.6141,0-1.2082-0.1072-1.7824-0.3211
					s-1.0512-0.5186-1.4309-0.9146l1.3582-1.3816c0.2098,0.259,0.4863,0.4746,0.8309,0.6486
					c0.3434,0.1734,0.6844,0.2602,1.0242,0.2602c0.1535,0,0.3023-0.0158,0.4488-0.048c0.1453-0.0322,0.273-0.085,0.382-0.1576
					c0.109-0.0727,0.1957-0.1699,0.2602-0.2906c0.0645-0.1213,0.0973-0.2666,0.0973-0.4365c0-0.1617-0.041-0.2988-0.1219-0.4119
					c-0.0797-0.1131-0.1957-0.2162-0.3445-0.3088c-0.15-0.0932-0.3363-0.1775-0.5578-0.2549
					c-0.2227-0.0768-0.4758-0.1594-0.7582-0.2484c-0.2754-0.0885-0.5437-0.1934-0.8063-0.3146
					c-0.2625-0.1213-0.4969-0.2766-0.7031-0.4664c-0.2062-0.1898-0.3715-0.4201-0.4969-0.6908
					c-0.1254-0.2707-0.1887-0.6-0.1887-0.9879c0-0.4764,0.0973-0.8842,0.2906-1.2234c0.1945-0.3393,0.45-0.6182,0.7641-0.8361
					c0.3164-0.218,0.6715-0.3773,1.0676-0.4787c0.3961-0.1008,0.7957-0.1512,1.2-0.1512c0.4852,0,0.9809,0.0885,1.4848,0.266
					c0.5063,0.1781,0.9481,0.4406,1.3289,0.7881L77.4692,68.3648z"/>
			</g>
		</g>
	</g>
</g>
</svg>
