<svg width="216" height="22" viewBox="0 0 216 22" xmlns="http://www.w3.org/2000/svg"><path d="M14.78 17.28h-2.896L7.9 12.672H6.868v4.608H4.636V6.08h2.232v4.536h1.056l3.704-4.536h2.8l-4.696 5.464 5.048 5.736zm1.072-11.52h2.088v11.52h-2.088V5.76zm7.72 3.56q1.672 0 2.716 1.128 1.044 1.128 1.052 2.944 0 .408-.04.704h-5.496q.16.808.688 1.208.528.4 1.304.4.504 0 1.024-.196t.936-.548l1.224 1.344q-1.28 1.176-3.304 1.176-1.792 0-2.908-1.116-1.116-1.116-1.116-2.94 0-1.832 1.088-2.968t2.832-1.136zm-.016 1.8q-.72 0-1.16.408-.44.408-.584 1.144h3.432q-.144-.744-.58-1.148-.436-.404-1.108-.404zm5.488-1.592h2.088v7.752h-2.088V9.528zm.088-3.492q.384-.388.944-.388.56 0 .948.388.388.388.388.956 0 .56-.384.944-.384.384-.952.384-.56 0-.944-.384-.384-.384-.384-.944 0-.568.384-.956zm8.504 3.284q1.328 0 2.172.84.844.84.844 2.184v4.936h-2.088v-4.264q0-.832-.396-1.284-.396-.452-1.116-.452-.712 0-1.176.456-.464.456-.464 1.296v4.248h-2.088V9.528h2.032v.912q.752-1.12 2.28-1.12zm13.456 0q1.608 0 2.684 1.168t1.076 2.912q0 1.744-1.076 2.912T51.1 17.48q-1.432 0-2.28-1.008v4.008h-2.08V9.528h2.04v.856q.848-1.064 2.312-1.064zm-.384 1.944q-.88 0-1.436.604-.556.604-.556 1.532t.556 1.532q.556.604 1.436.604.904 0 1.452-.612.548-.612.548-1.524t-.548-1.524q-.548-.612-1.452-.612zM60.764 9.32q.624 0 1.088.168l-.312 2.072q-.56-.248-1.264-.248-.744 0-1.188.452-.444.452-.444 1.292v4.224h-2.088V9.528h2.024v.848q.704-1.056 2.184-1.056zm5.952 0q1.808 0 3.004 1.164t1.196 2.916q0 1.752-1.196 2.916t-3.004 1.164q-1.8 0-2.992-1.164T62.532 13.4q0-1.752 1.192-2.916t2.992-1.164zm1.476 2.544q-.588-.6-1.476-.6t-1.472.6q-.584.6-.584 1.536t.584 1.536q.584.6 1.472.6t1.476-.6q.588-.6.588-1.536t-.588-1.536zm4.46-2.336h2.088v8.488q0 1.248-.656 1.94t-1.752.692q-.696 0-1.176-.208l.312-1.832q.264.096.56.096.624 0 .624-.808V9.528zm.08-3.492q.384-.388.944-.388.56 0 .948.388.388.388.388.956 0 .56-.384.944-.384.384-.952.384t-.948-.384q-.38-.384-.38-.944 0-.568.384-.956zm7.64 3.284q1.672 0 2.716 1.128 1.044 1.128 1.052 2.944 0 .408-.04.704h-5.496q.16.808.688 1.208.528.4 1.304.4.504 0 1.024-.196t.936-.548l1.224 1.344q-1.28 1.176-3.304 1.176-1.792 0-2.908-1.116-1.116-1.116-1.116-2.94 0-1.832 1.088-2.968t2.832-1.136zm-.016 1.8q-.72 0-1.16.408-.44.408-.584 1.144h3.432q-.144-.744-.58-1.148-.436-.404-1.108-.404zm9.136-1.8q.968 0 1.768.38t1.336 1.084l-1.504 1.256q-.728-.776-1.656-.776-.824 0-1.384.592-.56.592-.56 1.544 0 .952.556 1.544.556.592 1.38.592.968 0 1.688-.784l1.488 1.272q-1.136 1.456-3.112 1.456-1.84 0-2.984-1.148T85.364 13.4q0-1.776 1.144-2.928t2.984-1.152zm7.512.208h2.808v1.856h-2.808v2.832q0 .688.316 1.004.316.316.844.316.624 0 1.456-.504l.768 1.632q-1.192.816-2.568.816-1.432 0-2.168-.792-.736-.792-.736-2.304v-3H93.42V9.528h1.496V7.224h2.088v2.304z" fill="#008AE6"/><path d="M111.164 5.872q1.312 0 2.404.448 1.092.448 1.844 1.272l-1.608 1.576q-1.024-1.176-2.704-1.176-1.544 0-2.54 1.028t-.996 2.66q0 1.68 1.004 2.7 1.004 1.02 2.492 1.02 1.352 0 2.156-.632t1.028-1.84h-2.848v-1.864h5.152q.032.288.032.632 0 1.672-.704 2.996t-1.952 2.056q-1.248.732-2.816.732-.928 0-1.8-.252t-1.604-.752q-.732-.5-1.284-1.188t-.86-1.62q-.308-.932-.308-1.988 0-1.248.444-2.332.444-1.084 1.22-1.844t1.876-1.196q1.1-.436 2.372-.436zM122.62 9.32q.624 0 1.088.168l-.312 2.072q-.56-.248-1.264-.248-.744 0-1.188.452-.444.452-.444 1.292v4.224h-2.088V9.528h2.024v.848q.704-1.056 2.184-1.056zm5.952 0q1.808 0 3.004 1.164t1.196 2.916q0 1.752-1.196 2.916t-3.004 1.164q-1.8 0-2.992-1.164t-1.192-2.916q0-1.752 1.192-2.916t2.992-1.164zm1.476 2.544q-.588-.6-1.476-.6t-1.472.6q-.584.6-.584 1.536t.584 1.536q.584.6 1.472.6t1.476-.6q.588-.6.588-1.536t-.588-1.536zm8.132-2.544q1.808 0 3.004 1.164t1.196 2.916q0 1.752-1.196 2.916t-3.004 1.164q-1.8 0-2.992-1.164t-1.192-2.916q0-1.752 1.192-2.916t2.992-1.164zm1.476 2.544q-.588-.6-1.476-.6t-1.472.6q-.584.6-.584 1.536t.584 1.536q.584.6 1.472.6t1.476-.6q.588-.6.588-1.536t-.588-1.536zm7.164-2.336h2.808v1.856h-2.808v2.832q0 .688.316 1.004.316.316.844.316.624 0 1.456-.504l.768 1.632q-1.192.816-2.568.816-1.432 0-2.168-.792-.736-.792-.736-2.304v-3h-1.496V9.528h1.496V7.224h2.088v2.304zm13.856 0h2.2l-3.032 7.752h-2.408l-3.064-7.752h2.272l2.008 5.552 2.024-5.552zm6.656-.208q1.672 0 2.716 1.128 1.044 1.128 1.052 2.944 0 .408-.04.704h-5.496q.16.808.688 1.208.528.4 1.304.4.504 0 1.024-.196t.936-.548l1.224 1.344q-1.28 1.176-3.304 1.176-1.792 0-2.908-1.116-1.116-1.116-1.116-2.94 0-1.832 1.088-2.968t2.832-1.136zm-.016 1.8q-.72 0-1.16.408-.44.408-.584 1.144h3.432q-.144-.744-.58-1.148-.436-.404-1.108-.404zm9.696-1.8q.624 0 1.088.168l-.312 2.072q-.56-.248-1.264-.248-.744 0-1.188.452-.444.452-.444 1.292v4.224h-2.088V9.528h2.024v.848q.704-1.056 2.184-1.056zm8.616.744l-.704 1.624q-.52-.256-1.192-.44-.672-.184-1.28-.192-.584 0-.888.188-.304.188-.304.516 0 .304.312.436t.952.228l.688.104q2.616.4 2.616 2.32 0 1.208-.944 1.92t-2.616.712q-2.16 0-3.448-.912l.824-1.584q1.144.76 2.64.76 1.432 0 1.432-.728 0-.28-.304-.448-.304-.168-.984-.264l-.632-.088q-2.68-.368-2.68-2.352 0-1.192.868-1.864.868-.672 2.404-.672 1.736 0 3.24.736zm5.472-.744q.968 0 1.768.38t1.336 1.084L192.7 12.04q-.728-.776-1.656-.776-.824 0-1.384.592-.56.592-.56 1.544 0 .952.556 1.544.556.592 1.38.592.968 0 1.688-.784l1.488 1.272q-1.136 1.456-3.112 1.456-1.84 0-2.984-1.148t-1.144-2.932q0-1.776 1.144-2.928T191.1 9.32zm4.616-3.568h2.088v4.608q.744-1.04 2.224-1.04 1.328 0 2.172.84.844.84.844 2.184v4.936h-2.088v-4.264q0-.832-.396-1.284-.396-.452-1.116-.452-.712 0-1.176.456-.464.456-.464 1.296v4.248h-2.088V5.752zm9.456 3.776h2.088v7.752h-2.088V9.528zm.088-3.492q.384-.388.944-.388.56 0 .948.388.388.388.388.956 0 .56-.384.944-.384.384-.952.384-.56 0-.944-.384-.384-.384-.384-.944 0-.568.384-.956zm4.192-.276h2.088v11.52h-2.088V5.76z" fill="#E60D2E"/></svg>