<?xml version="1.0" encoding="UTF-8"?>
<svg id="Layer_1" data-name="Layer 1" xmlns="http://www.w3.org/2000/svg" width="143" height="42" viewBox="0 0 143 42">
  <defs>
    <style>
      .cls-1 {
        fill: #68b11e;
        stroke-width: 0px;
      }
    </style>
  </defs>
  <path class="cls-1" d="m98.11,18.6c.27-.16.4-.42.4-.77s-.14-.62-.42-.77-.68-.22-1.22-.22c-.17,0-.36,0-.56,0-.2,0-.38.02-.53.03v1.96h.99c.62,0,1.07-.08,1.34-.24Z"/>
  <path class="cls-1" d="m49.41,19.31c-.1-.12-.23-.22-.38-.3-.15-.08-.34-.12-.57-.12s-.4.04-.56.11c-.16.07-.29.17-.39.29-.1.12-.18.26-.24.42-.06.16-.1.32-.12.49h2.56c0-.16-.04-.32-.08-.48-.05-.16-.12-.29-.22-.42Z"/>
  <path class="cls-1" d="m20.19,17.68c-.2-.25-.46-.45-.75-.59-.3-.14-.64-.21-1.01-.21s-.72.07-1.01.21c-.29.14-.54.34-.75.6-.2.25-.36.56-.47.92s-.16.76-.16,1.19.05.84.16,1.2c.11.36.26.66.47.92s.45.45.75.59c.29.14.63.21,1.01.21s.71-.07,1.01-.21c.3-.14.55-.34.75-.59s.36-.56.47-.92c.11-.35.16-.75.16-1.2s-.05-.84-.16-1.2c-.11-.36-.26-.67-.47-.92Z"/>
  <path class="cls-1" d="m98.4,20.66c-.31-.18-.76-.27-1.34-.27h-1.27v2.33c.15.02.31.03.48.04.17,0,.36.01.57.01.61,0,1.1-.09,1.47-.26.37-.17.56-.49.56-.96,0-.42-.16-.71-.47-.89Z"/>
  <path class="cls-1" d="m40.67,18.97c-.92,0-1.38.62-1.38,1.87,0,.6.13,1.08.4,1.44.27.36.67.55,1.2.55.17,0,.33,0,.48-.02.15-.01.27-.03.36-.04v-3.52c-.12-.08-.28-.14-.47-.19-.19-.05-.39-.08-.59-.08Z"/>
  <path class="cls-1" d="m0,0v42h130.58c6.86,0,12.42-5.56,12.42-12.42V0H0Zm22.56,21.84c-.23.58-.54,1.08-.94,1.47-.4.39-.87.69-1.42.89-.55.2-1.14.3-1.77.3s-1.2-.1-1.74-.3-1.02-.5-1.43-.89c-.41-.39-.73-.88-.96-1.47s-.35-1.26-.35-2.03.12-1.45.36-2.04c.24-.58.57-1.08.98-1.48.41-.4.89-.7,1.43-.9s1.11-.3,1.71-.3,1.2.1,1.74.3,1.02.5,1.43.9c.41.4.73.89.96,1.48s.35,1.26.35,2.04-.12,1.45-.34,2.03Zm7.81,2.48h-1.94v-3.63c0-.62-.08-1.07-.25-1.33s-.47-.39-.92-.39c-.14,0-.29,0-.44.02-.16.01-.29.03-.42.04v5.28h-1.94v-6.6c.33-.1.75-.18,1.27-.27.52-.08,1.07-.12,1.64-.12s1.06.08,1.45.23.69.37.92.64c.23.28.39.61.48.99.1.38.14.81.14,1.27v3.86Zm5.45.05c-.29.07-.64.1-1.05.1-.53,0-.97-.07-1.31-.21-.35-.14-.62-.34-.83-.6s-.35-.57-.44-.93c-.08-.36-.12-.77-.12-1.21v-5.75l1.94-.31v2.01h2.33v1.61h-2.33v2.4c0,.41.07.73.21.98.14.24.43.36.86.36.21,0,.42-.02.64-.06.22-.04.42-.09.6-.16l.27,1.51c-.23.1-.49.18-.78.25Zm7.85-.27c-.17.05-.37.1-.6.15-.23.05-.46.09-.71.12-.25.04-.5.06-.75.08-.26.02-.5.03-.73.03-.56,0-1.07-.08-1.51-.25-.44-.16-.81-.4-1.12-.71s-.54-.68-.7-1.12c-.16-.44-.24-.93-.24-1.48s.07-1.05.21-1.5c.14-.45.34-.83.6-1.14.26-.31.58-.55.96-.72.38-.16.81-.25,1.29-.25.27,0,.51.03.72.08.21.05.43.13.64.22v-3.09l1.94-.31v9.87Zm7.9-2.92c0,.13-.02.25-.03.36h-4.39c.04.4.23.71.56.95.33.23.77.35,1.33.35.36,0,.7-.03,1.05-.1.34-.07.62-.15.84-.24l.26,1.57c-.1.05-.24.1-.42.16s-.37.1-.58.14-.44.07-.68.1c-.24.03-.49.04-.73.04-.62,0-1.15-.09-1.61-.27-.45-.18-.83-.43-1.13-.75-.3-.32-.52-.69-.66-1.12-.14-.43-.21-.9-.21-1.4,0-.61.09-1.14.28-1.59.19-.45.43-.83.73-1.14.3-.3.65-.53,1.05-.69.39-.16.8-.23,1.22-.23.97,0,1.74.3,2.3.89.56.59.84,1.47.84,2.62,0,.11,0,.24-.01.37Zm5.77,3.14c-.14-.23-.3-.48-.47-.75-.18-.27-.37-.55-.56-.82-.2-.27-.41-.54-.63-.79-.22-.25-.44-.46-.66-.64v3h-1.94v-9.78l1.94-.31v5.71c.19-.21.39-.42.59-.65.2-.22.4-.45.59-.67s.37-.43.54-.63c.17-.2.31-.37.44-.52h2.3c-.46.53-.91,1.03-1.35,1.51-.44.48-.92.98-1.44,1.49.26.23.53.51.81.84.28.33.55.66.81,1.01.26.35.5.69.71,1.04.22.35.4.66.55.95h-2.23Zm14.4,0c-.03-.88-.06-1.83-.1-2.86-.04-1.03-.11-2.07-.2-3.12-.16.36-.33.77-.52,1.21-.19.44-.38.88-.57,1.33-.19.44-.37.87-.54,1.27-.17.4-.32.75-.44,1.03h-1.42c-.12-.29-.27-.63-.44-1.03-.17-.4-.35-.83-.54-1.27-.19-.44-.38-.88-.57-1.33-.19-.44-.37-.84-.52-1.21-.09,1.05-.15,2.09-.2,3.12-.04,1.03-.08,1.99-.1,2.86h-1.98c.03-.71.08-1.47.12-2.28.05-.81.1-1.61.16-2.41.06-.8.12-1.57.19-2.31.07-.74.15-1.41.24-2.01h1.94c.16.29.34.64.54,1.06.2.42.42.88.64,1.36.22.49.44.99.66,1.5.22.51.42.99.61,1.44.19-.45.4-.93.61-1.44s.44-1.01.66-1.5c.22-.49.43-.94.64-1.36.2-.42.38-.77.54-1.06h1.85c.09.6.17,1.27.24,2.01.07.74.14,1.51.19,2.31s.11,1.61.16,2.41c.05.81.09,1.56.12,2.28h-1.98Zm3.8-9.65c.23-.2.5-.31.81-.31s.58.1.81.31c.23.2.34.48.34.84s-.12.64-.34.84c-.23.2-.5.31-.81.31s-.58-.1-.81-.31c-.23-.2-.34-.48-.34-.84s.12-.63.34-.84Zm-.15,2.81h1.94v6.84h-1.94v-6.84Zm5.69,6.59c0,.9-.22,1.57-.66,2-.44.43-1.08.65-1.91.65-.12,0-.3-.01-.54-.04-.24-.03-.46-.07-.67-.14l.26-1.57c.13.04.25.07.36.09.11.02.25.03.41.03.3,0,.52-.09.64-.27.12-.18.18-.45.18-.79v-6.54h1.94v6.59Zm-.16-7.73c-.23.2-.5.31-.81.31s-.58-.1-.81-.31c-.23-.2-.34-.48-.34-.84s.12-.63.34-.84c.23-.2.5-.31.81-.31s.58.1.81.31c.23.2.34.48.34.84s-.12.64-.34.84Zm7.88,7.98h-1.94v-3.63c0-.62-.08-1.07-.25-1.33s-.47-.39-.92-.39c-.14,0-.29,0-.44.02-.16.01-.29.03-.42.04v5.28h-1.94v-6.6c.33-.1.75-.18,1.27-.27.52-.08,1.07-.12,1.64-.12s1.06.08,1.45.23.69.37.92.64c.22.28.38.61.48.99.1.38.14.81.14,1.27v3.86Zm11.08-.6c-.69.48-1.71.71-3.07.71-.49,0-.99-.02-1.48-.05s-1-.1-1.53-.21v-8.74c.42-.08.87-.14,1.37-.18s.95-.06,1.38-.06c.57,0,1.1.04,1.58.12.48.08.89.22,1.24.42.35.2.62.46.81.79.2.33.29.73.29,1.2,0,.72-.35,1.29-1.04,1.7.57.22.96.51,1.17.88.21.37.31.79.31,1.26,0,.95-.34,1.66-1.03,2.13Zm9.04.6h-6.38v-9.01h6.08v1.7h-4.06v1.77h3.6v1.66h-3.6v2.17h4.35v1.7Zm9.24,0h-1.7c-.58-1.03-1.21-2.05-1.88-3.05-.68-1.01-1.4-1.95-2.16-2.85v5.9h-2v-9.01h1.65c.29.29.6.64.95,1.05s.7.86,1.06,1.33c.36.47.72.96,1.07,1.47.35.51.69.99,1,1.46v-5.32h2.01v9.01Zm9.32-3.41c0,.53-.07,1.01-.22,1.46-.15.44-.37.82-.68,1.14s-.69.56-1.16.73c-.47.17-1.02.26-1.66.26s-1.18-.09-1.64-.27c-.46-.18-.84-.42-1.14-.74-.3-.32-.52-.69-.66-1.13-.14-.44-.21-.92-.21-1.45v-5.6h2.03v5.43c0,.36.04.67.12.93s.2.46.34.62c.14.16.32.28.52.34.2.07.43.1.67.1.49,0,.89-.15,1.2-.46.31-.3.46-.82.46-1.55v-5.43h2.03v5.6Z"/>
</svg>