<?xml version="1.0" encoding="utf-8"?>
<!-- Generator: Adobe Illustrator 28.3.0, SVG Export Plug-In . SVG Version: 6.00 Build 0)  -->
<svg version="1.1" id="Laag_1" xmlns="http://www.w3.org/2000/svg" xmlns:xlink="http://www.w3.org/1999/xlink" x="0px" y="0px"
	 viewBox="0 0 167.2 74.3" style="enable-background:new 0 0 167.2 74.3;" xml:space="preserve">
<style type="text/css">
	.st0{fill:#FFFFFF;}
	.st1{fill:#CE1126;}
</style>
<g>
	<path class="st0" d="M140.6,59.3H23.3c-5.5,0-10-4.5-10-10V21.7c0-5.5,4.5-10,10-10h117.4c5.5,0,10,4.5,10,10v27.7
		C150.6,54.8,146.2,59.3,140.6,59.3z"/>
	<path class="st1" d="M140.6,60.3H23.3c-6.1,0-11-4.9-11-11V21.7c0-6.1,4.9-11,11-11h117.4c6.1,0,11,4.9,11,11v27.7
		C151.6,55.4,146.7,60.3,140.6,60.3z M23.3,12.7c-5,0-9,4-9,9v27.7c0,5,4,9,9,9h117.4c5,0,9-4,9-9V21.7c0-5-4-9-9-9H23.3z"/>
</g>
<g>
	<path class="st1" d="M35,29.4h1.7v11.1h5.8v1.6H35V29.4z"/>
	<path class="st1" d="M44.4,29.4h8.2V31h-6.5v3.8h6v1.6h-6v4.1h6.8v1.6h-8.5V29.4z"/>
	<path class="st1" d="M55.4,29.4h8.2V31h-6.5v3.8h6v1.6h-6v4.1h6.8v1.6h-8.5V29.4z"/>
	<path class="st1" d="M66.7,39.5c0.3,0.5,0.7,0.8,1.2,1c0.5,0.2,1,0.3,1.5,0.3c0.3,0,0.6,0,0.9-0.1c0.3-0.1,0.6-0.2,0.8-0.4
		c0.2-0.2,0.4-0.4,0.6-0.7c0.2-0.3,0.2-0.6,0.2-0.9c0-0.5-0.2-0.9-0.5-1.1c-0.3-0.3-0.7-0.5-1.2-0.6c-0.5-0.2-1-0.3-1.5-0.5
		s-1-0.4-1.5-0.7c-0.5-0.3-0.8-0.7-1.2-1.2c-0.3-0.5-0.5-1.1-0.5-2c0-0.4,0.1-0.8,0.2-1.2c0.2-0.4,0.4-0.8,0.8-1.2
		c0.3-0.3,0.8-0.6,1.3-0.9c0.5-0.2,1.2-0.4,2-0.4c0.7,0,1.4,0.1,2,0.3c0.6,0.2,1.2,0.6,1.7,1.2l-1.4,1.3c-0.2-0.3-0.5-0.6-0.9-0.8
		s-0.8-0.3-1.4-0.3c-0.5,0-0.9,0.1-1.2,0.2c-0.3,0.1-0.6,0.3-0.8,0.5c-0.2,0.2-0.3,0.4-0.4,0.6c-0.1,0.2-0.1,0.4-0.1,0.6
		c0,0.5,0.2,1,0.5,1.2s0.7,0.5,1.2,0.7c0.5,0.2,1,0.3,1.5,0.5c0.5,0.1,1,0.3,1.5,0.6s0.8,0.6,1.2,1c0.3,0.4,0.5,1,0.5,1.8
		c0,0.6-0.1,1.2-0.4,1.7c-0.2,0.5-0.5,0.9-0.9,1.2s-0.9,0.6-1.4,0.8c-0.5,0.2-1.1,0.3-1.7,0.3c-0.8,0-1.6-0.1-2.3-0.4
		s-1.3-0.7-1.7-1.3L66.7,39.5z"/>
	<path class="st1" d="M81.2,29.4h2.6l4.1,9.6h0.1l4-9.6h2.6v12.7h-1.7V31.7h0l-4.3,10.5h-1.2L83,31.7h0v10.5h-1.7V29.4z"/>
	<path class="st1" d="M97.7,29.4h8.2V31h-6.5v3.8h6v1.6h-6v4.1h6.8v1.6h-8.5V29.4z"/>
	<path class="st1" d="M108.7,29.4h8.2V31h-6.5v3.8h6v1.6h-6v4.1h6.8v1.6h-8.6V29.4z"/>
	<path class="st1" d="M119.7,29.4h4.5c0.8,0,1.5,0.1,2,0.3c0.5,0.2,0.9,0.5,1.3,0.8c0.3,0.3,0.5,0.7,0.6,1.2
		c0.1,0.4,0.2,0.8,0.2,1.2c0,0.4-0.1,0.8-0.2,1.2c-0.1,0.4-0.4,0.7-0.6,1c-0.3,0.3-0.6,0.6-1,0.8s-0.8,0.3-1.3,0.4l3.6,5.8h-2.2
		l-3.2-5.6h-1.9v5.6h-1.7V29.4z M121.4,35h2.3c0.3,0,0.7,0,1-0.1s0.6-0.2,0.9-0.3c0.3-0.1,0.5-0.4,0.6-0.6c0.2-0.3,0.2-0.6,0.2-1.1
		c0-0.4-0.1-0.8-0.2-1.1c-0.2-0.3-0.4-0.5-0.6-0.6c-0.3-0.1-0.6-0.2-0.9-0.3c-0.3-0.1-0.7-0.1-1-0.1h-2.3V35z"/>
</g>
</svg>
