<?xml version="1.0" encoding="utf-8"?>
<!-- Generator: Adobe Illustrator 28.3.0, SVG Export Plug-In . SVG Version: 6.00 Build 0)  -->
<svg version="1.1" id="Laag_1" xmlns="http://www.w3.org/2000/svg" xmlns:xlink="http://www.w3.org/1999/xlink" x="0px" y="0px"
	 viewBox="0 0 211.5 74.3" style="enable-background:new 0 0 211.5 74.3;" xml:space="preserve">
<style type="text/css">
	.st0{fill:#FFFFFF;}
	.st1{fill:#CE1126;}
</style>
<g>
	<path class="st0" d="M194.4,59.3H19.2c-5.5,0-10-4.5-10-10V21.7c0-5.5,4.5-10,10-10h175.2c5.5,0,10,4.5,10,10v27.7
		C204.4,54.8,200,59.3,194.4,59.3z"/>
	<path class="st1" d="M194.4,60.3H19.2c-6.1,0-11-4.9-11-11V21.7c0-6.1,4.9-11,11-11h175.2c6.1,0,11,4.9,11,11v27.7
		C205.4,55.4,200.5,60.3,194.4,60.3z M19.2,12.7c-5,0-9,4-9,9v27.7c0,5,4,9,9,9h175.2c5,0,9-4,9-9V21.7c0-5-4-9-9-9H19.2z"/>
</g>
<g>
	<path class="st1" d="M28.3,29.4H30v5.5h0.1l5.6-5.5h2.4l-6.2,5.9l6.6,6.9h-2.5l-5.9-6.4H30v6.4h-1.7V29.4z"/>
	<path class="st1" d="M45.8,42.5c-1,0-1.9-0.2-2.7-0.5c-0.8-0.3-1.5-0.8-2.1-1.4c-0.6-0.6-1-1.3-1.4-2.1c-0.3-0.8-0.5-1.7-0.5-2.6
		c0-0.9,0.2-1.8,0.5-2.6c0.3-0.8,0.8-1.5,1.4-2.1c0.6-0.6,1.3-1.1,2.1-1.4c0.8-0.3,1.7-0.5,2.7-0.5c1,0,1.9,0.2,2.7,0.5
		c0.8,0.3,1.5,0.8,2.1,1.4c0.6,0.6,1,1.3,1.4,2.1c0.3,0.8,0.5,1.7,0.5,2.6c0,0.9-0.2,1.8-0.5,2.6c-0.3,0.8-0.8,1.5-1.4,2.1
		c-0.6,0.6-1.3,1.1-2.1,1.4C47.7,42.3,46.8,42.5,45.8,42.5z M45.8,40.8c0.7,0,1.4-0.1,2-0.4c0.6-0.3,1.1-0.6,1.5-1.1
		c0.4-0.5,0.7-1,1-1.6c0.2-0.6,0.3-1.3,0.3-2c0-0.7-0.1-1.4-0.3-2c-0.2-0.6-0.6-1.2-1-1.6c-0.4-0.5-0.9-0.8-1.5-1.1
		c-0.6-0.3-1.2-0.4-2-0.4s-1.4,0.1-2,0.4c-0.6,0.3-1.1,0.6-1.5,1.1c-0.4,0.5-0.7,1-1,1.6s-0.3,1.3-0.3,2c0,0.7,0.1,1.4,0.3,2
		c0.2,0.6,0.6,1.2,1,1.6c0.4,0.5,0.9,0.8,1.5,1.1C44.4,40.7,45.1,40.8,45.8,40.8z"/>
	<path class="st1" d="M60.8,42.5c-1,0-1.9-0.2-2.7-0.5c-0.8-0.3-1.5-0.8-2.1-1.4c-0.6-0.6-1-1.3-1.4-2.1c-0.3-0.8-0.5-1.7-0.5-2.6
		c0-0.9,0.2-1.8,0.5-2.6c0.3-0.8,0.8-1.5,1.4-2.1c0.6-0.6,1.3-1.1,2.1-1.4c0.8-0.3,1.7-0.5,2.7-0.5c1,0,1.9,0.2,2.7,0.5
		c0.8,0.3,1.5,0.8,2.1,1.4c0.6,0.6,1,1.3,1.4,2.1c0.3,0.8,0.5,1.7,0.5,2.6c0,0.9-0.2,1.8-0.5,2.6c-0.3,0.8-0.8,1.5-1.4,2.1
		c-0.6,0.6-1.3,1.1-2.1,1.4C62.7,42.3,61.8,42.5,60.8,42.5z M60.8,40.8c0.7,0,1.4-0.1,2-0.4c0.6-0.3,1.1-0.6,1.5-1.1
		c0.4-0.5,0.7-1,1-1.6c0.2-0.6,0.3-1.3,0.3-2c0-0.7-0.1-1.4-0.3-2c-0.2-0.6-0.6-1.2-1-1.6c-0.4-0.5-0.9-0.8-1.5-1.1
		c-0.6-0.3-1.2-0.4-2-0.4s-1.4,0.1-2,0.4c-0.6,0.3-1.1,0.6-1.5,1.1c-0.4,0.5-0.7,1-1,1.6s-0.3,1.3-0.3,2c0,0.7,0.1,1.4,0.3,2
		c0.2,0.6,0.6,1.2,1,1.6c0.4,0.5,0.9,0.8,1.5,1.1C59.4,40.7,60.1,40.8,60.8,40.8z"/>
	<path class="st1" d="M69.9,29.4h4.5c0.8,0,1.5,0.1,2,0.3c0.5,0.2,0.9,0.5,1.3,0.8c0.3,0.3,0.5,0.7,0.6,1.2c0.1,0.4,0.2,0.8,0.2,1.2
		c0,0.4-0.1,0.8-0.2,1.2c-0.1,0.4-0.3,0.8-0.6,1.2c-0.3,0.3-0.7,0.6-1.3,0.8c-0.5,0.2-1.2,0.3-2,0.3h-2.8v5.6h-1.7V29.4z M71.7,35
		h2.3c0.3,0,0.7,0,1-0.1s0.6-0.2,0.9-0.3c0.3-0.1,0.5-0.4,0.6-0.6c0.2-0.3,0.2-0.6,0.2-1.1c0-0.4-0.1-0.8-0.2-1.1
		c-0.2-0.3-0.4-0.5-0.6-0.6c-0.3-0.1-0.6-0.2-0.9-0.3c-0.3-0.1-0.7-0.1-1-0.1h-2.3V35z"/>
	<path class="st1" d="M85.6,29.4h2.3l7,10.5h0V29.4h1.7v12.7h-2.2l-7.1-10.5h0v10.5h-1.7V29.4z"/>
	<path class="st1" d="M101.4,29.4v7.8c0,0.4,0.1,0.8,0.2,1.2c0.1,0.4,0.3,0.8,0.5,1.2c0.3,0.4,0.6,0.7,1,0.9
		c0.4,0.2,0.9,0.3,1.5,0.3c0.6,0,1.1-0.1,1.5-0.3c0.4-0.2,0.7-0.5,1-0.9c0.3-0.4,0.4-0.8,0.5-1.2c0.1-0.4,0.2-0.8,0.2-1.2v-7.8h1.7
		v8.1c0,0.7-0.1,1.4-0.4,2c-0.3,0.6-0.6,1.1-1,1.6c-0.4,0.4-1,0.8-1.6,1c-0.6,0.2-1.2,0.4-1.9,0.4s-1.3-0.1-1.9-0.4
		c-0.6-0.2-1.1-0.6-1.6-1c-0.4-0.4-0.8-1-1-1.6c-0.3-0.6-0.4-1.3-0.4-2v-8.1H101.4z"/>
	<path class="st1" d="M120.3,31h-4.1v-1.6h9.9V31H122v11.1h-1.7V31z"/>
	<path class="st1" d="M127.9,29.4h1.7v12.7h-1.7V29.4z"/>
	<path class="st1" d="M141.8,32.1c-0.4-0.5-0.8-0.8-1.4-1.1c-0.6-0.3-1.1-0.4-1.7-0.4c-0.7,0-1.4,0.1-2,0.4
		c-0.6,0.3-1.1,0.6-1.5,1.1c-0.4,0.5-0.7,1-1,1.6c-0.2,0.6-0.3,1.3-0.3,2c0,0.7,0.1,1.3,0.3,1.9c0.2,0.6,0.5,1.1,0.9,1.6
		c0.4,0.5,0.9,0.8,1.5,1.1c0.6,0.3,1.3,0.4,2,0.4c0.7,0,1.4-0.2,1.9-0.5c0.6-0.3,1-0.7,1.4-1.3l1.5,1.1c-0.1,0.1-0.3,0.3-0.5,0.6
		s-0.6,0.5-1,0.7c-0.4,0.2-0.9,0.5-1.4,0.6s-1.2,0.3-1.9,0.3c-1,0-1.9-0.2-2.7-0.6c-0.8-0.4-1.5-0.9-2.1-1.5c-0.6-0.6-1-1.3-1.3-2.1
		s-0.5-1.6-0.5-2.4c0-1,0.2-1.9,0.5-2.7s0.8-1.6,1.4-2.2c0.6-0.6,1.3-1.1,2.1-1.4c0.8-0.3,1.7-0.5,2.7-0.5c0.8,0,1.7,0.2,2.5,0.5
		c0.8,0.3,1.5,0.8,2,1.5L141.8,32.1z"/>
	<path class="st1" d="M145.6,29.4h1.7v5.5h0.1l5.6-5.5h2.4l-6.2,5.9l6.6,6.9h-2.5l-5.9-6.4h-0.1v6.4h-1.7V29.4z"/>
	<path class="st1" d="M157.3,29.4h8.2V31H159v3.8h6v1.6h-6v4.1h6.8v1.6h-8.6V29.4z"/>
	<path class="st1" d="M170.9,31h-4.1v-1.6h9.9V31h-4.1v11.1h-1.7V31z"/>
	<path class="st1" d="M179,39.5c0.3,0.5,0.7,0.8,1.2,1s1,0.3,1.5,0.3c0.3,0,0.6,0,0.9-0.1c0.3-0.1,0.6-0.2,0.8-0.4s0.4-0.4,0.6-0.7
		c0.2-0.3,0.2-0.6,0.2-0.9c0-0.5-0.2-0.9-0.5-1.1c-0.3-0.3-0.7-0.5-1.2-0.6c-0.5-0.2-1-0.3-1.5-0.5c-0.5-0.2-1.1-0.4-1.5-0.7
		s-0.8-0.7-1.2-1.2c-0.3-0.5-0.5-1.1-0.5-2c0-0.4,0.1-0.8,0.2-1.2c0.2-0.4,0.4-0.8,0.8-1.2c0.3-0.3,0.8-0.6,1.3-0.9
		c0.5-0.2,1.2-0.4,2-0.4c0.7,0,1.4,0.1,2,0.3c0.6,0.2,1.2,0.6,1.7,1.2l-1.4,1.3c-0.2-0.3-0.5-0.6-0.9-0.8c-0.4-0.2-0.8-0.3-1.3-0.3
		c-0.5,0-0.9,0.1-1.2,0.2c-0.3,0.1-0.6,0.3-0.8,0.5c-0.2,0.2-0.3,0.4-0.4,0.6c-0.1,0.2-0.1,0.4-0.1,0.6c0,0.5,0.2,1,0.5,1.2
		c0.3,0.3,0.7,0.5,1.2,0.7c0.5,0.2,1,0.3,1.5,0.5c0.5,0.1,1,0.3,1.5,0.6s0.8,0.6,1.2,1c0.3,0.4,0.5,1,0.5,1.8c0,0.6-0.1,1.2-0.4,1.7
		c-0.2,0.5-0.5,0.9-0.9,1.2c-0.4,0.3-0.9,0.6-1.4,0.8c-0.5,0.2-1.1,0.3-1.7,0.3c-0.8,0-1.6-0.1-2.3-0.4s-1.3-0.7-1.7-1.3L179,39.5z"
		/>
</g>
</svg>
