<?xml version="1.0" encoding="utf-8"?>
<!-- Generator: Adobe Illustrator 27.8.1, SVG Export Plug-In . SVG Version: 6.00 Build 0)  -->
<svg version="1.1" id="Laag_1" xmlns="http://www.w3.org/2000/svg" xmlns:xlink="http://www.w3.org/1999/xlink" x="0px" y="0px"
	 viewBox="0 0 211.4646 99.2126" style="enable-background:new 0 0 211.4646 99.2126;" xml:space="preserve">
<style type="text/css">
	.st0{fill:#FFFFFF;}
	.st1{fill:#CE1126;}
	.st2{fill:#006B54;}
</style>
<g>
	<g>
		<g>
			<path class="st0" d="M22.1562,88.0369c-5.4011,0-9.7795-4.3784-9.7795-9.7795V20.8546c0-5.4011,4.3784-9.7795,9.7795-9.7795
				h178.235v76.9619H22.1562z"/>
			<g>
				<path class="st1" d="M200.3913,87.1369H22.1577c-4.9048,0-8.8809-3.9761-8.8809-8.8809V20.8558
					c0-4.9048,3.9761-8.8809,8.8809-8.8809h178.2336v-1.8H22.1578c-5.8989,0-10.6809,4.782-10.6809,10.6809V78.256
					c0,5.8989,4.782,10.6809,10.6809,10.6809h178.2335V87.1369z"/>
			</g>
		</g>
	</g>
	<g>
		<g>
			<path class="st1" d="M56.8728,69.5798v-3.34h1.8251v8.5463h-1.8251v-3.7567h-3.0097v3.7567H52.038v-8.5463h1.8251v3.34H56.8728z
				 M70.3499,70.516c0,2.1562-1.1604,4.403-3.7591,4.403c-2.5987,0-3.7591-2.2528-3.7591-4.403c0-2.1562,1.1604-4.403,3.7591-4.403
				C69.1895,66.113,70.3499,68.3598,70.3499,70.516z M64.7052,70.516c0,1.0992,0.3143,3.0561,1.8856,3.0561
				c1.5713,0,1.8856-1.9569,1.8856-3.0561s-0.3143-3.0561-1.8856-3.0561C65.0195,67.4599,64.7052,69.4168,64.7052,70.516z
				 M76.2967,73.3426h3.7953v1.4495h-5.6205v-8.5523h1.8251L76.2967,73.3426z M85.8635,73.3426h3.7953v1.4495h-5.6205v-8.5523
				h1.8251L85.8635,73.3426z M100.4949,74.7921h-1.8614l-0.5983-2.1441h-2.6954l-0.5983,2.1441h-1.8614l2.5504-8.5463h2.4597
				L100.4949,74.7921z M96.7117,67.7135h-0.0484l-0.9609,3.5816h1.9702L96.7117,67.7135z M106.7439,66.2398l2.7317,5.6351h0.0242
				v-5.6351h1.8251v8.5463h-1.9581l-3.4448-6.8672h-0.0242v6.8672h-1.8251v-8.5463H106.7439z M117.8579,66.2398
				c3.469,0,4.6958,1.8482,4.6958,4.2762c0,2.4038-1.3477,4.2761-4.0673,4.2761h-2.8586v-8.5523H117.8579L117.8579,66.2398z
				 M118.3474,73.3426c1.4504,0,2.3328-0.8577,2.3328-3.0199c0-1.7938-0.8219-2.6273-2.5322-2.6273h-0.689v5.6472H118.3474z"/>
			<g>
				<g>
					<path class="st2" d="M29.3386,41.9721c0-3.2977-0.3505-3.8775-1.4807-4.0587v-0.5798c1.3356,0,2.7256,0.145,4.031,0.145
						s2.6954-0.145,4.1156-0.145v0.5798c-1.2208,0.3624-1.5653,0.9422-1.5653,4.0587v5.8706l4.6414-5.2908
						c0.5802-0.6523,1.3658-2.2106,1.3658-2.8628c0-1.0872-0.4956-1.4495-1.39-1.7032v-0.6523c1.3356,0,2.7256,0.145,4.031,0.145
						c1.3054,0,2.6954-0.145,4.031-0.145v0.7248c-2.1152,1.0147-4.0008,2.5367-5.8018,4.2399l-5.1914,5.3271v0.0725
						c3.4508,0,5.6869,0.8697,7.772,5.6532c1.39,3.189,2.496,5.8706,4.2365,6.994v0.3261h-6.8715
						c-0.145,0-0.2901-0.1087-0.3505-0.2899l-2.641-7.5739c-0.4956-1.3771-1.1906-3.805-2.6712-3.805
						c-0.8098,0-1.1604,0.6885-1.1604,1.9931v2.6454c0,4.2761,0.1148,6.1606,1.9702,6.3055v0.7248h-9.1076v-0.7248
						c1.9158-0.145,2.0306-3.044,2.0306-6.3055V41.9721H29.3386z"/>
					<path class="st2" d="M52.5698,49.1836v2.0656c0,3.95,0.9307,8.4436,4.9859,8.4436c3.0761,0,4.9617-3.5876,5.5963-6.9578
						l0.7554,0.6885c-1.0153,5.1459-3.8014,7.7913-8.1769,7.7913c-4.9013,0-7.917-4.6748-7.917-9.9656
						c0-5.5083,3.0157-9.9656,7.917-9.9656c3.9706,0,7.4275,2.8266,7.6269,7.9L52.5698,49.1836z M58.6073,48.0239
						c-0.0846-2.3193-0.3505-5.5807-3.0157-5.5807s-2.9311,3.2615-3.0157,5.5807L58.6073,48.0239z M76.617,57.1198
						c-1.1301,2.7541-2.641,4.095-5.1068,4.095c-3.6261,0-5.421-3.1165-5.421-7.4289c0-2.8266-0.0302-5.6532-0.0604-8.5161
						c0-1.2683-0.5802-1.5583-1.4807-1.8119v-0.5798c1.9702-0.2174,3.9706-0.5073,6.0012-1.0509
						c-0.0846,1.667-0.2297,4.6385-0.2297,8.1174v3.5876c0,2.3555,0.4956,5.4358,2.8102,5.4358
						c2.5262,0,3.3904-3.7326,3.3904-7.3564v-5.9069c0-1.4133-0.55-2.1018-1.6257-2.3193v-0.5436
						c1.9702-0.2174,3.9706-0.5073,5.9468-1.0147c-0.0604,4.4211-0.0846,8.9147-0.0846,13.372c0,3.2977,0.4049,4.3849,1.7103,4.9284
						v0.5436h-5.1309L76.617,57.1198z M105.5654,49.1836v2.0656c0,3.95,0.9307,8.4436,4.9859,8.4436
						c3.0761,0,4.9617-3.5876,5.5963-6.9578l0.7554,0.6885c-1.0153,5.1459-3.8014,7.7913-8.1769,7.7913
						c-4.9013,0-7.917-4.6748-7.917-9.9656c0-5.5083,3.0157-9.9656,7.917-9.9656c3.9706,0,7.4275,2.8266,7.6269,7.9
						L105.5654,49.1836L105.5654,49.1836z M111.5968,48.0239c-0.0846-2.3193-0.3505-5.5807-3.0157-5.5807
						c-2.6712,0-2.9311,3.2615-3.0157,5.5807H111.5968L111.5968,48.0239z M123.3454,45.3423v0.0725h0.0604
						c1.0455-2.7541,2.641-4.1312,5.1309-4.1312c3.0761,0,5.2518,2.5729,5.2518,6.4142v9.6032c0,1.7032,0.5802,2.6454,1.9158,2.9716
						v0.5436c-1.3356,0-2.8163-0.145-4.031-0.145c-1.1906,0-2.5504,0.145-3.886,0.145v-0.5436
						c1.0153-0.145,1.7707-1.1596,1.7707-2.9716v-8.5523c0-2.3555-0.4956-5.4358-2.8102-5.4358c-2.496,0-3.1608,4.6748-3.1608,6.994
						v4.3124c0,3.0078,0.4049,5.1096,1.9702,5.6532v0.5436c-1.3658,0-2.7558-0.145-4.0915-0.145
						c-1.3356,0-2.7256,0.145-4.0915,0.145v-0.5436c1.5653-0.5436,1.9702-2.6454,1.9702-5.6532v-7.7188
						c0-2.5367-0.9307-3.2977-1.801-3.5151v-0.5436c1.9158-0.1812,3.8014-0.5073,5.8018-1.0147L123.3454,45.3423L123.3454,45.3423z
						 M142.1105,45.3423v0.0725h0.0604c1.0455-2.7541,2.641-4.1312,5.131-4.1312c3.0761,0,5.2518,2.5729,5.2518,6.4142v9.6032
						c0,1.7032,0.5802,2.6454,1.9158,2.9716v0.5436c-1.3356,0-2.8102-0.145-4.031-0.145c-1.1906,0-2.5504,0.145-3.886,0.145v-0.5436
						c1.0153-0.145,1.7708-1.1596,1.7708-2.9716v-8.5523c0-2.3555-0.4956-5.4358-2.8102-5.4358
						c-2.6712,0-3.3904,3.2977-3.3904,8.1174v3.189c0,3.0078,0.4049,5.1096,1.9702,5.6532v0.5436
						c-1.3658,0-2.7558-0.145-4.0915-0.145c-1.3356,0-2.7256,0.145-4.0915,0.145v-0.5436c1.5653-0.5436,1.9702-2.6454,1.9702-5.6532
						V38.8918c0-1.6307-0.4351-2.3555-1.6801-2.6816v-0.5436c1.9702-0.2537,3.9464-0.6885,5.9166-1.2683v10.944L142.1105,45.3423z
						 M172.5094,51.2492c0,6.1243-4.1156,9.9656-8.757,9.9656s-8.757-3.8413-8.757-9.9656s4.1156-9.9656,8.757-9.9656
						C168.3938,41.2836,172.5094,45.1249,172.5094,51.2492z M159.7515,51.2492c0,3.1165,0.6648,8.806,4.0008,8.806
						s4.0008-5.6894,4.0008-8.806s-0.6648-8.806-4.0008-8.806S159.7515,48.1327,159.7515,51.2492z M179.3325,44.2914v11.9587
						c0,2.2105,0.4049,3.7326,1.9702,4.0225v0.5436c-1.3658,0-2.7558-0.145-4.0915-0.145s-2.7256,0.145-4.0915,0.145v-0.5436
						c1.5653-0.2899,1.9702-1.8119,1.9702-4.0225V44.2914h-2.496l0.55-1.8844h2.0004c0-7.6826,3.7107-8.0087,8.8175-8.0087
						l-1.5955,5.5445l-0.3747-0.1812c-0.1752-1.0147-0.4351-3.7326-1.4504-3.7326c-0.7554,0-1.2208,0.6523-1.2208,2.3193v4.0587
						h2.8707l-0.4956,1.8844L179.3325,44.2914L179.3325,44.2914z"/>
					<path class="st2" d="M87.2052,39.0851c-1.3477,0-2.0306-0.1872-2.0306-0.1872v15.7275c0,3.0078-0.4049,5.1096-1.9702,5.6532
						v0.5436c1.3658,0,2.7558-0.145,4.0915-0.145s2.7256,0.145,4.0915,0.145v-0.5436c-1.5653-0.5436-1.9702-2.6454-1.9702-5.6532
						v-1.5583c0-1.8119,0.3203-2.4642,1.0153-2.4642c0.4653,0,0.695,0.2537,0.8703,0.6885l4.031,9.5307
						c0.9851,0,1.9702-0.145,2.8707-0.145c0.8703,0,2.0004,0.145,2.9553,0.145v-0.5436c-0.9851-0.7248-1.4504-1.4858-2.0608-2.7541
						l-2.8707-5.6895c-0.8461-1.6549-1.5532-2.2166-4.1338-2.4401c0.6648-0.1752,4.025-1.1959,6.533-4.3486
						c0.9307-1.1717,2.1696-5.5083,3.1487-9.1804c0.0967-0.2657,0.1692-0.5073,0.2055-0.6946
						c0.0242-0.1087,0.0302-0.1993,0.0302-0.2839c0-0.4047-0.2357-0.5557-0.4533-0.61c-0.411-0.0966-0.5741,0.0785-0.7313,0.5194
						h-0.006c0,0-0.006,0.0181-0.006,0.0302c-0.0604,0.1812-0.1209,0.3865-0.1934,0.6523
						c-0.0061,0.0181-0.0061,0.0302-0.0121,0.0483c-0.4472,1.1959-1.7587,3.2675-5.7051,5.2787
						c-2.6652,1.3589-4.4601,4.5721-5.4996,7.0484v-9.0717C89.4111,38.7771,88.5529,39.0851,87.2052,39.0851L87.2052,39.0851z
						 M97.6786,44.2853c-2.4235,3.044-5.8078,3.9138-5.9045,3.9379c-0.145,0.0181-0.7131,0.1268-1.3779,0.4288
						c0.9488-2.3434,2.6168-5.5324,5.0584-6.7766c1.8977-0.9664,3.2333-1.969,4.1942-2.9112
						C98.7846,41.9419,98.1198,43.7236,97.6786,44.2853z"/>
				</g>
				<path class="st1" d="M95.3881,28.5034c-0.9549-4.4271-2.8404-6.5652-3.6442-7.4772l-0.1813-0.2114
					c-0.5862-0.6885-1.39-0.6583-1.9762-0.4711c-0.6225-0.6402-1.3114-0.9724-2.0608-0.9905
					c-1.0032-0.0242-1.801,0.5436-2.1817,0.8758c-0.6164-0.1691-1.7768-0.3141-2.5383,0.6463
					c-0.139,0.157-3.9464,4.4634-3.892,9.5972c0.0423,3.8896,1.2027,6.4565,3.5355,7.8275c0.139,0.1389,0.2357,0.2235,0.2538,0.2416
					l0.0302,0.0242l0.0363,0.0181c3.3541,2.0837,8.0258,0.5073,8.2192,0.4409c2.0669-0.9845,2.8586-2.0596,2.9855-2.2407
					c0.6104-0.5979,1.7405-2.4219,1.7405-5.4177C95.7051,30.4033,95.5958,29.4439,95.3881,28.5034z M87.5013,20.5672
					c0.3626,0.0121,0.7131,0.1691,1.0576,0.4771l-0.973,0.906c-0.284-0.3624-0.6527-0.7731-1.0214-1.0992
					C86.8245,20.7001,87.1448,20.5612,87.5013,20.5672z M83.6335,21.5819c0.55-0.6946,1.6801-0.2114,1.6861-0.2054
					c0,0,0.1027,0.0423,0.1692,0.0725c0.3143,0.1993,1.0214,0.906,1.2631,1.2865c-1.1362,1.1355-2.4537,2.7541-3.9283,4.8318
					c-1.3054,1.8421-2.0306,4.6627-2.0608,4.7835c-0.1692,0.8033-0.1813,1.5281-0.1088,2.1864
					c-0.3868-1.0026-0.6406-2.3132-0.6587-4.0708C79.9469,25.7614,83.5972,21.6242,83.6335,21.5819z M93.1037,35.9565
					l-0.0544,0.0483l-0.0423,0.0664c-0.006,0.0121-0.6587,0.9724-2.4476,1.83c-0.3445,0.1087-4.3634,1.3589-7.1193-0.3261
					c-0.2055-0.1812-1.6197-1.4979-1.6197-3.7688c0-0.3745,0.0363-0.7731,0.1269-1.1898c0,0,0.701-2.6998,1.8735-4.3547
					c1.535-2.1622,2.9371-3.8715,4.0612-4.9405l1.8735-1.7395c0.0907-0.0483,0.5983-0.3201,0.8823,0.0121l0.1994,0.2295
					c0.7434,0.8395,2.4839,2.8145,3.3723,6.9336c0.2115,0.9905,0.2961,1.8663,0.2961,2.6394
					C94.5058,34.519,93.1218,35.9384,93.1037,35.9565z"/>
			</g>
			<g>
				<path class="st2" d="M187.4973,34.3982c0.2901,0,0.5681,0.0725,0.8401,0.2235c0.272,0.145,0.4895,0.3563,0.6406,0.6342
					c0.1511,0.2718,0.2297,0.5617,0.2297,0.8576s-0.0725,0.5798-0.2236,0.8516c-0.1511,0.2718-0.3626,0.4832-0.6346,0.6342
					c-0.272,0.151-0.556,0.2235-0.8521,0.2235s-0.5802-0.0725-0.8521-0.2235c-0.272-0.151-0.4835-0.3624-0.6346-0.6342
					c-0.1487-0.2593-0.2278-0.5527-0.2297-0.8516c0-0.2959,0.0786-0.5859,0.2297-0.8576s0.3686-0.4832,0.6406-0.6342
					C186.9292,34.4768,187.2133,34.3982,187.4973,34.3982L187.4973,34.3982z M187.4973,34.6821
					c-0.2417,0-0.4774,0.0604-0.701,0.1872c-0.2297,0.1208-0.4049,0.302-0.5318,0.5315s-0.1934,0.4651-0.1934,0.7187
					c0,0.2476,0.0665,0.4832,0.1873,0.7067c0.1269,0.2295,0.3022,0.4047,0.5318,0.5315c0.2296,0.1268,0.4653,0.1872,0.7131,0.1872
					s0.4835-0.0664,0.7131-0.1872c0.2297-0.1268,0.4049-0.302,0.5318-0.5315c0.1269-0.2235,0.1873-0.4651,0.1873-0.7067
					c0-0.2476-0.0665-0.4892-0.1934-0.7187c-0.1269-0.2295-0.3082-0.4047-0.5318-0.5315
					C187.9687,34.7425,187.739,34.6821,187.4973,34.6821L187.4973,34.6821z M186.8083,37.0618v-1.8482h0.6346
					c0.2176,0,0.3747,0.0181,0.4714,0.0483c0.0967,0.0362,0.1753,0.0966,0.2296,0.1812c0.0604,0.0846,0.0846,0.1752,0.0846,0.2718
					c0,0.1329-0.0483,0.2537-0.145,0.3503c-0.0967,0.1027-0.2236,0.157-0.3868,0.1691c0.0665,0.0242,0.1209,0.0604,0.1571,0.0966
					c0.0725,0.0725,0.1632,0.1933,0.272,0.3684l0.2236,0.3624h-0.3626l-0.1632-0.2899c-0.133-0.2295-0.2357-0.3745-0.3143-0.4288
					c-0.0544-0.0423-0.133-0.0664-0.2417-0.0604h-0.1753v0.7852h-0.2841V37.0618z M187.1045,36.0229h0.3686
					c0.1753,0,0.2961-0.0242,0.3566-0.0785c0.0665-0.0544,0.0967-0.1208,0.0967-0.2053c0-0.0544-0.0181-0.1027-0.0483-0.145
					c-0.031-0.0449-0.0754-0.0787-0.1269-0.0966c-0.0544-0.0242-0.1571-0.0302-0.3022-0.0302h-0.3445V36.0229z"/>
				<path class="st2" d="M187.4973,34.3982c0.2901,0,0.5681,0.0725,0.8401,0.2235c0.272,0.145,0.4895,0.3563,0.6406,0.6342
					c0.1511,0.2718,0.2297,0.5617,0.2297,0.8576s-0.0725,0.5798-0.2236,0.8516c-0.1511,0.2718-0.3626,0.4832-0.6346,0.6342
					c-0.272,0.151-0.556,0.2235-0.8521,0.2235s-0.5802-0.0725-0.8521-0.2235c-0.272-0.151-0.4835-0.3624-0.6346-0.6342
					c-0.1487-0.2593-0.2278-0.5527-0.2297-0.8516c0-0.2959,0.0786-0.5859,0.2297-0.8576s0.3686-0.4832,0.6406-0.6342
					C186.9292,34.4768,187.2133,34.3982,187.4973,34.3982L187.4973,34.3982z M187.4973,34.6821
					c-0.2417,0-0.4774,0.0604-0.701,0.1872c-0.2297,0.1208-0.4049,0.302-0.5318,0.5315s-0.1934,0.4651-0.1934,0.7187
					c0,0.2476,0.0665,0.4832,0.1873,0.7067c0.1269,0.2295,0.3022,0.4047,0.5318,0.5315c0.2296,0.1268,0.4653,0.1872,0.7131,0.1872
					s0.4835-0.0664,0.7131-0.1872c0.2297-0.1268,0.4049-0.302,0.5318-0.5315c0.1269-0.2235,0.1873-0.4651,0.1873-0.7067
					c0-0.2476-0.0665-0.4892-0.1934-0.7187c-0.1269-0.2295-0.3082-0.4047-0.5318-0.5315
					C187.9687,34.7425,187.739,34.6821,187.4973,34.6821L187.4973,34.6821z M186.8083,37.0618v-1.8482h0.6346
					c0.2176,0,0.3747,0.0181,0.4714,0.0483c0.0967,0.0362,0.1753,0.0966,0.2296,0.1812c0.0604,0.0846,0.0846,0.1752,0.0846,0.2718
					c0,0.1329-0.0483,0.2537-0.145,0.3503c-0.0967,0.1027-0.2236,0.157-0.3868,0.1691c0.0665,0.0242,0.1209,0.0604,0.1571,0.0966
					c0.0725,0.0725,0.1632,0.1933,0.272,0.3684l0.2236,0.3624h-0.3626l-0.1632-0.2899c-0.133-0.2295-0.2357-0.3745-0.3143-0.4288
					c-0.0544-0.0423-0.133-0.0664-0.2417-0.0604h-0.1753v0.7852h-0.2841V37.0618z M187.1045,36.0229h0.3686
					c0.1753,0,0.2961-0.0242,0.3566-0.0785c0.0665-0.0544,0.0967-0.1208,0.0967-0.2053c0-0.0544-0.0181-0.1027-0.0483-0.145
					c-0.031-0.0449-0.0754-0.0787-0.1269-0.0966c-0.0544-0.0242-0.1571-0.0302-0.3022-0.0302h-0.3445V36.0229z"/>
			</g>
		</g>
	</g>
</g>
</svg>
